<svg width="126" height="126" viewBox="0 0 126 126" fill="none" xmlns="http://www.w3.org/2000/svg">
<g clip-path="url(#clip0_1_3194)">
<path d="M105.867 15.9322C106.421 15.9336 106.967 16.0544 107.47 16.2864C107.973 16.5197 108.417 16.8615 108.772 17.2872C109.128 17.7111 109.387 18.2086 109.529 18.744C109.674 19.2796 109.698 19.8407 109.6 20.3868L109.157 22.8134L106.638 35.6549L105.508 42.018L104.361 48.5229L103.201 55.0499L101.97 61.9798L100.704 69.1268L93.7828 108.094C93.6277 108.971 93.1685 109.766 92.4859 110.338C91.8033 110.911 90.9408 111.225 90.0499 111.225H82.7878C83.6788 111.225 84.5413 110.911 85.2239 110.338C85.9065 109.766 86.3657 108.971 86.5207 108.094L87.3753 103.281L87.8492 100.624L88.5399 96.727L88.6817 95.9433L89.9835 88.5971L92.1577 76.3534L93.4418 69.1268L94.7437 61.9798L95.9703 55.0499L97.1171 48.5229L98.2861 42.0003L99.4198 35.6327L101.935 22.8134L102.378 20.3912C102.476 19.8451 102.452 19.284 102.307 18.7484C102.165 18.2136 101.908 17.7164 101.554 17.2916C101.197 16.8667 100.751 16.5251 100.248 16.2908C99.7459 16.0567 99.1987 15.9357 98.6448 15.9366L105.867 15.9322Z" fill="#003D80"/>
<path d="M98.6238 15.9322C99.1776 15.9319 99.7247 16.0528 100.227 16.2864C100.728 16.522 101.172 16.8634 101.529 17.2872C101.883 17.7122 102.142 18.2093 102.286 18.744C102.427 19.2803 102.45 19.8409 102.352 20.3868L101.909 22.809L99.3943 35.6504L98.2873 41.9959L97.1138 48.5229L95.9537 55.0455L94.7448 61.9754L93.474 69.1268L92.1943 76.3534L90.02 88.5971L88.6916 95.9433L88.5544 96.7315L87.8591 100.624L87.3854 103.281L86.5396 108.098C86.3845 108.976 85.9253 109.77 85.2427 110.343C84.5601 110.915 83.6976 111.229 82.8067 111.229H47.382C46.8273 111.228 46.2795 111.106 45.7769 110.871C45.2743 110.637 44.8292 110.295 44.4728 109.87C44.1186 109.444 43.8614 108.946 43.7192 108.411C43.577 107.875 43.553 107.315 43.6491 106.77L44.2735 103.25L46.8817 88.5528L47.7362 83.7439C48.4209 83.9102 49.1143 84.0388 49.8131 84.1291L49.0248 88.5572L47.6964 95.9034L46.368 103.254L46.2263 104.056C45.7082 106.978 46.1687 108.094 49.4721 108.129H81.5137C83.8429 108.129 84.4362 108.129 84.8303 105.915C84.8613 105.72 84.8968 105.508 84.9277 105.273L85.282 103.294L85.3086 103.148L85.6806 101.027L86.4422 96.7403L86.5838 95.9389L87.8857 88.5926L90.2282 75.3748L90.7729 72.315L91.3397 69.1179L92.6061 61.971L93.8592 55.041L95.0149 48.5229L96.1751 41.9959L97.3043 35.6283L99.8194 22.809V22.7204C100.523 18.7617 99.2349 18.6466 96.4054 18.6466H64.5231C62.2161 18.7307 61.5165 19.2134 61.1091 21.5071L60.8833 22.778L58.7888 33.3124L56.867 32.1877L59.4397 19.0584C59.5961 18.1825 60.0553 17.3895 60.7371 16.8178C61.4199 16.2459 62.282 15.9324 63.1726 15.9322H98.6238Z" fill="#0057B7"/>
<path d="M85.3026 103.288L84.9484 105.272C84.9174 105.502 84.882 105.715 84.851 105.91C84.4569 108.124 83.8635 108.124 81.5343 108.124H76.9025L77.7881 103.253H85.3159L85.3026 103.288Z" fill="#CAE3FF"/>
<path d="M77.7747 103.284L76.8891 108.155H67.0366L67.9222 103.284H77.7747Z" fill="#CAE3FF"/>
<path d="M77.4484 95.9883L69.2521 95.9307L70.0402 91.5646L70.1067 91.4584L77.4484 95.9883Z" fill="#CAE3FF"/>
<path d="M77.7757 103.283H67.9276L69.256 95.937L77.4524 95.9945L85.5824 101.012H85.7108L85.3344 103.133L85.3078 103.279H77.78L77.7757 103.283Z" fill="#CAE3FF"/>
<path d="M96.4171 18.6407C99.2467 18.6407 100.531 18.7558 99.8267 22.7145V22.8031H92.4717L93.2201 18.6495L96.4171 18.6407Z" fill="#CAE3FF"/>
<path d="M99.8139 22.8084L97.2988 35.6499H89.9304L92.4588 22.8306H99.8139V22.8084Z" fill="#CAE3FF"/>
<path d="M97.2988 35.6265L96.1696 41.9941H88.788L89.9305 35.6265H97.2988Z" fill="#CAE3FF"/>
<path d="M96.17 41.9899L95.0142 48.5214H87.6149L88.7884 41.9944H94.2305L96.17 41.9899Z" fill="#CAE3FF"/>
<path d="M95.0136 48.5217L93.8578 55.0443H86.4408L87.6142 48.5217H95.0136Z" fill="#CAE3FF"/>
<path d="M93.8588 55.0456L92.6277 61.9755H90.644H85.1974L86.4417 55.0456H91.8883H93.8588Z" fill="#CAE3FF"/>
<path d="M92.6277 61.9758L91.3612 69.1227H84.3693L83.9531 68.9102L85.1973 61.9713H90.6439L92.6277 61.9758Z" fill="#CAE3FF"/>
<path d="M93.2076 18.6447L92.4592 22.7982H82.6067L83.3506 18.6535L93.2076 18.6447Z" fill="#CAE3FF"/>
<path d="M91.3617 69.1228L90.7949 72.3244H90.7595L84.3609 69.1228H91.3528H91.3617Z" fill="#CAE3FF"/>
<path d="M92.4592 22.7985L89.9308 35.64H80.0783L82.6067 22.8207L92.4592 22.7985Z" fill="#CAE3FF"/>
<path d="M89.9308 35.619L88.7884 41.9822H78.9359L80.0783 35.6146L89.9308 35.619Z" fill="#CAE3FF"/>
<path d="M88.7878 41.986L87.6143 48.5219H77.7618L78.9353 41.9948L88.7878 41.986Z" fill="#CAE3FF"/>
<path d="M87.6137 48.5217L86.4402 55.0487H76.5877L77.7612 48.5217H87.6137Z" fill="#CAE3FF"/>
<path d="M86.4401 55.0366L85.1958 61.9666H75.3433L76.5876 55.0278L86.4401 55.0366Z" fill="#CAE3FF"/>
<path d="M85.1961 61.9673L83.9519 68.8928L81.1001 67.4493L74.9008 64.3186L75.3436 61.9496L85.1961 61.9673Z" fill="#CAE3FF"/>
<path d="M83.3551 18.6447L82.6068 22.7893H73.2812L74.0296 18.6491L83.3551 18.6447Z" fill="#CAE3FF"/>
<path d="M82.6069 22.7906L80.0784 35.6321H70.7529L73.2813 22.8128H82.6069V22.7906Z" fill="#CAE3FF"/>
<path d="M80.0773 35.6106L78.9349 41.9782H73.4883L69.9946 39.9192L70.7695 35.6106H80.0773Z" fill="#CAE3FF"/>
<path d="M78.9345 41.9781L77.761 48.5228H75.7949C76.2702 47.0467 76.6703 45.5619 76.995 44.0681L73.4525 41.9958L78.9345 41.9781Z" fill="#CAE3FF"/>
<path d="M77.7626 48.5236L76.5891 55.0285H73.1307C74.1788 52.924 75.0669 50.7437 75.7876 48.5059L77.7626 48.5236Z" fill="#CAE3FF"/>
<path d="M76.5885 55.0278L75.3398 61.9621H71.4829C71.2402 61.7019 71.0139 61.4268 70.8054 61.1385C70.646 60.9215 70.4999 60.6957 70.3626 60.4743L70.1678 60.1466C71.261 58.5046 72.249 56.7948 73.1258 55.0278H76.5885Z" fill="#CAE3FF"/>
<path d="M75.3442 61.9619L74.9014 64.3265L74.4276 64.0874C73.308 63.5842 72.3019 62.8597 71.4696 61.9575L75.3442 61.9619Z" fill="#CAE3FF"/>
<path d="M74.0294 18.6447L73.2855 22.7849H65.0536L65.7976 18.6535L74.0294 18.6447Z" fill="#CAE3FF"/>
<path d="M73.2807 22.7871L70.7522 35.6286H62.6577L62.5381 35.5577L65.0754 22.7827L73.2807 22.7871Z" fill="#CAE3FF"/>
<path d="M70.7525 35.6052L69.9775 39.9137L62.658 35.6007L70.7525 35.6052Z" fill="#CAE3FF"/>
<path d="M70.066 91.4332L70.1058 91.4554L70.0394 91.5616L69.2512 95.9277H59.9257L61.2541 88.5815H64.9604L68.0202 90.2864L70.066 91.4332Z" fill="#CAE3FF"/>
<path d="M84.8072 29.1875C85.1038 27.4162 85.25 26.5085 84.8072 25.9594C84.3643 25.4103 83.4521 25.4192 81.6587 25.4413L77.0978 25.4989C75.3 25.521 74.4012 25.5299 73.7369 26.0922C73.0727 26.6546 72.8823 27.5491 72.5236 29.338C72.2284 30.8583 71.9745 32.3757 71.762 33.8901C71.5317 35.6613 71.4166 36.5735 71.8948 37.1182C72.3731 37.6628 73.2454 37.6584 74.9945 37.6362L79.6042 37.5831C81.4285 37.561 82.3407 37.5477 82.9916 36.9853C83.6425 36.423 83.7887 35.5285 84.0765 33.7395C84.3156 32.2251 84.5592 30.7078 84.8072 29.1875Z" fill="#0057B7"/>
<path fill-rule="evenodd" clip-rule="evenodd" d="M81.1446 30.5363C81.1681 30.4075 81.1829 30.2774 81.1889 30.1466H81.7557L82.1985 29.5931H81.1623C81.12 29.3503 81.0361 29.1166 80.9143 28.9023L80.8214 28.7606C80.6519 28.5185 80.4256 28.3216 80.1623 28.1873C79.8991 28.053 79.6069 27.9853 79.3114 27.9901H75.5829C75.565 27.9899 75.5477 27.9959 75.5339 28.0073C75.5201 28.0187 75.5108 28.0346 75.5077 28.0521C75.1239 30.3754 74.7357 32.6972 74.3431 35.0175C74.3411 35.0257 74.341 35.0343 74.3427 35.0426C74.3444 35.0509 74.3479 35.0587 74.353 35.0654C74.358 35.0722 74.3646 35.0777 74.372 35.0817C74.3795 35.0857 74.3878 35.0879 74.3962 35.0884H75.1799C75.1979 35.0869 75.215 35.0796 75.2286 35.0676C75.2421 35.0557 75.2515 35.0396 75.2552 35.0219C75.3526 34.371 75.4589 33.7201 75.5608 33.0692H77.9475C78.0466 33.0678 78.1446 33.0909 78.2327 33.1365C78.3207 33.1821 78.3962 33.2487 78.4523 33.3304L79.4354 34.836C79.4867 34.9186 79.5585 34.9865 79.6439 35.0331C79.7292 35.0796 79.8252 35.1033 79.9224 35.1017H80.6221C80.6295 35.1008 80.6367 35.0983 80.643 35.0942C80.6493 35.0902 80.6546 35.0847 80.6584 35.0783C80.6623 35.0719 80.6646 35.0646 80.6652 35.0572C80.6658 35.0497 80.6647 35.0422 80.6619 35.0352C80.2191 34.3223 79.7763 33.6094 79.3025 32.892C79.6321 32.7592 79.9329 32.5637 80.1881 32.3164C80.4446 32.0754 80.6599 31.7943 80.8257 31.4839H81.5298L81.9727 30.9304H81.087C81.1151 30.8005 81.1343 30.6688 81.1446 30.5363ZM79.6346 31.6965C79.349 31.9757 78.9668 32.1343 78.5674 32.1393H75.7025C75.8855 31.047 76.0685 29.9562 76.2515 28.8669H79.1342C79.3141 28.8648 79.4918 28.9068 79.6516 28.9895C79.8115 29.0721 79.9485 29.1927 80.0508 29.3407C80.1015 29.4088 80.1432 29.4833 80.1748 29.5621H78.7357L78.2929 30.1156H80.29C80.2942 30.2461 80.2853 30.3766 80.2634 30.5053C80.238 30.6367 80.2009 30.7657 80.1527 30.8905H78.4878C78.3461 31.0765 78.2088 31.2625 78.0449 31.4485H79.8162C79.7624 31.5359 79.7017 31.6188 79.6346 31.6965Z" fill="white"/>
<path d="M69.2501 95.929L67.9217 103.275H58.5961L59.9246 95.929H69.2501Z" fill="#CAE3FF"/>
<path d="M67.9273 103.277L67.0416 108.147H57.725L58.6106 103.277H67.9405H67.9273Z" fill="#CAE3FF"/>
<path d="M64.9427 88.5789H61.2364L61.5685 86.7501L64.9427 88.5789Z" fill="#CAE3FF"/>
<path d="M65.7969 18.6407L65.0751 22.7765H60.9216L61.1474 21.5057C61.5548 19.2119 62.2588 18.7292 64.5614 18.6451L65.7969 18.6407Z" fill="#CAE3FF"/>
<path d="M65.0758 22.7836L62.5606 35.5321L58.81 33.3181L60.9222 22.7748L65.0758 22.7836Z" fill="#CAE3FF"/>
<path d="M61.5643 86.7461L61.2367 88.5749H53.0137L53.7842 84.2663C54.2757 84.2309 54.7628 84.1778 55.2499 84.1069C55.98 83.9976 56.7258 84.1281 57.3754 84.4789L61.5643 86.7461Z" fill="#CAE3FF"/>
<path d="M61.2361 88.5736L59.9077 95.9198H51.6803L53.0087 88.5736H61.2361Z" fill="#CAE3FF"/>
<path d="M59.9164 95.9033L58.588 103.25H50.3607L51.6891 95.9033H59.9164Z" fill="#CAE3FF"/>
<path d="M58.598 103.267L57.7124 108.138H49.4806L50.3662 103.267H58.5936H58.598Z" fill="#CAE3FF"/>
<path d="M53.7844 84.2621L53.0094 88.5706H49.0242L49.8124 84.1426C51.129 84.3159 52.4597 84.3559 53.7844 84.2621Z" fill="#CAE3FF"/>
<path d="M53.0083 88.5701L51.6799 95.9163H47.6946L49.0231 88.5657L53.0083 88.5701Z" fill="#CAE3FF"/>
<path d="M51.6888 95.9038L50.3603 103.25H46.3751L47.7035 95.8994L51.6888 95.9038Z" fill="#CAE3FF"/>
<path d="M50.3702 103.263L49.4846 108.134C46.1857 108.099 45.7207 106.983 46.2388 104.06L46.3805 103.259H50.3658L50.3702 103.263Z" fill="#CAE3FF"/>
<path d="M90.0504 111.4H82.7883C82.7426 111.397 82.6999 111.376 82.6687 111.343C82.6517 111.326 82.6382 111.306 82.6291 111.284C82.6199 111.262 82.6154 111.238 82.6156 111.214C82.6157 111.191 82.6204 111.168 82.6296 111.147C82.6387 111.126 82.652 111.106 82.6687 111.09C82.6999 111.057 82.7426 111.036 82.7883 111.033H90.0327C90.8791 111.031 91.6979 110.732 92.3456 110.187C92.9933 109.642 93.4285 108.886 93.5751 108.053L100.496 69.0856C100.49 69.0624 100.49 69.0379 100.496 69.0148C100.51 68.9936 100.526 68.9743 100.545 68.9572L100.616 68.9262C100.639 68.9218 100.663 68.9218 100.687 68.9262C100.712 68.9303 100.736 68.9394 100.757 68.9528C100.779 68.9657 100.798 68.984 100.811 69.0059C100.824 69.0276 100.833 69.0516 100.837 69.0767C100.842 69.1002 100.842 69.1242 100.837 69.1476L93.9161 108.115C93.7512 109.034 93.269 109.865 92.5536 110.465C91.8383 111.065 90.9351 111.394 90.0017 111.396L90.0504 111.4Z" fill="#0057B7"/>
<path d="M100.704 69.3344H100.669C100.645 69.3295 100.623 69.3205 100.602 69.3079L100.554 69.2591C100.538 69.2399 100.528 69.2171 100.523 69.1927C100.518 69.1678 100.518 69.1423 100.523 69.1175L109.419 20.3731C109.508 19.8547 109.485 19.3233 109.352 18.8144C109.215 18.3057 108.968 17.8328 108.631 17.4284C108.293 17.0233 107.869 16.6982 107.391 16.4763C106.915 16.2508 106.394 16.1344 105.867 16.1354H98.6231C98.5986 16.1357 98.5742 16.1312 98.5514 16.1221C98.5286 16.113 98.5078 16.0994 98.4903 16.0822C98.4577 16.0472 98.4389 16.0016 98.4371 15.9538C98.4386 15.9047 98.4574 15.8576 98.4903 15.821C98.5078 15.8038 98.5286 15.7902 98.5514 15.7811C98.5742 15.772 98.5986 15.7675 98.6231 15.7678H105.867C106.449 15.7686 107.023 15.8955 107.55 16.1398C108.074 16.3817 108.539 16.7336 108.914 17.1715C109.289 17.616 109.561 18.1376 109.711 18.6992C109.858 19.2616 109.883 19.8492 109.782 20.4218L100.886 69.1662C100.878 69.2076 100.856 69.2451 100.824 69.2724C100.793 69.3077 100.751 69.3299 100.704 69.3344Z" fill="#0057B7"/>
<path d="M27.6889 54.5416C27.6528 54.5407 27.6176 54.53 27.5871 54.5106L26.4757 53.749C26.439 53.7184 26.4141 53.6762 26.4048 53.6294C26.3996 53.5829 26.4105 53.536 26.4358 53.4966C26.4628 53.4574 26.5042 53.4303 26.551 53.4213C26.595 53.4038 26.6442 53.4038 26.6883 53.4213L27.7953 54.1829C27.8268 54.206 27.8501 54.2386 27.8617 54.2759C27.8726 54.312 27.8726 54.3505 27.8617 54.3866C27.8491 54.4247 27.8262 54.4585 27.7953 54.484C27.7668 54.514 27.7296 54.5342 27.6889 54.5416Z" fill="#0057B7"/>
<path d="M102.272 39.7905H102.241C102.217 39.7866 102.194 39.7779 102.174 39.765C102.153 39.7521 102.135 39.7352 102.121 39.7153C102.094 39.6751 102.083 39.626 102.09 39.578L103.6 30.8591C103.594 30.8359 103.594 30.8114 103.6 30.7882C103.613 30.7661 103.629 30.7466 103.649 30.7307C103.669 30.7168 103.692 30.7063 103.716 30.6997C103.74 30.6954 103.766 30.6954 103.791 30.6997C103.816 30.7054 103.84 30.7159 103.862 30.7307C103.884 30.7436 103.902 30.7619 103.915 30.7838C103.928 30.8039 103.937 30.8265 103.941 30.8502C103.946 30.8751 103.946 30.9006 103.941 30.9255L102.423 39.6444C102.414 39.6866 102.392 39.7247 102.359 39.7522C102.326 39.7796 102.284 39.7947 102.241 39.795L102.272 39.7905Z" fill="white"/>
<path d="M100.198 51.5293H100.167C100.143 51.5254 100.121 51.5167 100.1 51.5038C100.079 51.4908 100.062 51.4739 100.048 51.454C100.033 51.4347 100.023 51.4125 100.017 51.3888C100.012 51.3651 100.012 51.3405 100.017 51.3167L101.531 42.5978C101.544 42.5527 101.572 42.5135 101.611 42.4871C101.65 42.461 101.698 42.4515 101.744 42.4606C101.767 42.4638 101.789 42.4717 101.809 42.4839C101.829 42.4961 101.846 42.5123 101.859 42.5314C101.874 42.5487 101.885 42.5692 101.892 42.5915C101.898 42.6138 101.899 42.6371 101.894 42.6598L100.38 51.3787C100.372 51.4202 100.35 51.4576 100.318 51.485C100.284 51.5125 100.242 51.528 100.198 51.5293Z" fill="white"/>
<path d="M78.3327 86.6045C78.7426 86.6843 79.1201 86.883 79.4177 87.176C79.7154 87.4689 79.9202 87.8431 80.0065 88.2518C80.0694 88.5573 80.0638 88.873 79.9901 89.1762C79.9165 89.4793 79.7766 89.7624 79.5805 90.005C79.3844 90.2477 79.137 90.4439 78.8561 90.5795C78.5751 90.7152 78.2676 90.7869 77.9557 90.7896C77.6437 90.7922 77.3351 90.7258 77.0519 90.5949C76.7687 90.4641 76.518 90.2722 76.3178 90.0329C76.1176 89.7937 75.9728 89.513 75.894 89.2112C75.8151 88.9093 75.8042 88.5938 75.8618 88.2872C75.9134 88.0149 76.0182 87.7555 76.1701 87.5237C76.3221 87.292 76.5183 87.0925 76.7474 86.9366C77.2109 86.6201 77.7811 86.5007 78.3327 86.6045Z" fill="#CAE3FF"/>
<path d="M77.4469 95.9874L70.1007 91.4752L70.0653 91.4486L68.0018 90.3018L68.0372 90.2398L68.9804 88.597L80.1569 69.1134L81.1045 67.4617L83.9562 68.9053L84.3724 69.1178L90.7577 72.3149H90.7843L90.2396 75.3747L87.8972 88.5881L86.5953 95.9343L86.4536 96.7402L85.692 101.022H85.568L77.4469 95.9874ZM80.0152 89.0708C80.0936 88.6592 80.0473 88.2337 79.8823 87.8486C79.7224 87.4634 79.4491 87.136 79.0986 86.9099C78.7499 86.6791 78.341 86.556 77.9229 86.556C77.5048 86.556 77.0959 86.6791 76.7472 86.9099C76.4028 87.1469 76.135 87.4793 75.9768 87.8663C75.8601 88.1563 75.8091 88.4686 75.8274 88.7807C75.8458 89.0928 75.933 89.3969 76.0829 89.6712C76.2327 89.9456 76.4415 90.1833 76.6942 90.3674C76.9469 90.5514 77.2372 90.6772 77.5443 90.7357C77.9547 90.8126 78.3787 90.7666 78.7631 90.6036C79.1475 90.4405 79.4753 90.1676 79.7052 89.8191C79.8554 89.5917 79.9606 89.3377 80.0152 89.0708Z" fill="#5EA6F5"/>
<path d="M64.2611 67.349L62.2906 64.2007L59.2884 59.3962C58.8767 58.7346 58.6467 57.9762 58.6219 57.1973C58.5971 56.4185 58.7783 55.647 59.1471 54.9606C59.5159 54.2742 60.0593 53.6972 60.7224 53.288C61.3855 52.8789 62.1449 52.6519 62.9238 52.6301C63.6729 54.335 64.6101 55.9509 65.7179 57.4478C66.2626 58.1785 66.8958 58.9135 67.7593 59.2191C68.0413 59.3081 68.3392 59.3352 68.6327 59.2985C68.9262 59.2618 69.2083 59.1622 69.4597 59.0065L70.177 60.1667L70.3718 60.4899C70.5077 60.719 70.6555 60.9407 70.8146 61.1541C71.7481 62.4371 72.9995 63.455 74.4457 64.1077L74.9195 64.3468L81.1188 67.4819L80.1668 69.1247L68.9947 88.6083L68.0515 90.2555L68.0161 90.3131L64.9563 88.6083L61.5821 86.7795L57.3843 84.5034C56.7342 84.1542 55.9888 84.0237 55.2588 84.1315C54.7717 84.2068 54.2846 84.2599 53.7975 84.2953C52.4684 84.3878 51.1334 84.3478 49.8123 84.1758C49.1134 84.0839 48.4201 83.9538 47.7355 83.7861C47.3856 83.6975 47.0447 83.609 46.7037 83.5071C47.1406 82.9964 47.5834 82.4975 48.0322 82.0104C48.6226 81.3875 49.213 80.7809 49.8034 80.1905C50.0337 79.9691 50.2462 79.7477 50.4986 79.5263L50.6005 79.4289C52.1547 77.9764 53.7665 76.586 55.3961 75.2133C56.2817 74.4783 57.1319 73.752 57.9954 72.9993C59.0227 72.1137 60.0456 71.2546 61.0463 70.3424C61.2323 70.183 61.4138 70.0192 61.5954 69.8509L61.8788 69.5985L61.9142 69.5631L62.3216 69.1867L62.4766 69.0406L62.7245 68.8103L63.1673 68.3941L63.2869 68.2745L63.5393 68.0354C63.7253 67.8583 63.9113 67.6723 64.0973 67.4863L64.2035 67.38C64.2199 67.3651 64.2396 67.3544 64.2611 67.349Z" fill="#FDEECA"/>
<path d="M68.3035 57.0866L67.9359 56.5065L68.0378 56.4445C69.5167 54.2836 70.3935 51.8658 71.0577 50.2452C70.0824 49.5484 69.355 48.5585 68.9814 47.4195C68.6079 46.2805 68.6077 45.0521 68.9809 43.913L65.6865 41.9824L61.7897 39.7019L52.7786 34.4103C52.2525 35.0993 51.5754 35.6583 50.7992 36.0443C50.0235 36.4301 49.1682 36.6288 48.3018 36.6244C48.0828 36.628 47.8638 36.6162 47.6465 36.5889C45.5821 41.7629 42.6133 46.528 38.8788 50.6614C34.2293 55.798 28.4994 59.832 23.4514 64.5789C20.8331 66.9802 18.5111 69.6858 16.5347 72.638C17.2139 73.3074 17.6817 74.1614 17.8801 75.0942C18.0785 76.027 17.9987 76.9974 17.6506 77.8853L34.7563 87.937C35.3563 87.1308 36.1792 86.5179 37.1235 86.1741C38.0678 85.8302 39.0921 85.7704 40.07 86.002C42.0344 83.0829 44.3384 80.4074 46.9335 78.0314C49.9535 75.1886 53.5756 72.2173 56.7107 69.4941C58.482 67.9398 60.696 65.9516 62.2769 64.2069L64.2473 67.3597L64.2075 67.3951L64.1012 67.5014L63.5433 68.0505L63.2909 68.294L63.1713 68.4092L62.7285 68.8254L62.4805 69.0601L62.3211 69.2062C62.1883 69.3302 62.0554 69.4542 61.9137 69.5782L61.8783 69.6136C61.7898 69.7022 61.6923 69.7819 61.5994 69.866L61.0901 70.3575C60.0849 71.2432 59.062 72.1288 58.0347 73.0144L55.4354 75.2019C53.8103 76.5746 52.1941 77.9694 50.6398 79.4174L50.538 79.5148L49.8428 80.179C49.2376 80.7694 48.6472 81.3761 48.0715 81.999C47.6287 82.4905 47.1859 82.9864 46.7431 83.4957C45.3615 85.0812 44.1199 86.7835 43.0324 88.5835C41.6641 90.8272 40.6654 93.2761 40.0744 95.8368L10.083 78.1598C11.4424 72.9435 14.7236 68.3693 18.5406 64.4328C19.1517 63.804 19.7716 63.1973 20.4049 62.5995C21.3702 61.6962 22.3562 60.8106 23.3628 59.9427L23.4248 59.8851C25.2492 58.3087 27.1134 56.7854 28.9466 55.2046C30.7799 53.6238 32.5821 52.0341 34.2604 50.3337C34.7917 49.7979 35.3142 49.2488 35.819 48.6909C37.1128 47.2625 38.3152 45.754 39.4191 44.1743C43.1424 38.8299 45.7177 32.7718 46.9822 26.3822L56.8657 32.1874L58.7875 33.321L62.5337 35.5351L62.6532 35.6059L69.9729 39.9189L73.4666 41.9779L77.0091 44.0547C76.6666 45.5573 76.2592 47.0466 75.7869 48.5226C74.4587 52.6447 72.5678 56.5637 70.1677 60.1685L69.4548 59.0084L68.2946 57.1131L68.3035 57.0866ZM74.5692 46.2245C74.5875 45.948 74.5489 45.6708 74.4557 45.4099C74.3625 45.1491 74.2168 44.9101 74.0275 44.7078C73.8382 44.5056 73.6094 44.3444 73.3552 44.2341C73.1011 44.1239 72.827 44.067 72.55 44.067C72.273 44.067 71.9989 44.1239 71.7448 44.2341C71.4906 44.3444 71.2618 44.5056 71.0726 44.7078C70.8833 44.9101 70.7375 45.1491 70.6443 45.4099C70.5511 45.6708 70.5125 45.948 70.5308 46.2245C70.5125 46.5009 70.5511 46.7781 70.6443 47.039C70.7375 47.2999 70.8833 47.5388 71.0726 47.7411C71.2618 47.9433 71.4906 48.1046 71.7448 48.2148C71.9989 48.325 72.273 48.3819 72.55 48.3819C72.827 48.3819 73.1011 48.325 73.3552 48.2148C73.6094 48.1046 73.8382 47.9433 74.0275 47.7411C74.2168 47.5388 74.3625 47.2999 74.4557 47.039C74.5489 46.7781 74.5875 46.5009 74.5692 46.2245ZM51.0339 32.2361C51.0531 31.6785 50.8503 31.1361 50.4702 30.7277C50.09 30.3193 49.5634 30.0783 49.0058 30.0575C48.4483 30.0783 47.9217 30.3193 47.5416 30.7277C47.1614 31.1361 46.9587 31.6785 46.9778 32.2361C46.9587 32.7933 47.1616 33.3353 47.5419 33.743C47.9221 34.1507 48.4487 34.3907 49.0058 34.4103C49.563 34.3907 50.0896 34.1507 50.4699 33.743C50.8502 33.3353 51.0531 32.7933 51.0339 32.2361ZM40.3401 90.0714C40.3937 89.6364 40.3152 89.1952 40.1146 88.8055C39.9141 88.4157 39.6009 88.0954 39.2157 87.8861C38.8306 87.6768 38.3914 87.5883 37.9553 87.6321C37.5191 87.6759 37.1063 87.85 36.7705 88.1317C36.4347 88.4134 36.1914 88.7897 36.0724 89.2115C35.9534 89.6334 35.9642 90.0813 36.1033 90.497C36.2424 90.9126 36.5033 91.2768 36.8523 91.5421C37.2012 91.8074 37.6219 91.9615 38.0596 91.9843C38.335 92.0086 38.6125 91.9784 38.8762 91.8954C39.1399 91.8124 39.3846 91.6783 39.5964 91.5006C39.8082 91.3229 39.9829 91.1052 40.1105 90.86C40.2381 90.6148 40.3162 90.3468 40.3401 90.0714ZM16.5347 76.1849C16.5063 75.7902 16.3632 75.4124 16.1231 75.0978C15.883 74.7833 15.5563 74.5456 15.183 74.4141C14.8098 74.2826 14.4063 74.2628 14.022 74.3574C13.6377 74.4519 13.2894 74.6565 13.0198 74.9462C12.7502 75.2358 12.5709 75.5979 12.5041 75.9879C12.4373 76.378 12.4859 76.779 12.6438 77.1419C12.8016 77.5048 13.062 77.8137 13.3929 78.0307C13.7239 78.2477 14.1109 78.3634 14.5067 78.3635C15.0642 78.3427 15.5908 78.1018 15.9709 77.6934C16.3511 77.285 16.5538 76.7425 16.5347 76.1849Z" fill="#0C7057"/>
<path d="M72.6214 43.6471C73.2297 43.6705 73.8042 43.9411 74.2184 44.3996C74.6327 44.858 74.8528 45.4668 74.8306 46.092C74.8506 46.4028 74.8084 46.7146 74.7065 47.0079C74.6045 47.3013 74.445 47.57 74.2379 47.7974C74.0308 48.0249 73.7805 48.2062 73.5024 48.3301C73.2244 48.4541 72.9245 48.518 72.6214 48.518C72.3183 48.518 72.0185 48.4541 71.7404 48.3301C71.4624 48.2062 71.2121 48.0249 71.005 47.7974C70.7978 47.57 70.6383 47.3013 70.5364 47.0079C70.4344 46.7146 70.3922 46.4028 70.4122 46.092C70.3899 45.4668 70.6102 44.858 71.0244 44.3996C71.4387 43.9411 72.0131 43.6705 72.6214 43.6471Z" fill="#2C9E82"/>
<path d="M69.4768 48.4949C69.8752 49.1762 70.4141 49.7649 71.0576 50.2219C70.3934 51.8647 69.5166 54.278 68.0377 56.4212L67.9358 56.4832L66.8156 54.7208C66.4167 54.0827 65.8618 53.5567 65.2032 53.1926C64.5447 52.8284 63.8042 52.6381 63.0517 52.6396H62.9232C62.3409 52.6568 61.7677 52.7887 61.2364 53.0278C60.7051 53.2669 60.2262 53.6085 59.8272 54.0331C59.4282 54.4576 59.1169 54.9567 58.9111 55.5017C58.7053 56.0468 58.6091 56.6271 58.628 57.2094C58.6458 57.9932 58.8737 58.7578 59.2878 59.4234L62.29 64.2235C60.6915 65.9947 58.4819 67.9608 56.7239 69.5372C53.5888 72.256 49.9667 75.2273 46.9467 78.0745C44.3514 80.4516 42.0461 83.127 40.0788 86.0451C39.1006 85.8099 38.0747 85.8684 37.1296 86.2134C36.1829 86.56 35.358 87.1756 34.7562 87.9846L17.6505 77.8797C17.9986 76.9919 18.0784 76.0214 17.88 75.0886C17.6816 74.1558 17.2138 73.3018 16.5346 72.6324C18.5124 69.6826 20.8343 66.9787 23.4513 64.5777C28.4993 59.8308 34.2292 55.7968 38.8787 50.6603C42.6148 46.5198 45.5837 41.7471 47.6463 36.5657C47.8638 36.5922 48.0826 36.6055 48.3017 36.6055C49.1682 36.6063 50.023 36.4062 50.7991 36.021C51.5762 35.6365 52.2537 35.0772 52.7785 34.387L61.7896 39.6653L65.6864 41.9458L68.9808 43.872C68.7331 44.631 68.6486 45.4338 68.7329 46.2277C68.8165 47.0209 69.0702 47.7867 69.4768 48.4728V48.4949ZM56.7239 62.0316C56.7275 61.6959 56.7112 61.3602 56.6752 61.0264C56.4606 59.0202 55.605 57.1367 54.2353 55.6551C53.0725 54.4152 51.6407 53.4586 50.05 52.8591C48.4594 52.2595 46.7523 52.0329 45.0604 52.1968C39.1976 52.706 34.8757 57.5105 35.4558 62.8773C36.0359 68.2442 41.2123 72.2206 47.0707 71.7335C49.6382 71.5321 52.0535 70.435 53.8944 68.6339C55.6692 66.9037 56.6866 64.5409 56.7239 62.0626V62.0316Z" fill="#2C9E82"/>
<path d="M56.6623 61.031C56.6984 61.3648 56.7147 61.7005 56.711 62.0362C56.694 63.2637 56.4354 64.4758 55.9499 65.6033C55.4644 66.7308 54.7615 67.7516 53.8815 68.6075C52.0404 70.4083 49.6253 71.5053 47.0578 71.7072C41.1995 72.2164 35.9876 68.2621 35.4429 62.851C34.8983 57.4399 39.1936 52.6664 45.0475 52.1704C46.7394 52.0076 48.4461 52.2346 50.0366 52.8341C51.6271 53.4336 53.059 54.3896 54.2225 55.6288C55.5989 57.118 56.4551 59.0137 56.6623 61.031Z" fill="#0C7057"/>
<path d="M49.0062 30.0569C49.563 30.0789 50.0884 30.3203 50.4677 30.7286C50.8469 31.1369 51.049 31.6787 51.0299 32.2356C51.049 32.792 50.8467 33.3333 50.4674 33.7409C50.0881 34.1485 49.5626 34.389 49.0062 34.4098C48.449 34.3901 47.9225 34.1501 47.5422 33.7424C47.1619 33.3347 46.959 32.7928 46.9782 32.2356C46.959 31.6779 47.1618 31.1355 47.542 30.7271C47.9221 30.3187 48.4487 30.0777 49.0062 30.0569Z" fill="#2C9E82"/>
<path d="M46.5313 57.5111L45.8139 58.2329C45.3684 57.8705 44.8326 57.6362 44.2641 57.5554L45.3977 56.4129C45.4629 56.3501 45.5148 56.2748 45.5502 56.1915C45.5857 56.1082 45.6039 56.0186 45.6039 55.928C45.6039 55.8375 45.5857 55.7479 45.5502 55.6646C45.5148 55.5813 45.4629 55.506 45.3977 55.4432C45.2673 55.3128 45.0905 55.2396 44.9061 55.2396C44.7218 55.2396 44.545 55.3128 44.4146 55.4432L40.5666 59.3133L40.5224 59.3532L40.4958 59.3842L38.6581 61.2307C38.5865 61.2922 38.5285 61.3679 38.4877 61.4531C38.4469 61.5382 38.4242 61.6309 38.4211 61.7253C38.418 61.8196 38.4344 61.9136 38.4695 62.0012C38.5046 62.0889 38.5575 62.1683 38.6249 62.2344C38.6922 62.3006 38.7726 62.352 38.8609 62.3855C38.9492 62.4189 39.0434 62.4337 39.1377 62.4288C39.232 62.424 39.3243 62.3996 39.4087 62.3572C39.493 62.3149 39.5677 62.2554 39.6279 62.1827L41.8109 59.9687C42.5504 59.3266 43.5423 58.8661 44.5298 59.4594L40.7438 63.2632C40.6134 63.3959 40.5411 63.5749 40.5428 63.7609C40.5444 63.947 40.6199 64.1247 40.7526 64.2551C40.8853 64.3854 41.0644 64.4577 41.2504 64.4561C41.4364 64.4544 41.6142 64.3789 41.7445 64.2462L45.4818 60.4912C45.8759 61.3458 45.6235 62.3643 44.7379 63.2543L43.7548 64.2418L43.1837 64.8174C43.0568 64.9466 42.9865 65.1209 42.9881 65.3019C42.9898 65.483 43.0633 65.6559 43.1925 65.7827C43.3217 65.9096 43.496 65.9799 43.677 65.9782C43.858 65.9766 44.031 65.9031 44.1578 65.7739L44.7202 65.2071L45.6058 64.3215C46.611 63.3827 47.47 63.3694 48.8782 64.2683C49.9365 64.9237 50.6494 65.3355 51.0922 65.5525C51.5757 65.8532 52.1268 66.0283 52.6952 66.0617C52.9085 66.057 53.1117 65.9697 53.2619 65.8182C53.371 65.7057 53.4458 65.5644 53.4775 65.4109C53.5091 65.2574 53.4962 65.098 53.4404 64.9516C53.3846 64.8051 53.2882 64.6776 53.1624 64.584C53.0367 64.4905 52.8869 64.4347 52.7306 64.4233C51.6838 63.9547 50.678 63.3992 49.7239 62.7628C48.5992 62.0632 47.6383 61.8772 46.8014 62.2314C47.0214 61.7663 47.1278 61.2555 47.1116 60.7412C47.0955 60.2269 46.9573 59.7238 46.7084 59.2735L47.4966 58.4764C47.5618 58.4118 47.6136 58.3349 47.6489 58.2501C47.6842 58.1654 47.7023 58.0745 47.7023 57.9827C47.7023 57.8909 47.6842 57.8 47.6489 57.7152C47.6136 57.6305 47.5618 57.5536 47.4966 57.4889C47.3627 57.3699 47.1887 57.306 47.0096 57.3101C46.8305 57.3142 46.6596 57.386 46.5313 57.5111Z" fill="#DCF5EF"/>
<path d="M38.5991 87.4936C39.07 87.5512 39.514 87.7453 39.8763 88.0521C40.2386 88.359 40.5036 88.7652 40.6387 89.2208C40.7738 89.6764 40.7731 90.1617 40.6367 90.6169C40.5003 91.0722 40.2342 91.4776 39.871 91.7834C39.5078 92.0893 39.0634 92.2822 38.5923 92.3384C38.1212 92.3947 37.644 92.3118 37.2192 92.1001C36.7945 91.8884 36.4407 91.557 36.2013 91.1466C35.9619 90.7362 35.8474 90.2647 35.8718 89.79C35.9312 89.1238 36.2514 88.5083 36.7625 88.078C37.2735 87.6476 37.9338 87.4375 38.5991 87.4936Z" fill="#2C9E82"/>
<path d="M34.8454 41.2384L39.393 44.152C38.2877 45.7307 37.0854 47.2392 35.793 48.6687C35.2838 49.2266 34.7613 49.7757 34.2343 50.3115L34.1502 50.2318L32.9768 49.448L30.5369 47.7919C29.7069 47.2152 29.1338 46.3383 28.9388 45.3466C28.7437 44.3549 28.9421 43.3263 29.4919 42.4782C29.6136 42.2827 29.7513 42.0975 29.9036 41.9247C30.5048 41.2364 31.3352 40.7897 32.2409 40.6676C33.1465 40.5454 34.0657 40.7561 34.8277 41.2605L34.8454 41.2384Z" fill="#FDEECA"/>
<path d="M27.5561 54.2791L27.525 54.2526L26.8476 53.7788C26.759 53.7168 26.6704 53.6592 26.5818 53.6061L26.139 53.3005C25.9846 53.1976 25.8367 53.0852 25.6962 52.964C25.047 52.4062 24.6117 51.6402 24.4647 50.797C24.3177 49.9538 24.4681 49.0856 24.8903 48.3411C25.8999 46.685 28.1406 46.2732 29.8808 47.4156L32.9494 49.4658L34.1229 50.2496L34.2071 50.3293C32.5111 52.0385 30.7089 53.6415 28.8934 55.2002L27.5561 54.2791Z" fill="#FDEECA"/>
<path d="M27.5565 54.2793L28.885 55.2092C27.0562 56.7723 25.1919 58.3089 23.3676 59.8897L23.3321 59.8498L22.8893 59.5266C22.7766 59.4427 22.6686 59.3525 22.5661 59.2565L22.5041 59.1989C21.8613 58.6253 21.4408 57.8438 21.3162 56.9914C21.1915 56.139 21.3706 55.2698 21.8221 54.5361C22.3445 53.7983 23.131 53.2901 24.0182 53.1169C24.9055 52.9437 25.8253 53.119 26.5867 53.6062L27.5565 54.2793Z" fill="#FDEECA"/>
<path d="M18.6557 60.9203C19.1623 60.2013 19.9208 59.6992 20.7806 59.5138C21.6404 59.3284 22.5384 59.4732 23.2963 59.9195C22.2955 60.8052 21.3081 61.6686 20.3427 62.5764C19.711 63.1668 19.0896 63.7764 18.4785 64.4052C18.2048 63.8584 18.0772 63.2501 18.1083 62.6394C18.1393 62.0287 18.3279 61.4365 18.6557 60.9203Z" fill="#FDEECA"/>
<path d="M14.4571 74.205C14.9006 74.1734 15.3433 74.2761 15.7276 74.4999C16.1118 74.7236 16.4198 75.0578 16.6115 75.4592C16.8031 75.8605 16.8695 76.3102 16.8019 76.7498C16.7344 77.1894 16.536 77.5984 16.2328 77.9236C15.9295 78.2488 15.5353 78.4752 15.1016 78.5731C14.6679 78.671 14.2148 78.6361 13.8012 78.4727C13.3877 78.3094 13.033 78.0252 12.7832 77.6573C12.5334 77.2894 12.4001 76.8548 12.4008 76.41C12.3814 75.8449 12.5871 75.2952 12.9727 74.8818C13.3583 74.4683 13.8922 74.2249 14.4571 74.205Z" fill="#2C9E82"/>
<path d="M33.3662 49.9173C33.3293 49.917 33.2935 49.9046 33.2644 49.8819L30.4526 47.9468C29.575 47.345 28.9686 46.4228 28.7641 45.3785C28.5595 44.3343 28.7731 43.2514 29.3588 42.363C29.4891 42.157 29.6372 41.9629 29.8016 41.7829C30.4297 41.0578 31.301 40.5871 32.2518 40.459C33.2025 40.331 34.1672 40.5546 34.9648 41.0877L39.4858 43.997C39.5062 44.0097 39.5239 44.0265 39.5376 44.0463C39.5513 44.0661 39.5608 44.0885 39.5656 44.1121C39.5755 44.1336 39.5806 44.157 39.5806 44.1807C39.5806 44.2044 39.5755 44.2279 39.5656 44.2494C39.5529 44.27 39.5363 44.2881 39.5169 44.3025C39.4975 44.318 39.4747 44.3286 39.4504 44.3335C39.4035 44.3421 39.355 44.3343 39.3131 44.3114L34.7876 41.3977C34.0633 40.9151 33.1882 40.7123 32.3254 40.8272C31.4627 40.942 30.6711 41.3667 30.0983 42.022C29.9547 42.1892 29.8258 42.3685 29.7131 42.5578C29.1762 43.36 28.9743 44.3404 29.1506 45.2894C29.3268 46.2384 29.8672 47.0809 30.6562 47.6369L33.4725 49.5808C33.5042 49.6028 33.5288 49.6336 33.5434 49.6694C33.5565 49.7066 33.5565 49.7472 33.5434 49.7845C33.5335 49.8226 33.5098 49.8558 33.4769 49.8775C33.4454 49.9021 33.4062 49.9146 33.3662 49.9129V49.9173Z" fill="#0057B7"/>
<path d="M26.5778 53.775C26.54 53.7763 26.5027 53.7654 26.4715 53.744L26.0287 53.4384C25.8736 53.3285 25.7256 53.2087 25.5859 53.0798C24.8989 52.4939 24.4387 51.686 24.285 50.7963C24.1313 49.9066 24.2939 48.9912 24.7446 48.2089C24.9882 47.8112 25.31 47.4671 25.6906 47.1977C26.0712 46.9282 26.5026 46.7389 26.9586 46.6413C27.4787 46.535 28.0149 46.535 28.535 46.6413C29.0565 46.7384 29.5525 46.9419 29.9919 47.2391L34.234 50.0731C34.2544 50.0858 34.272 50.1026 34.2857 50.1224C34.2994 50.1422 34.3089 50.1646 34.3137 50.1882C34.323 50.2357 34.3135 50.2849 34.2871 50.3255C34.2735 50.346 34.2558 50.3637 34.2353 50.3774C34.2148 50.391 34.1918 50.4005 34.1675 50.4052C34.1201 50.4145 34.0708 50.405 34.0303 50.3786L29.7882 47.5446C29.3872 47.2743 28.9351 47.089 28.4598 47C27.9863 46.9048 27.4985 46.9048 27.025 47C26.6179 47.0879 26.2329 47.2577 25.8934 47.499C25.5539 47.7403 25.267 48.0481 25.0501 48.4037C24.6482 49.111 24.5057 49.9363 24.6471 50.7374C24.7886 51.5385 25.2052 52.2651 25.825 52.7919C25.9538 52.9082 26.0899 53.0162 26.2324 53.1152L26.6752 53.4207C26.7081 53.4424 26.7318 53.4756 26.7417 53.5137C26.7548 53.551 26.7548 53.5916 26.7417 53.6288C26.7291 53.6657 26.706 53.698 26.6752 53.7218C26.6428 53.7446 26.6042 53.757 26.5645 53.7573L26.5778 53.775Z" fill="#0057B7"/>
<path d="M23.3277 60.0366C23.2839 60.036 23.2417 60.0204 23.2081 59.9924L22.7653 59.678C22.6457 59.5894 22.5351 59.5008 22.4244 59.4034L22.3624 59.3458C21.6841 58.7452 21.2408 57.9235 21.1111 57.0269C20.9814 56.1302 21.1736 55.2166 21.6538 54.4484C22.203 53.6747 23.0276 53.1408 23.9582 52.9563C24.8889 52.7718 25.8548 52.9508 26.6576 53.4565C26.7509 53.5103 26.8411 53.5694 26.9277 53.6336L28.9602 55.0639C28.9799 55.0769 28.9968 55.0938 29.0098 55.1136C29.0227 55.1334 29.0315 55.1557 29.0355 55.179C29.0433 55.2276 29.032 55.2774 29.0039 55.3179C28.9758 55.3583 28.9332 55.3863 28.8849 55.396C28.837 55.4016 28.7885 55.3906 28.7476 55.365L26.7151 53.9347C26.6344 53.8765 26.5501 53.8232 26.4628 53.7753C25.7394 53.3174 24.8682 53.1541 24.0281 53.3188C23.188 53.4835 22.4429 53.9638 21.9461 54.6609C21.5148 55.3572 21.3436 56.1836 21.4627 56.9939C21.5819 57.8042 21.9836 58.5463 22.597 59.089L22.6546 59.1377C22.7527 59.2294 22.8563 59.3151 22.9646 59.3946L23.4074 59.7134C23.4298 59.7313 23.4479 59.754 23.4605 59.7798C23.4761 59.8083 23.4837 59.8404 23.4826 59.8728C23.4785 59.9035 23.4696 59.9334 23.4561 59.9614C23.4382 59.9889 23.4138 60.0117 23.3852 60.0278C23.3561 60.0343 23.3258 60.0343 23.2967 60.0278L23.3277 60.0366Z" fill="#0057B7"/>
<path d="M18.4799 64.5999C18.4448 64.6013 18.4103 64.5903 18.3825 64.5689C18.3525 64.5507 18.328 64.5247 18.3116 64.4937C17.9452 63.7956 17.8185 62.9964 17.9508 62.2192C18.0831 61.442 18.4672 60.7299 19.044 60.1924C19.6207 59.6549 20.3582 59.3218 21.1428 59.2445C21.9274 59.1672 22.7156 59.3499 23.3862 59.7645C23.4073 59.7783 23.4266 59.7946 23.4437 59.8132C23.4584 59.8314 23.469 59.8525 23.4748 59.8752C23.4791 59.9001 23.4791 59.9255 23.4748 59.9505C23.4767 59.9726 23.4767 59.9948 23.4748 60.0169C23.4624 60.039 23.4458 60.0585 23.426 60.0744C23.4078 60.0891 23.3867 60.0996 23.3641 60.1054C23.3409 60.1121 23.3164 60.1121 23.2932 60.1054C23.268 60.1049 23.2434 60.0973 23.2223 60.0833C22.6202 59.7066 21.9107 59.5389 21.2037 59.6064C20.4967 59.6738 19.8316 59.9725 19.3116 60.4562C18.7915 60.94 18.4455 61.5817 18.3272 62.282C18.2088 62.9823 18.3248 63.7021 18.657 64.3298C18.659 64.3519 18.659 64.3742 18.657 64.3962C18.6612 64.4212 18.6612 64.4466 18.657 64.4715C18.6496 64.4931 18.6375 64.5127 18.6216 64.5291C18.6055 64.5476 18.586 64.5626 18.564 64.5734C18.5378 64.5873 18.5093 64.5963 18.4799 64.5999Z" fill="#0057B7"/>
<path d="M73.489 42.1599C73.4575 42.16 73.4267 42.1507 73.4005 42.1333L58.6992 33.4676C58.6784 33.4557 58.6603 33.4398 58.6458 33.4208C58.6314 33.4018 58.6209 33.38 58.6151 33.3569C58.5977 33.3112 58.5977 33.2608 58.6151 33.2152C58.6421 33.1742 58.6829 33.1443 58.7302 33.131C58.7743 33.1135 58.8234 33.1135 58.8674 33.131L73.551 41.7879C73.5851 41.8084 73.6116 41.8395 73.6263 41.8765C73.6418 41.9148 73.6418 41.9577 73.6263 41.9961C73.616 42.0341 73.5943 42.068 73.5643 42.0935C73.5322 42.1176 73.4937 42.1315 73.4536 42.1333L73.489 42.1599Z" fill="#0C7057"/>
<path d="M40.0079 96.0009C39.9751 96.0004 39.9431 95.9912 39.915 95.9743L9.92349 78.3018C9.88832 78.2813 9.86048 78.2503 9.84381 78.2132C9.83274 78.1756 9.83274 78.1357 9.84381 78.0981C11.0571 73.4486 13.8291 68.9364 18.3413 64.3002C18.9302 63.6891 19.5591 63.0736 20.21 62.4625C21.0956 61.6345 22.0565 60.7666 23.1723 59.8057L23.2388 59.7481C24.2661 58.8625 25.3244 57.9769 26.3384 57.0912L28.7473 55.0543C30.2528 53.7658 32.2189 52.0477 34.061 50.1834C34.6234 49.6166 35.1326 49.0808 35.6153 48.545C36.9022 47.1205 38.1 45.618 39.202 44.0461C42.921 38.7271 45.5005 32.6969 46.7785 26.3338C46.7865 26.3057 46.7985 26.2788 46.8139 26.254C46.8344 26.2326 46.8584 26.2146 46.8848 26.2009C46.9124 26.1945 46.9412 26.1945 46.9689 26.2009C46.9983 26.2014 47.0272 26.209 47.053 26.2231L56.9454 32.0548C56.9853 32.081 57.015 32.1201 57.0295 32.1655C57.0392 32.1879 57.0443 32.212 57.0443 32.2364C57.0443 32.2608 57.0392 32.2849 57.0295 32.3072C57.0175 32.3279 57.0015 32.3459 56.9825 32.3603C56.9635 32.3748 56.9418 32.3853 56.9188 32.3914C56.8748 32.4093 56.8255 32.4093 56.7815 32.3914L47.1106 26.6924C45.8082 33.018 43.227 39.0108 39.5253 44.3029C38.418 45.8879 37.2111 47.401 35.912 48.8329C35.4249 49.3731 34.9112 49.9133 34.3488 50.4845C32.4935 52.3576 30.5186 54.0846 29.0086 55.3554C28.2071 56.0374 27.3923 56.7281 26.5997 57.3924C25.5724 58.2558 24.514 59.1636 23.5 60.0492L23.4424 60.0979C22.3266 61.0632 21.3613 61.9311 20.489 62.7548C19.8469 63.357 19.2225 63.9681 18.638 64.5703C14.2099 69.1224 11.4778 73.5372 10.2645 78.076L39.9326 95.558C40.5373 93.0666 41.5247 90.6841 42.8596 88.4952C43.9501 86.6844 45.1977 84.973 46.5881 83.3808C47.0043 82.8981 47.4737 82.3933 47.9165 81.8885C48.4744 81.2952 49.0767 80.6797 49.7143 80.0642C49.9446 79.8383 50.1571 79.6214 50.4139 79.3955L50.4936 79.3202C52.0877 77.828 53.7439 76.4066 55.2981 75.0959C55.3167 75.0812 55.338 75.0704 55.3608 75.0644C55.3837 75.0583 55.4076 75.0569 55.4309 75.0604C55.4771 75.0654 55.5198 75.0875 55.5505 75.1224C55.5663 75.1405 55.5784 75.1616 55.586 75.1844C55.5936 75.2072 55.5966 75.2313 55.5948 75.2553C55.59 75.3028 55.5679 75.3469 55.5328 75.3792C53.9874 76.7077 52.3357 78.1025 50.746 79.5904H50.7239L50.6442 79.6612L49.949 80.3254C49.3202 80.9409 48.718 81.552 48.1777 82.1409C47.7039 82.6457 47.2523 83.1461 46.8493 83.6288C45.4786 85.2041 44.246 86.8945 43.1652 88.6812C41.8072 90.909 40.8146 93.3398 40.2249 95.8813C40.2205 95.9106 40.2083 95.9381 40.1895 95.961C40.1708 95.9834 40.1463 96.0003 40.1186 96.0097C40.1005 96.0158 40.0814 96.0181 40.0624 96.0166C40.0433 96.0151 40.0248 96.0097 40.0079 96.0009Z" fill="#0C7057"/>
<path d="M34.3263 49.7001C34.189 49.6115 34.0429 49.5407 33.91 49.4521C33.5292 49.2042 33.1528 48.9562 32.7853 48.6949C32.229 48.3104 31.6994 47.8888 31.2 47.4329C30.9521 47.1894 30.7041 46.9414 30.4738 46.6802C30.3454 46.5207 30.217 46.3348 30.0532 46.0956C29.823 45.7167 29.6527 45.3044 29.5484 44.8735C29.496 44.5292 29.4723 44.1811 29.4775 43.8329C29.4568 43.2546 29.6111 42.6836 29.9203 42.1945C29.9513 42.1325 30.0089 42.0705 29.9868 41.9908C29.979 41.9635 29.9636 41.9389 29.9425 41.92C29.9196 41.9012 29.892 41.8889 29.8628 41.8845C29.8364 41.8799 29.8094 41.8799 29.7831 41.8845C29.7571 41.8988 29.7344 41.9184 29.7166 41.9421C29.4932 42.2971 29.3288 42.6859 29.2296 43.0934C29.2035 43.2399 29.1857 43.3877 29.1764 43.5362C29.1408 43.5415 29.108 43.5586 29.0834 43.5849C29.0608 43.6124 29.0483 43.6468 29.048 43.6823V43.7133C29.048 43.7532 29.048 43.8329 29.048 43.9967C29.0305 44.2917 29.0305 44.5874 29.048 44.8823V45.024C29.0402 45.1207 29.0554 45.2178 29.0923 45.3074C29.0902 45.3266 29.0902 45.3459 29.0923 45.365C29.0792 45.3785 29.069 45.3944 29.0621 45.4119C29.0553 45.4294 29.052 45.4481 29.0524 45.4669C29.0717 45.5527 29.1046 45.6349 29.1498 45.7104C29.1473 45.7354 29.1473 45.7606 29.1498 45.7857C29.1578 45.8093 29.1715 45.8306 29.1897 45.8477C29.2162 45.9451 29.2473 46.0337 29.2783 46.1266C29.354 46.3593 29.4597 46.5811 29.5926 46.7864C29.6825 46.912 29.7801 47.0318 29.8849 47.1451C29.9558 47.2204 30.0443 47.3355 30.1639 47.3045L30.2524 47.4108C30.3543 47.5215 30.4561 47.6233 30.5668 47.7252C30.616 47.779 30.6765 47.8214 30.7439 47.8492C30.8015 47.8979 30.8546 47.9466 30.9166 47.9909C30.9296 48.0489 30.9645 48.0997 31.014 48.1326C31.1031 48.2126 31.1962 48.288 31.293 48.3584C31.5676 48.5621 31.851 48.7569 32.1432 48.9385C32.1984 48.9868 32.2658 49.019 32.338 49.0315L32.8384 49.3591L33.0953 49.5186L33.2015 49.585L33.2547 49.6071H33.3123C33.4274 49.6824 33.5469 49.7488 33.6665 49.8152L33.7728 49.8684C33.7973 49.8878 33.824 49.9041 33.8525 49.9171C33.8843 49.9457 33.9201 49.9696 33.9587 49.9879C34.0366 50.0328 34.1258 50.0543 34.2156 50.0499C34.2486 50.0416 34.277 50.021 34.2953 49.9924C34.3186 49.9891 34.3411 49.9816 34.3617 49.9702C34.3798 49.9573 34.3949 49.9407 34.406 49.9215C34.5654 49.8507 34.4326 49.7532 34.3263 49.7001Z" fill="#0057B7"/>
<path d="M29.4335 54.4126C29.3095 54.3506 29.1899 54.2753 29.0704 54.2045C28.663 53.9786 28.2556 53.7617 27.8704 53.4916C27.111 53.0493 26.4165 52.5039 25.8069 51.8709C25.526 51.5829 25.2941 51.2508 25.1206 50.8878C24.8696 50.3601 24.7729 49.7722 24.8416 49.1919C24.8467 49.0827 24.863 48.9744 24.8903 48.8686C24.9346 48.7314 24.9745 48.5985 25.0276 48.4612C25.122 48.2729 25.246 48.1009 25.3951 47.952C25.4527 47.89 25.5324 47.828 25.5058 47.7306C25.4968 47.7075 25.4833 47.6864 25.466 47.6686C25.4472 47.6504 25.4245 47.6367 25.3995 47.6288H25.3242C25.2996 47.6351 25.2768 47.6473 25.2578 47.6642C25.0875 47.8391 24.9388 48.0338 24.815 48.2443C24.652 48.5725 24.5614 48.9319 24.5493 49.2982C24.5338 49.5355 24.5338 49.7737 24.5493 50.0111H24.4918C24.4731 50.005 24.4529 50.005 24.4342 50.0111C24.419 50.0228 24.4069 50.038 24.3988 50.0554C24.3963 50.0745 24.3963 50.0938 24.3988 50.1129C24.3988 50.1882 24.4209 50.1661 24.4298 50.2103V50.2546V50.2812C24.4329 50.3924 24.4569 50.5021 24.5006 50.6044C24.5428 50.7367 24.5915 50.8668 24.6467 50.9941C24.7124 51.2227 24.7907 51.4474 24.8814 51.6672C24.8849 51.7146 24.9035 51.7596 24.9346 51.7956C24.9647 51.8334 25.0045 51.8625 25.0497 51.8797C25.121 52.0136 25.1994 52.1437 25.2844 52.2694C25.2935 52.3008 25.3121 52.3286 25.3375 52.3491C25.408 52.4485 25.485 52.5432 25.5678 52.6325C25.623 52.7024 25.6924 52.7597 25.7715 52.8008C25.9894 52.9966 26.217 53.1813 26.4534 53.3543C26.7368 53.5934 27.029 53.8237 27.308 54.0141C27.3644 54.0801 27.4267 54.1408 27.494 54.1956C27.7658 54.414 28.0632 54.5984 28.3796 54.7447L28.7206 54.913C28.8092 54.9617 28.9464 55.0015 29.0084 54.8864C29.0102 54.8717 29.0102 54.8568 29.0084 54.8421L29.0483 54.8156L29.1058 54.7846H29.1634C29.195 54.7615 29.2183 54.7289 29.2298 54.6916C29.2518 54.6875 29.272 54.6767 29.2874 54.6606C29.3201 54.6843 29.3581 54.6995 29.3981 54.7049C29.4258 54.7114 29.4546 54.7114 29.4822 54.7049C29.5071 54.6888 29.5282 54.6677 29.5442 54.6429C29.6505 54.5233 29.5487 54.4702 29.4335 54.4126Z" fill="#0057B7"/>
<path d="M23.8588 59.2766C23.6726 59.1603 23.4977 59.0269 23.3362 58.8781C22.9963 58.5818 22.685 58.2541 22.4064 57.8995C22.2205 57.6334 22.0604 57.3502 21.9281 57.0537C21.8402 56.8337 21.7821 56.6029 21.7554 56.3674C21.7112 56.0531 21.7112 55.7341 21.7554 55.4198V55.3179C21.7911 55.1489 21.8445 54.9842 21.9148 54.8264C22.0269 54.596 22.1604 54.3766 22.3134 54.1711C22.4949 54.0028 22.2514 53.7681 22.1052 53.9629C21.8211 54.31 21.6129 54.7127 21.4941 55.1452C21.4226 55.4663 21.3929 55.7952 21.4056 56.1238V56.1726C21.3895 56.1757 21.3741 56.182 21.3604 56.1911C21.3467 56.2002 21.335 56.212 21.3259 56.2257C21.2506 56.3408 21.2949 56.4914 21.3259 56.6242C21.3569 56.7571 21.3967 57.0006 21.4454 57.1866C21.5199 57.6234 21.6942 58.0371 21.9547 58.3955C22.0457 58.5197 22.148 58.6354 22.2603 58.7408L22.3311 58.8206C22.5663 59.1022 22.8239 59.3643 23.1015 59.6043C23.1267 59.6316 23.1589 59.6515 23.1946 59.6619C23.2303 59.6751 23.2696 59.6751 23.3053 59.6619H23.3318C23.3688 59.6767 23.41 59.6767 23.447 59.6619C23.4796 59.6409 23.5045 59.6098 23.5178 59.5733C23.5398 59.5773 23.5623 59.5773 23.5842 59.5733C23.6066 59.5652 23.6254 59.5496 23.6374 59.529L23.6817 59.56C23.7702 59.6088 23.9119 59.6176 23.9385 59.4449C23.9389 59.4127 23.9279 59.3813 23.9075 59.3564C23.9011 59.3249 23.8838 59.2967 23.8588 59.2766Z" fill="#0057B7"/>
<path d="M19.3376 60.3842C19.3908 60.3266 19.4484 60.2513 19.4129 60.1716C19.4007 60.1506 19.3858 60.1313 19.3687 60.114C19.349 60.1 19.3262 60.0909 19.3022 60.0875C19.2791 60.0808 19.2545 60.0808 19.2314 60.0875C19.209 60.0954 19.1891 60.1091 19.1738 60.1273C18.9937 60.3187 18.8443 60.5368 18.731 60.7738C18.6152 60.9709 18.5302 61.1844 18.4786 61.407C18.4786 61.4868 18.4476 61.5709 18.4343 61.655C18.4175 61.6418 18.3978 61.6327 18.3768 61.6285H18.3148C18.2949 61.629 18.276 61.6369 18.2616 61.6506C18.2438 61.6619 18.2286 61.677 18.2174 61.6949C18.1868 61.7613 18.1775 61.8355 18.1908 61.9074C18.1908 61.8056 18.1908 62.0491 18.1908 62.0845C18.1871 62.3558 18.2169 62.6265 18.2793 62.8905C18.2793 63.0632 18.2793 63.2359 18.3103 63.4085C18.3078 63.4247 18.3078 63.4411 18.3103 63.4573C18.306 63.4747 18.306 63.4929 18.3103 63.5104C18.3369 63.5857 18.3679 63.6609 18.3989 63.7362C18.3968 63.7568 18.3968 63.7776 18.3989 63.7982C18.4032 63.8589 18.4167 63.9186 18.4388 63.9753C18.4388 64.0152 18.4387 64.055 18.4697 64.0993V64.1348C18.4685 64.1579 18.473 64.181 18.4831 64.2019C18.4932 64.2229 18.5084 64.2409 18.5273 64.2543L18.5937 64.2809C18.6169 64.2875 18.6414 64.2875 18.6646 64.2809C18.6882 64.2752 18.7097 64.2629 18.7266 64.2455C18.7409 64.2264 18.7529 64.2055 18.762 64.1835C18.7642 64.1555 18.7642 64.1273 18.762 64.0993C18.7734 64.0846 18.7824 64.0682 18.7886 64.0506L18.8328 64.024C18.8533 64.0367 18.8757 64.0457 18.8993 64.0506C18.9224 64.0573 18.947 64.0573 18.9701 64.0506C18.9912 64.0448 19.0098 64.0324 19.0233 64.0152C19.0377 64.0003 19.0484 63.982 19.0542 63.9621C19.0608 63.9404 19.0608 63.9173 19.0542 63.8956C19.0603 63.8769 19.0603 63.8568 19.0542 63.8381C19.0542 63.8381 19.0232 63.7761 19.0188 63.7584C18.9524 63.6159 18.899 63.4677 18.8594 63.3156C18.6311 62.5912 18.6545 61.8109 18.9258 61.1015C19.0344 60.847 19.1726 60.6062 19.3376 60.3842Z" fill="#0057B7"/>
<path d="M70.1716 60.3261C70.1424 60.3326 70.1122 60.3326 70.0831 60.3261C70.0568 60.3086 70.0342 60.286 70.0166 60.2597L68.1436 57.2043C68.1302 57.1843 68.1211 57.1617 68.117 57.1379C68.1125 57.1145 68.1125 57.0905 68.117 57.0671C68.1219 57.0436 68.1309 57.0211 68.1436 57.0006L68.1967 56.9519C68.2177 56.938 68.2423 56.9303 68.2675 56.9298H68.3384C68.3621 56.9364 68.3845 56.9469 68.4048 56.9608C68.4243 56.9752 68.4408 56.9933 68.4535 57.0139L70.176 59.8213C72.4878 56.2952 74.3166 52.4752 75.6137 48.4633C76.0721 47.0489 76.4593 45.6124 76.7739 44.1592L73.3687 42.1533C73.348 42.1406 73.33 42.124 73.3155 42.1046C73.3 42.0852 73.2894 42.0624 73.2846 42.0381C73.2779 42.015 73.2779 41.9904 73.2846 41.9673C73.2783 41.9456 73.2783 41.9226 73.2846 41.9009C73.296 41.8793 73.3127 41.8609 73.3333 41.8477C73.3514 41.8304 73.3748 41.8196 73.3997 41.8167C73.4229 41.8101 73.4474 41.8101 73.4705 41.8167C73.4941 41.8186 73.5169 41.8262 73.5369 41.8389L77.0573 43.9156C77.0921 43.9332 77.1189 43.9633 77.1325 43.9998C77.1454 44.0356 77.1454 44.0747 77.1325 44.1105C76.8093 45.6027 76.4064 47.1083 75.9326 48.5829C74.5954 52.72 72.6957 56.6535 70.2867 60.273C70.2693 60.2968 70.2467 60.3164 70.2206 60.3302C70.1946 60.344 70.1657 60.3517 70.1362 60.3527L70.1716 60.3261Z" fill="#0C7057"/>
<path d="M68.2994 57.0895L69.4596 58.9847C69.2077 59.1404 68.9253 59.2401 68.6315 59.277C68.334 59.3164 68.0315 59.2892 67.7459 59.1973C66.8603 58.9095 66.2536 58.1744 65.709 57.4261C64.5981 55.9304 63.6593 54.3143 62.9104 52.6083H63.0388C63.7914 52.6068 64.5318 52.7971 65.1904 53.1612C65.8489 53.5254 66.4039 54.0514 66.8027 54.6895L67.9274 56.4873L68.2905 57.0718L68.2994 57.0895Z" fill="#EEB5B5"/>
<path d="M64.9386 88.7599C64.9078 88.7593 64.8775 88.7518 64.8501 88.7378L57.2825 84.6329C56.6677 84.3023 55.9624 84.1796 55.2721 84.2831C54.785 84.354 54.2935 84.4071 53.7931 84.4425C52.4494 84.54 51.0992 84.4999 49.7636 84.323C49.7402 84.3274 49.7161 84.3274 49.6927 84.323L49.6396 84.2743C49.6267 84.255 49.6162 84.2342 49.6086 84.2123C49.6042 84.1874 49.6042 84.1619 49.6086 84.137C49.6067 84.1149 49.6067 84.0927 49.6086 84.0706C49.6213 84.0499 49.6379 84.0319 49.6573 84.0174C49.6767 84.0019 49.6994 83.9913 49.7237 83.9864C49.7469 83.9798 49.7714 83.9798 49.7946 83.9864C51.1069 84.1576 52.4332 84.1962 53.7533 84.1016C54.236 84.0661 54.723 84.013 55.2013 83.9466C55.9706 83.8316 56.7565 83.9683 57.4419 84.3363L65.0095 88.4411C65.0279 88.4499 65.0445 88.4622 65.0582 88.4774C65.0719 88.4926 65.0824 88.5104 65.0892 88.5297C65.1047 88.568 65.1047 88.6109 65.0892 88.6492C65.081 88.6881 65.059 88.7228 65.0272 88.7466C64.9942 88.7722 64.9538 88.7862 64.9121 88.7865L64.9386 88.7599Z" fill="#0057B7"/>
<path d="M85.5775 101.184C85.5432 101.184 85.5095 101.175 85.48 101.157L69.9817 91.5884L64.8673 88.7411C64.8274 88.716 64.7988 88.6763 64.7876 88.6304C64.7701 88.5864 64.7701 88.5373 64.7876 88.4932C64.8124 88.4511 64.8518 88.4196 64.8983 88.4046C64.9424 88.3871 64.9915 88.3871 65.0356 88.4046L70.2031 91.2917L85.6749 100.834C85.7108 100.854 85.7388 100.885 85.7542 100.923C85.7695 100.961 85.7712 101.003 85.759 101.042C85.7454 101.08 85.7226 101.113 85.6926 101.14C85.6602 101.163 85.6216 101.175 85.5819 101.175L85.5775 101.184Z" fill="#0057B7"/>
<path d="M84.3685 69.2993C84.3406 69.3039 84.3122 69.3039 84.2844 69.2993L74.3743 64.2513C72.9016 63.5873 71.6273 62.551 70.6769 61.2446C70.5175 61.0276 70.3669 60.8018 70.2341 60.5671L70.0348 60.2394C70.0168 60.1954 70.0168 60.1462 70.0348 60.1022C70.0482 60.0574 70.078 60.0194 70.1182 59.9956C70.1584 59.9718 70.2061 59.964 70.2517 59.9738C70.2985 59.9828 70.3399 60.0098 70.3669 60.049L70.5617 60.3767C70.699 60.5981 70.8407 60.8195 71.0046 61.0276C71.2085 61.3075 71.4288 61.5752 71.6643 61.8291C72.4813 62.7132 73.4676 63.4239 74.5648 63.9192L75.0474 64.1627L84.4969 68.9495C84.5329 68.9669 84.5612 68.9968 84.5767 69.0336C84.5898 69.0724 84.5898 69.1144 84.5767 69.1532C84.5676 69.1941 84.544 69.2303 84.5102 69.255C84.4793 69.2812 84.44 69.2953 84.3995 69.2949L84.3685 69.2993Z" fill="#0057B7"/>
<path d="M47.7127 83.9476H47.6684C47.323 83.8635 46.9732 83.7705 46.6278 83.6642C46.6042 83.6585 46.5827 83.6462 46.5658 83.6288C46.5452 83.6156 46.5285 83.5973 46.5171 83.5756C46.5125 83.5522 46.5125 83.5282 46.5171 83.5048C46.5126 83.4814 46.5126 83.4574 46.5171 83.4339C46.5244 83.411 46.5365 83.3899 46.5525 83.372C46.567 83.3537 46.5851 83.3386 46.6057 83.3277C46.6289 83.3213 46.6533 83.3213 46.6765 83.3277C46.6997 83.3213 46.7242 83.3213 46.7473 83.3277C47.0883 83.4295 47.4293 83.5225 47.7703 83.6022C47.813 83.615 47.8503 83.6414 47.8765 83.6775C47.9034 83.7146 47.916 83.7602 47.9119 83.8059C47.9067 83.8508 47.8845 83.892 47.8499 83.921C47.8304 83.9353 47.808 83.9451 47.7843 83.9497C47.7606 83.9543 47.7361 83.9536 47.7127 83.9476Z" fill="#0057B7"/>
<path d="M77.9429 90.9762C77.7943 90.9768 77.6461 90.9635 77.5 90.9363C76.9856 90.8401 76.5195 90.5711 76.1786 90.174C75.8378 89.7768 75.6428 89.2752 75.6257 88.7522C75.6087 88.2291 75.7707 87.7159 76.0849 87.2974C76.3992 86.8789 76.8468 86.5802 77.3539 86.4507C77.7773 86.3442 78.222 86.358 78.638 86.4905C79.0521 86.6259 79.4193 86.8761 79.6969 87.2118C79.9745 87.5476 80.1511 87.9552 80.2063 88.3874C80.2615 88.8196 80.193 89.2585 80.0086 89.6532C79.8243 90.048 79.5317 90.3824 79.165 90.6175C78.7987 90.8481 78.3756 90.9722 77.9429 90.9762ZM76.0432 88.3193C75.981 88.6302 75.9993 88.9518 76.0963 89.2536C76.189 89.5574 76.3565 89.833 76.5834 90.0551C76.811 90.2766 77.0891 90.4392 77.3937 90.5289C77.6989 90.6172 78.0209 90.6309 78.3325 90.5688C78.6422 90.502 78.931 90.3606 79.1738 90.157C79.5417 89.8498 79.7823 89.4167 79.8486 88.942C79.9149 88.4673 79.8022 87.9849 79.5325 87.5887C79.3908 87.3791 79.2086 87.1999 78.9967 87.0617C78.731 86.888 78.4266 86.7825 78.1104 86.7546C77.7942 86.7266 77.476 86.777 77.1839 86.9014C76.8919 87.0257 76.635 87.2202 76.436 87.4675C76.237 87.7148 76.1021 88.0074 76.0432 88.3193Z" fill="#0057B7"/>
<path d="M90.7588 72.5027C90.7307 72.5023 90.7033 72.4947 90.679 72.4806L84.276 69.2791C84.2548 69.2672 84.2354 69.2523 84.2185 69.2348C84.2041 69.2157 84.1922 69.1949 84.1831 69.1728C84.1806 69.1493 84.1806 69.1255 84.1831 69.102C84.1786 69.0801 84.1786 69.0575 84.1831 69.0356C84.1912 69.0121 84.2067 68.9919 84.2273 68.978C84.2454 68.9622 84.2665 68.9501 84.2893 68.9425C84.3121 68.9349 84.3362 68.9319 84.3602 68.9337C84.3819 68.9272 84.4049 68.9272 84.4266 68.9337L90.8296 72.1352C90.8671 72.1541 90.8968 72.1854 90.9137 72.2238C90.9269 72.2625 90.9269 72.3046 90.9137 72.3433C90.903 72.3835 90.8797 72.4192 90.8473 72.4452C90.8245 72.4731 90.7936 72.4933 90.7588 72.5027Z" fill="#0057B7"/>
<path d="M82.787 111.403H47.3623C46.7818 111.401 46.2086 111.273 45.6829 111.027C45.1573 110.78 44.6917 110.422 44.3189 109.977C43.9461 109.532 43.6749 109.011 43.5245 108.451C43.374 107.89 43.3479 107.303 43.4479 106.731L47.535 83.7052C47.5391 83.6801 47.5481 83.656 47.5615 83.6344C47.5745 83.6124 47.5927 83.5942 47.6147 83.5812C47.6363 83.5678 47.6604 83.5588 47.6855 83.5547H47.7608C48.4371 83.7184 49.1214 83.847 49.811 83.9399H49.8818C49.9038 83.9528 49.9221 83.9711 49.935 83.993C49.9523 84.0112 49.9632 84.0345 49.966 84.0595C49.9726 84.0826 49.9726 84.1072 49.966 84.1303L46.4235 104.057C46.1357 105.691 46.1977 106.576 46.6449 107.117C47.0922 107.657 47.9734 107.9 49.4922 107.914H81.5294C83.8763 107.914 84.297 107.914 84.6645 105.846C84.6955 105.655 84.7309 105.447 84.7619 105.212L99.6447 22.6507C99.9458 20.9459 99.8838 19.9496 99.441 19.4227C98.9982 18.8957 97.9665 18.7939 96.4078 18.7939H64.5256C62.2495 18.8736 61.6694 19.3562 61.293 21.5039L58.955 33.3136C58.9497 33.3439 58.9376 33.3727 58.9196 33.3977C58.9101 33.4242 58.895 33.4484 58.8753 33.4685C58.8462 33.4752 58.8159 33.4752 58.7868 33.4685C58.7574 33.4644 58.729 33.4555 58.7026 33.442L56.7853 32.3128C56.7527 32.2944 56.7265 32.2666 56.71 32.2331C56.6971 32.1973 56.6971 32.1582 56.71 32.1224L59.2827 18.9931C59.4422 18.0728 59.9241 17.2392 60.6421 16.6418C61.3549 16.0591 62.2499 15.7456 63.1705 15.7562H98.6218C99.2021 15.7522 99.7758 15.8794 100.3 16.1282C100.828 16.372 101.296 16.7305 101.668 17.1776C102.041 17.623 102.311 18.1444 102.461 18.7053C102.612 19.2655 102.638 19.8521 102.536 20.4234L86.7191 108.144C86.5491 109.062 86.0623 109.89 85.3437 110.486C84.6251 111.082 83.7203 111.406 82.787 111.403ZM47.8405 83.9488L43.8198 106.815C43.6824 107.597 43.8061 108.402 44.1719 109.106C44.5376 109.811 45.125 110.375 45.8434 110.712C46.3219 110.935 46.8432 111.051 47.3711 111.053H82.7958C83.6427 111.053 84.4624 110.754 85.1104 110.209C85.7585 109.664 86.1933 108.907 86.3383 108.073L102.155 20.357C102.247 19.8373 102.224 19.304 102.089 18.7939C101.951 18.2852 101.705 17.8123 101.367 17.4079C101.029 17.0031 100.606 16.678 100.127 16.4558C99.6501 16.2344 99.1303 16.1195 98.6041 16.1193H63.1705C62.3234 16.1171 61.5028 16.4152 60.8547 16.9606C60.2041 17.5042 59.7666 18.2601 59.6193 19.095L57.0731 32.0958L58.6539 33.0257L60.9432 21.4773C61.3595 19.1437 62.0635 18.5503 64.5344 18.4618H96.4166C98.0772 18.4618 99.1311 18.5149 99.7288 19.2234C100.247 19.8433 100.331 20.9326 100.012 22.7659V22.8544L85.1471 105.323C85.1161 105.558 85.0807 105.766 85.0497 105.965C84.6069 108.339 83.8541 108.339 81.5515 108.339H49.5099C47.8671 108.339 46.9018 108.033 46.3837 107.404C45.8656 106.776 45.7682 105.797 46.0826 104.048L49.5896 84.3207C48.9963 84.2189 48.4206 84.1126 47.8582 83.9842L47.8405 83.9488Z" fill="#0057B7"/>
<path d="M55.4128 75.3659C55.3753 75.3645 55.3388 75.3539 55.3065 75.3349C55.2758 75.3128 55.2526 75.2819 55.24 75.2463C55.2273 75.2107 55.2258 75.1721 55.2357 75.1356C55.244 75.0991 55.2642 75.0663 55.2932 75.0426L56.4977 74.0286L57.8925 72.8507C59.1412 71.7968 60.08 70.9865 60.9435 70.1939L61.4881 69.7023L61.7715 69.4499L61.8069 69.4145L62.2099 69.0426L62.3295 68.9319L62.3693 68.8964L62.6172 68.6662L63.0601 68.2234L63.0955 68.1924L63.1796 68.1127L63.4321 67.8691C63.618 67.692 63.7996 67.5104 63.9856 67.3245L64.0918 67.2182L64.1317 67.1783C64.1479 67.1612 64.1675 67.1476 64.1892 67.1385C64.2127 67.1343 64.2367 67.1343 64.2601 67.1385C64.2835 67.1338 64.3075 67.1338 64.3309 67.1385C64.3542 67.1471 64.3754 67.1607 64.393 67.1783C64.4105 67.1959 64.4242 67.217 64.4328 67.2403C64.437 67.2623 64.437 67.2848 64.4328 67.3068C64.4375 67.3301 64.4375 67.3542 64.4328 67.3776C64.4221 67.3998 64.4087 67.4207 64.3929 67.4396L64.2468 67.5857L63.6889 68.1304L63.4409 68.3695L63.3479 68.4536L63.3169 68.4846C63.1708 68.6263 63.0247 68.768 62.8741 68.9274C62.7944 69.0071 62.7102 69.0824 62.6261 69.1577L62.5863 69.1975L62.4667 69.3082L62.0637 69.6802L62.0239 69.7156C61.9353 69.8042 61.8379 69.8883 61.7405 69.9725C61.5634 70.1363 61.3774 70.3001 61.1914 70.464C60.3058 71.2345 59.3847 72.0492 58.136 73.1208L56.7412 74.2987L55.5367 75.3127C55.5209 75.3297 55.5016 75.3431 55.4803 75.3523C55.459 75.3614 55.436 75.366 55.4128 75.3659Z" fill="#0C7057"/>
<path d="M65.6954 69.8292C65.6639 69.8292 65.633 69.82 65.6068 69.8026C65.5768 69.79 65.553 69.7662 65.5404 69.7362L59.1329 59.4896C58.7004 58.8022 58.459 58.012 58.4333 57.2003C58.4132 56.5934 58.5133 55.9885 58.7276 55.4204C58.942 54.8523 59.2665 54.3322 59.6825 53.8898C60.0985 53.4475 60.5978 53.0917 61.1517 52.8429C61.7056 52.5941 62.3031 52.4572 62.9101 52.4401H63.043C63.8268 52.4357 64.5987 52.6325 65.2848 53.0116C65.9709 53.3907 66.5483 53.9395 66.9618 54.6054L68.6843 57.3552C68.6987 57.4014 68.6987 57.4508 68.6843 57.4969C68.6777 57.5206 68.6672 57.543 68.6533 57.5634C68.6389 57.5828 68.6208 57.5994 68.6002 57.6121C68.5786 57.6189 68.5554 57.6189 68.5338 57.6121C68.5104 57.6165 68.4863 57.6165 68.4629 57.6121C68.4386 57.6074 68.4157 57.5967 68.3965 57.5811L68.3478 57.5324L66.6253 54.7781C66.2441 54.1669 65.7138 53.6625 65.0843 53.3124C64.453 52.9628 63.7424 52.7814 63.0208 52.7854H62.8968C61.7715 52.8213 60.7065 53.3021 59.9353 54.1223C59.1641 54.9425 58.7497 56.0351 58.7831 57.1604C58.8061 57.9063 59.0245 58.6331 59.4163 59.2682L65.8238 69.5148C65.8407 69.5429 65.8499 69.575 65.8504 69.6078C65.8611 69.6393 65.8611 69.6736 65.8504 69.7052C65.8354 69.7335 65.8122 69.7566 65.7839 69.7716C65.7558 69.7885 65.7237 69.7977 65.6909 69.7982L65.6954 69.8292Z" fill="#0057B7"/>
<path d="M68.3785 59.4786C68.1471 59.4787 67.9171 59.4429 67.6967 59.3724C66.811 59.0712 66.1379 58.3185 65.5711 57.5524C64.4506 56.0401 63.5044 54.4061 62.7505 52.6815C62.7327 52.636 62.7327 52.5854 62.7505 52.5398C62.7588 52.5174 62.7715 52.4969 62.7879 52.4795C62.8043 52.4622 62.8242 52.4483 62.8461 52.4388C62.868 52.4293 62.8916 52.4243 62.9155 52.4242C62.9394 52.424 62.9631 52.4287 62.9852 52.438C63.0085 52.4453 63.0298 52.4579 63.0474 52.4748C63.0651 52.4917 63.0786 52.5124 63.087 52.5354C63.832 54.2263 64.7632 55.8288 65.8634 57.3133C66.3992 58.0306 67.0058 58.7303 67.8162 59.0004C68.0712 59.0853 68.3423 59.1111 68.6088 59.0757C68.8749 59.0437 69.1305 58.953 69.3572 58.81C69.3765 58.7945 69.3993 58.7839 69.4236 58.779C69.4482 58.7722 69.4742 58.7722 69.4989 58.779C69.5238 58.7839 69.5477 58.7929 69.5697 58.8056C69.5906 58.8198 69.6086 58.8378 69.6229 58.8587C69.6363 58.8803 69.6453 58.9044 69.6494 58.9295C69.6539 58.9544 69.6539 58.9799 69.6494 59.0048C69.6409 59.0278 69.6306 59.05 69.6184 59.0712C69.6025 59.091 69.583 59.1075 69.5609 59.12C69.2101 59.352 68.7991 59.4767 68.3785 59.4786Z" fill="#0057B7"/>
<path d="M65.5907 69.5401C65.5625 69.553 65.5327 69.562 65.5021 69.5667C65.5087 69.5436 65.5087 69.519 65.5021 69.4959C65.5208 69.47 65.5316 69.4392 65.5331 69.4073C65.5443 69.3773 65.5443 69.3443 65.5331 69.3143C65.5009 69.2623 65.4503 69.2244 65.3914 69.208L65.2851 69.1593C65.2757 69.0922 65.2447 69.03 65.1966 68.9822C65.1478 68.9158 65.0992 68.8449 65.046 68.7785C65.0859 68.6235 64.891 68.3667 64.7449 68.163C64.7623 68.1367 64.7716 68.1059 64.7715 68.0744C64.7341 67.9104 64.6565 67.7582 64.5456 67.6316V67.6051C64.5502 67.5831 64.5502 67.5605 64.5456 67.5386C64.5482 67.5166 64.5482 67.4943 64.5456 67.4722C64.5345 67.4505 64.5195 67.431 64.5013 67.4147L64.4349 67.3837C64.2888 67.3482 64.1471 67.4501 64.1781 67.5829C64.0807 67.6803 63.9788 67.7645 63.8814 67.8619C63.7372 67.9514 63.6035 68.0569 63.4829 68.1763C63.2438 68.4154 63.0401 68.6855 62.7965 68.9158C62.7729 68.9361 62.7547 68.962 62.7434 68.9911H62.7124L62.6593 69.022C62.5302 69.0903 62.4059 69.1673 62.2873 69.2523C62.2366 69.2836 62.1954 69.328 62.1678 69.3807C62.1267 69.3897 62.0894 69.4114 62.0614 69.4427C62.0381 69.4747 62.0271 69.514 62.0305 69.5534C62.0345 69.5929 62.0535 69.6294 62.0836 69.6553C61.8761 69.7328 61.6747 69.8261 61.4814 69.9342C61.3618 70.0139 61.3441 70.0405 61.2777 70.0804C61.2113 70.1202 61.1803 70.1379 61.1626 70.1911C61.1514 70.221 61.1514 70.2541 61.1626 70.2841C61.165 70.2993 61.1706 70.3139 61.179 70.3268C61.1873 70.3398 61.1984 70.3509 61.2113 70.3593C61.3397 70.4567 61.4592 70.2929 61.5744 70.2442C61.7336 70.1513 61.8976 70.0671 62.0659 69.9918C62.6197 69.7903 63.209 69.7044 63.7973 69.7394C64.1559 69.7394 64.5102 69.8058 64.8689 69.828C65.194 69.8832 65.5275 69.8619 65.843 69.766C65.8579 69.7494 65.8693 69.7301 65.8767 69.7091C65.884 69.6881 65.8871 69.6659 65.8859 69.6437C65.8847 69.6215 65.8791 69.5997 65.8695 69.5797C65.8598 69.5596 65.8463 69.5417 65.8297 69.5268C65.8132 69.512 65.7939 69.5006 65.7729 69.4932C65.7519 69.4859 65.7297 69.4827 65.7075 69.484C65.6853 69.4852 65.6635 69.4908 65.6435 69.5004C65.6234 69.5101 65.6055 69.5236 65.5907 69.5401Z" fill="#0057B7"/>
<path d="M80.0869 88.97C80.0757 88.9434 80.0573 88.9204 80.0337 88.9036C80.0075 88.8977 79.9803 88.8977 79.954 88.9036C79.9968 88.8138 80.0266 88.7184 80.0426 88.6202C80.0906 88.3852 80.0819 88.142 80.0172 87.911C79.9525 87.68 79.8337 87.4677 79.6706 87.2918C79.3116 86.9685 78.8937 86.7174 78.4396 86.5523C78.4266 86.5457 78.4122 86.5422 78.3975 86.5422C78.3829 86.5422 78.3685 86.5457 78.3555 86.5523C78.3424 86.5589 78.3308 86.5682 78.3216 86.5797C78.3125 86.5911 78.3059 86.6045 78.3023 86.6187C78.2938 86.6461 78.2938 86.6754 78.3023 86.7028C78.3164 86.727 78.3383 86.7458 78.3643 86.756C78.5858 86.8501 78.8003 86.9596 79.0064 87.0837C79.0907 87.1362 79.1707 87.1954 79.2455 87.2608C79.2715 87.2882 79.2996 87.3133 79.3296 87.3361V87.3582C79.3606 87.3981 79.405 87.429 79.436 87.4689L79.4714 87.5176C79.467 87.5425 79.467 87.568 79.4714 87.5929C79.5489 87.7333 79.5915 87.8903 79.5953 88.0507C79.5992 88.211 79.5643 88.37 79.4935 88.5139C79.4313 88.6609 79.3376 88.7924 79.2189 88.8992C79.104 89.0317 78.9482 89.122 78.7761 89.156C78.6091 89.1848 78.4384 89.1848 78.2714 89.156C77.9722 89.072 77.6673 89.0098 77.3592 88.97C77.1494 88.9426 76.9361 88.9623 76.7348 89.0276C76.4917 89.0895 76.2784 89.2354 76.1326 89.4394C76.0736 89.5133 76.0368 89.6023 76.0263 89.6962C76.0238 89.7183 76.0238 89.7406 76.0263 89.7627C76.0406 89.7823 76.0587 89.7988 76.0794 89.8114C76.0637 89.8512 76.0637 89.8955 76.0794 89.9353C76.0853 89.9566 76.0959 89.9763 76.1105 89.9929C76.1267 90.0101 76.1463 90.0237 76.168 90.0328C76.1912 90.0392 76.2157 90.0392 76.2388 90.0328C76.2608 90.0368 76.2833 90.0368 76.3053 90.0328C76.3288 90.0791 76.362 90.1199 76.4027 90.1523C76.4434 90.1872 76.4921 90.2115 76.5444 90.2232C76.6159 90.3018 76.7134 90.3521 76.819 90.3649C76.8425 90.41 76.8758 90.4493 76.9164 90.48C76.9145 90.4962 76.9145 90.5125 76.9164 90.5287C76.9739 90.666 77.1953 90.7191 77.4521 90.7324C77.4697 90.7552 77.4948 90.7709 77.523 90.7767C77.6862 90.8092 77.8549 90.8016 78.0145 90.7545L78.1429 90.7191H78.2226C78.2723 90.7161 78.3193 90.6957 78.3555 90.6616C78.6212 90.5907 78.8869 90.511 79.1437 90.418C79.1729 90.4116 79.1992 90.3962 79.2191 90.374C79.239 90.3517 79.2514 90.3237 79.2544 90.294C79.2596 90.2656 79.2565 90.2363 79.2455 90.2096C79.2345 90.1829 79.2161 90.16 79.1924 90.1435L79.2809 90.0948C79.3101 90.1016 79.3404 90.1016 79.3695 90.0948C79.3972 90.0853 79.4216 90.0685 79.4403 90.046C79.6539 89.8538 79.8218 89.6163 79.9319 89.3508C80.0382 89.1914 80.1312 89.0807 80.0869 88.97Z" fill="#0057B7"/>
<path d="M85.6131 101.416C85.6131 101.235 85.5865 100.925 85.3341 100.947C85.2951 100.954 85.2586 100.971 85.2278 100.995C85.2322 100.958 85.2227 100.92 85.2012 100.889C85.1524 100.834 85.0957 100.786 85.0329 100.747C84.9691 100.697 84.9026 100.649 84.8337 100.606C84.3909 100.296 83.9702 100.004 83.5053 99.7201L82.7702 99.2773C82.5798 99.1356 82.3939 98.9984 82.199 98.8611C81.8758 98.6397 81.5392 98.4183 81.1983 98.2367C80.9902 98.0995 80.7655 97.9894 80.5296 97.9091C80.4411 97.9091 80.3348 97.8692 80.2639 97.9312C80.1257 97.7842 79.9778 97.6466 79.8211 97.5194C79.2851 97.0831 78.7117 96.6949 78.1075 96.3592C78.0039 96.3022 77.8974 96.2505 77.7886 96.2042C77.7296 96.1796 77.6666 96.1661 77.6027 96.1644L77.2661 95.9651C77.0403 95.8323 76.8233 95.7039 76.5797 95.5755C76.4479 95.4746 76.2974 95.4009 76.1369 95.3585H76.0927C75.5318 94.9777 74.9606 94.6116 74.379 94.2603L74.2772 94.2028L73.9318 93.9725C73.5904 93.6943 73.2293 93.4412 72.8513 93.2153C72.5425 93.0325 72.2214 92.8712 71.8904 92.7326L71.6956 92.6264C71.6956 92.6264 71.6956 92.5954 71.6956 92.5776C71.6621 92.5368 71.6216 92.5024 71.576 92.4758L71.328 92.3075C71.0446 92.1216 70.7524 91.94 70.4424 91.7629C70.1325 91.5858 69.8358 91.3998 69.5258 91.2271H69.4992C69.469 91.1897 69.4365 91.1542 69.4018 91.1208C68.7029 90.5655 67.9439 90.0902 67.1391 89.7038C67.1206 89.691 67.0996 89.6821 67.0776 89.6775C67.0555 89.6729 67.0328 89.6729 67.0107 89.6772C66.9664 89.6866 66.927 89.7118 66.9 89.7481L66.6697 89.6064L66.5058 89.4957C66.4519 89.4547 66.3922 89.4219 66.3287 89.3983L65.9922 89.1547L65.6291 88.8891C65.5455 88.8141 65.4476 88.7569 65.3413 88.7208C65.3223 88.7164 65.3026 88.7164 65.2837 88.7208L65.1641 88.6455C65.1179 88.6153 65.0671 88.5928 65.0136 88.5791H64.9826L64.9383 88.5392C64.916 88.5088 64.8852 88.4857 64.8498 88.4728C64.8149 88.464 64.7784 88.464 64.7435 88.4728C64.7067 88.4804 64.6737 88.5008 64.6505 88.5304C64.6253 88.557 64.6096 88.5913 64.6062 88.6278L63.9952 88.185C63.1892 87.6138 62.3656 87.0647 61.5243 86.551C60.8689 86.1658 60.1959 85.8115 59.5095 85.4839C58.6919 85.059 57.8455 84.6921 56.9766 84.3857C56.6301 84.2608 56.2767 84.1559 55.9183 84.0713C55.8916 84.0756 55.8669 84.088 55.8475 84.1067C55.8371 84.1171 55.8289 84.1296 55.8236 84.1433C55.8182 84.157 55.8158 84.1717 55.8164 84.1864C55.8167 84.2124 55.8261 84.2375 55.843 84.2573C55.858 84.2778 55.8801 84.292 55.905 84.2971C56.5218 84.471 57.1293 84.6764 57.725 84.9126C58.2342 85.134 59.0268 85.5237 59.629 85.7982C60.2312 86.0728 60.7361 86.3783 61.2719 86.6839C62.0822 87.171 62.8704 87.7023 63.6409 88.2514C64.7612 89.0617 65.7309 89.7747 66.7893 90.6824C67.9937 91.7629 69.2159 92.8256 70.4026 93.9282C71.5893 95.0308 72.6166 96.067 73.7192 97.1651C74.3147 97.762 74.9723 98.2934 75.6808 98.7504C75.9244 98.9098 76.1901 99.0427 76.4469 99.1932L77.8506 99.946C79.3062 100.72 80.698 101.609 82.013 102.603L82.168 102.718L82.2123 102.753C82.4739 102.98 82.7209 103.222 82.9518 103.48C83.2215 103.723 83.4677 103.991 83.6868 104.281C83.9522 104.623 84.192 104.984 84.4042 105.362C84.4928 105.525 84.5857 105.689 84.6654 105.857C84.678 105.905 84.706 105.947 84.7452 105.977C84.7782 106.002 84.819 106.014 84.8603 106.012C84.902 106.011 84.9414 105.993 84.971 105.964C85.0031 105.936 85.0249 105.899 85.0329 105.857C85.0455 105.819 85.0455 105.777 85.0329 105.738C85.0108 105.698 84.9931 105.649 84.971 105.61C85.006 105.581 85.0308 105.542 85.0418 105.499C85.0503 105.456 85.0424 105.412 85.0197 105.375L84.9488 105.26C85.064 105.153 85.0064 105.038 84.9488 104.954C84.9937 104.96 85.0391 104.949 85.0766 104.924C85.1141 104.899 85.141 104.861 85.1525 104.817C85.168 104.652 85.168 104.486 85.1525 104.321V103.874C85.1775 103.856 85.1987 103.833 85.2145 103.807C85.2211 103.78 85.2211 103.751 85.2145 103.723C85.2145 103.595 85.2145 103.471 85.2367 103.342L85.2809 103.311C85.3403 103.232 85.3714 103.136 85.3695 103.037C85.3695 102.931 85.3695 102.82 85.3695 102.709C85.4174 102.652 85.4454 102.58 85.4492 102.505V102.443C85.4492 102.293 85.4935 102.142 85.5156 102.001C85.5297 101.984 85.5389 101.964 85.5422 101.943C85.5446 101.928 85.5446 101.913 85.5422 101.899C85.6706 101.819 85.6086 101.562 85.6131 101.416Z" fill="#0057B7"/>
<path d="M75.3839 18.1765L82.4688 18.1101" stroke="#0057B7" stroke-width="0.835186" stroke-linecap="round" stroke-linejoin="round"/>
<path d="M84.3374 18.573C84.4772 18.573 84.6112 18.5175 84.71 18.4187C84.8088 18.3199 84.8643 18.1858 84.8643 18.0461C84.862 17.9079 84.8055 17.7761 84.7069 17.6792C84.6083 17.5823 84.4756 17.528 84.3374 17.528C84.2684 17.5274 84.2 17.5405 84.1361 17.5665C84.0722 17.5925 84.0141 17.6309 83.9651 17.6795C83.9161 17.728 83.8772 17.7858 83.8506 17.8495C83.8241 17.9132 83.8105 17.9815 83.8105 18.0505C83.8117 18.1895 83.8677 18.3224 83.9664 18.4202C84.0651 18.5181 84.1984 18.573 84.3374 18.573Z" fill="#0057B7"/>
<path d="M75.3839 22.4591L82.4688 22.3927" stroke="#0057B7" stroke-width="0.835186" stroke-linecap="round" stroke-linejoin="round"/>
<path d="M84.3374 22.8407C84.4768 22.8395 84.6102 22.7836 84.7088 22.6851C84.8073 22.5865 84.8632 22.4531 84.8643 22.3137C84.8643 22.174 84.8088 22.0399 84.71 21.9411C84.6112 21.8423 84.4772 21.7868 84.3374 21.7868C84.1976 21.7868 84.0636 21.8423 83.9648 21.9411C83.866 22.0399 83.8105 22.174 83.8105 22.3137C83.8105 22.4535 83.866 22.5875 83.9648 22.6863C84.0636 22.7852 84.1976 22.8407 84.3374 22.8407Z" fill="#0057B7"/>
</g>
<defs>
<clipPath id="clip0_1_3194">
<rect width="109.843" height="95.6688" fill="white" transform="translate(0 15.75)"/>
</clipPath>
</defs>
</svg>
