<svg width="192" height="126" viewBox="0 0 192 126" fill="none" xmlns="http://www.w3.org/2000/svg">
<path fill-rule="evenodd" clip-rule="evenodd" d="M88.0141 48.1491L109.881 114.87H183.772L161.905 48.1491H88.0141Z" fill="#0057B7"/>
<path fill-rule="evenodd" clip-rule="evenodd" d="M64.0072 48.1491L42.1401 114.87H140.038L161.906 48.1491H64.0072Z" fill="#CAE3FF"/>
<path d="M70.7567 64.56L70.6925 61.4924H72.9936L73.0044 62.0083H71.3448L71.3608 62.7706H72.6671L72.6774 63.2632H71.3711L71.3874 64.044H73.1121L73.1229 64.56H70.7567ZM77.0871 61.4924L76.0357 64.56H75.2872L74.1026 61.4924H74.7813L75.4684 63.4445L75.6577 64.0487L75.8172 63.4491L76.427 61.4924H77.0871ZM78.4189 64.56L78.3547 61.4924H80.6559L80.6667 62.0083H79.007L79.023 62.7706H80.3293L80.3396 63.2632H79.0333L79.0497 64.044H80.7744L80.7852 64.56H78.4189ZM83.4524 61.4924C83.7995 61.4924 84.074 61.5761 84.2758 61.7434C84.4777 61.9107 84.5815 62.1354 84.5874 62.4173C84.5937 62.7179 84.4994 62.9487 84.3044 63.1098C84.1094 63.2679 83.8399 63.3469 83.4958 63.3469L83.4315 63.3841H82.7714L82.796 64.56H82.1638L82.0996 61.4924H83.4524ZM83.4074 62.896C83.5871 62.896 83.7196 62.8604 83.8049 62.7891C83.8933 62.7148 83.9358 62.6017 83.9326 62.4499C83.9295 62.298 83.8822 62.1865 83.7908 62.1152C83.7025 62.0409 83.5684 62.0037 83.3887 62.0037H82.7425L82.7612 62.896H83.4074ZM83.7868 63.0308L84.8136 64.56H84.0931L83.2421 63.2167L83.7868 63.0308ZM88.3718 61.4924L87.3242 63.4119L87.3483 64.56H86.7067L86.6827 63.4119L85.5547 61.4924H86.238L86.75 62.408L86.9926 62.8914L87.2195 62.408L87.6931 61.4924H88.3718ZM90.752 61.4924C91.2324 61.4924 91.6071 61.6256 91.8761 61.8921C92.1451 62.1555 92.2847 62.5335 92.295 63.0262C92.3053 63.5157 92.1815 63.8938 91.9236 64.1602C91.6658 64.4267 91.2966 64.56 90.8163 64.56H89.6308L89.5666 61.4924H90.752ZM90.773 64.0487C91.0643 64.0487 91.281 63.9619 91.4231 63.7884C91.5681 63.6118 91.6372 63.3577 91.6302 63.0262C91.6233 62.6946 91.5436 62.4421 91.3912 62.2686C91.2419 62.092 91.0215 62.0037 90.7302 62.0037H90.2188L90.2617 64.0487H90.773ZM96.3255 64.56H95.6607L95.3893 63.8117H94.2132L93.9732 64.56H93.3177L94.3738 61.4924H95.1409L96.3255 64.56ZM94.3474 63.3376H95.2353L94.761 61.999L94.3474 63.3376ZM99.5656 61.4924L98.518 63.4119L98.542 64.56H97.9005L97.8764 63.4119L96.7484 61.4924H97.4318L97.9437 62.408L98.1863 62.8914L98.4133 62.408L98.8869 61.4924H99.5656ZM103.521 61.4924L103.586 64.56H102.944L102.88 61.4924H103.521ZM106.241 61.4459C106.52 61.4459 106.766 61.494 106.979 61.59C107.192 61.6861 107.375 61.8286 107.527 62.0176L107.178 62.4313C107.047 62.2701 106.906 62.1524 106.752 62.078C106.602 62.0006 106.427 61.9618 106.229 61.9618C106.099 61.9618 105.991 61.9789 105.905 62.013C105.822 62.047 105.761 62.092 105.722 62.1477C105.686 62.2035 105.668 62.2655 105.67 62.3337C105.671 62.4173 105.705 62.4886 105.772 62.5475C105.838 62.6032 105.951 62.6497 106.109 62.6869L106.684 62.817C106.989 62.8852 107.208 62.9875 107.341 63.1238C107.477 63.257 107.548 63.4305 107.552 63.6443C107.556 63.8457 107.507 64.0193 107.405 64.1649C107.302 64.3074 107.158 64.4174 106.97 64.4949C106.783 64.5692 106.566 64.6064 106.322 64.6064C106.108 64.6064 105.91 64.5816 105.73 64.5321C105.552 64.4794 105.392 64.4081 105.251 64.3183C105.11 64.2284 104.991 64.1246 104.896 64.0069L105.249 63.5746C105.323 63.6738 105.413 63.7621 105.52 63.8395C105.627 63.917 105.748 63.979 105.882 64.0255C106.019 64.0688 106.162 64.0905 106.311 64.0905C106.438 64.0905 106.545 64.0766 106.631 64.0487C106.72 64.0177 106.786 63.9759 106.828 63.9232C106.873 63.8674 106.895 63.8008 106.894 63.7234C106.892 63.6428 106.863 63.5746 106.806 63.5188C106.752 63.46 106.652 63.415 106.505 63.3841L105.879 63.2446C105.699 63.2012 105.543 63.1455 105.411 63.0773C105.282 63.006 105.183 62.9162 105.112 62.8077C105.045 62.6962 105.01 62.5645 105.007 62.4127C105.003 62.2299 105.049 62.0656 105.145 61.92C105.241 61.7744 105.381 61.6597 105.565 61.5761C105.753 61.4893 105.978 61.4459 106.241 61.4459ZM113.733 64.56H113.068L112.797 63.8117H111.62L111.38 64.56H110.725L111.781 61.4924H112.548L113.733 64.56ZM111.755 63.3376H112.643L112.168 61.999L111.755 63.3376ZM118.302 61.4924C118.538 61.4924 118.74 61.5327 118.909 61.6133C119.078 61.6907 119.209 61.8038 119.302 61.9525C119.398 62.0982 119.448 62.2748 119.453 62.4824C119.457 62.69 119.414 62.8682 119.324 63.0169C119.237 63.1625 119.111 63.2756 118.946 63.3562C118.78 63.4336 118.579 63.4724 118.344 63.4724H117.697L117.72 64.56H117.079L117.014 61.4924H118.302ZM118.235 62.9658C118.428 62.9658 118.571 62.9255 118.665 62.8449C118.76 62.7613 118.805 62.6404 118.802 62.4824C118.798 62.3213 118.748 62.2004 118.65 62.1199C118.552 62.0393 118.407 61.999 118.215 61.999H117.667L117.687 62.9658H118.235ZM123.274 64.56H122.609L122.338 63.8117H121.162L120.922 64.56H120.266L121.322 61.4924H122.089L123.274 64.56ZM121.296 63.3376H122.184L121.709 61.999L121.296 63.3376ZM126.514 61.4924L125.466 63.4119L125.49 64.56H124.849L124.825 63.4119L123.697 61.4924H124.38L124.892 62.408L125.135 62.8914L125.362 62.408L125.835 61.4924L126.514 61.4924ZM131.014 61.4924C131.494 61.4924 131.869 61.6256 132.138 61.8921C132.407 62.1555 132.546 62.5335 132.557 63.0262C132.567 63.5157 132.443 63.8938 132.185 64.1602C131.928 64.4267 131.558 64.56 131.078 64.56H129.893L129.828 61.4924H131.014ZM131.035 64.0487C131.326 64.0487 131.543 63.9619 131.685 63.7884C131.83 63.6118 131.899 63.3577 131.892 63.0262C131.885 62.6946 131.805 62.4421 131.653 62.2686C131.504 62.092 131.283 62.0037 130.992 62.0037H130.481L130.523 64.0487H131.035ZM136.587 64.56H135.922L135.651 63.8117H134.475L134.235 64.56H133.579L134.636 61.4924H135.403L136.587 64.56ZM134.609 63.3376H135.497L135.023 61.999L134.609 63.3376ZM139.827 61.4924L138.78 63.4119L138.804 64.56H138.162L138.138 63.4119L137.01 61.4924H137.694L138.206 62.408L138.448 62.8914L138.675 62.408L139.149 61.4924H139.827Z" fill="#001747"/>
<path fill-rule="evenodd" clip-rule="evenodd" d="M142.768 54.9939C138.934 54.9939 135.814 51.8743 135.814 48.0398C135.814 44.2052 138.934 41.0856 142.768 41.0856C146.603 41.0856 149.723 44.2052 149.723 48.0398H149.111C149.111 44.542 146.266 41.6963 142.768 41.6963C139.271 41.6963 136.425 44.542 136.425 48.0398C136.425 51.5376 139.271 54.3832 142.768 54.3832V54.9939Z" fill="#0057B7"/>
<path fill-rule="evenodd" clip-rule="evenodd" d="M118.085 54.9939C114.251 54.9939 111.131 51.8743 111.131 48.0398C111.131 44.2052 114.251 41.0856 118.085 41.0856C121.92 41.0856 125.04 44.2052 125.04 48.0398H124.429C124.429 44.542 121.583 41.6963 118.085 41.6963C114.588 41.6963 111.742 44.542 111.742 48.0398C111.742 51.5376 114.588 54.3832 118.085 54.3832V54.9939Z" fill="#0057B7"/>
<path fill-rule="evenodd" clip-rule="evenodd" d="M75.3805 54.9941C71.5459 54.9941 68.4263 51.8745 68.4263 48.0399C68.4263 44.2053 71.5459 41.0857 75.3805 41.0857C79.215 41.0857 82.3346 44.2053 82.3346 48.0399H81.7239C81.7239 44.5421 78.8783 41.6964 75.3805 41.6964C71.8827 41.6964 69.037 44.5421 69.037 48.0399C69.037 51.5377 71.8827 54.3833 75.3805 54.3833V54.9941Z" fill="#0057B7"/>
<path fill-rule="evenodd" clip-rule="evenodd" d="M96.537 54.9939C92.7024 54.9939 89.5828 51.8743 89.5828 48.0398C89.5828 44.2052 92.7024 41.0856 96.537 41.0856C100.372 41.0856 103.491 44.2052 103.491 48.0398H102.88C102.88 44.542 100.035 41.6963 96.537 41.6963C93.0392 41.6963 90.1935 44.542 90.1935 48.0398C90.1935 51.5376 93.0392 54.3832 96.537 54.3832V54.9939Z" fill="#0057B7"/>
<path d="M34.3676 48.4199H12.2051V51.34H34.3676V48.4199Z" fill="#004EA5"/>
<mask id="mask0_1_1536" style="mask-type:alpha" maskUnits="userSpaceOnUse" x="0" y="92" width="16" height="23">
<path fill-rule="evenodd" clip-rule="evenodd" d="M0 92.4736H15.1339V114.941H0V92.4736Z" fill="white"/>
</mask>
<g mask="url(#mask0_1_1536)">
<path fill-rule="evenodd" clip-rule="evenodd" d="M15.1339 99.7306C14.1587 100.694 13.0817 101.961 12.3006 103.452C11.6645 104.666 11.2236 106.027 11.1935 107.491C11.1914 107.604 11.1884 107.715 11.1844 107.825C11.0012 113.468 9.24788 114.941 9.24788 114.941L0 99.4225L3.50167 97.3321L11.6383 92.4736C12.4164 93.3754 12.824 95.3814 13.5588 96.6124C14.1959 97.6813 14.7263 98.7412 15.1339 99.7306Z" fill="#081E4C"/>
</g>
<path fill-rule="evenodd" clip-rule="evenodd" d="M10.9896 101.777C11.0252 101.734 11.0886 101.729 11.1313 101.764L12.476 102.883C12.5188 102.918 12.5246 102.982 12.4891 103.025C12.4535 103.067 12.3901 103.073 12.3473 103.038L11.0026 101.919C10.9599 101.883 10.954 101.82 10.9896 101.777Z" fill="black"/>
<path d="M10.1237 102.813C10.1564 102.772 10.2141 102.764 10.2569 102.791L10.2653 102.797L11.8166 104.044C11.86 104.078 11.8669 104.142 11.832 104.185C11.7994 104.226 11.7417 104.234 11.6988 104.207L11.6905 104.201L10.1392 102.954C10.0959 102.92 10.0889 102.856 10.1237 102.813Z" fill="#081E4C"/>
<path d="M9.6591 104.323C9.69047 104.281 9.74789 104.271 9.79155 104.298L9.80008 104.303L11.4005 105.511C11.4449 105.544 11.4537 105.607 11.4202 105.652C11.3888 105.693 11.3314 105.704 11.2877 105.677L11.2792 105.671L9.67879 104.464C9.63446 104.431 9.62563 104.367 9.6591 104.323Z" fill="#081E4C"/>
<path fill-rule="evenodd" clip-rule="evenodd" d="M11.8177 103.992L11.7667 103.837C11.7358 103.74 11.851 103.664 11.9279 103.73L12.0832 103.865L12.1701 103.942C12.3195 104.074 12.4839 104.222 12.6599 104.384L12.7864 104.5C13.2924 104.969 13.7961 105.46 14.2689 105.953C14.6227 106.323 14.9469 106.681 15.2348 107.024C15.8475 107.755 16.2778 108.394 16.4869 108.918C16.7391 109.551 16.6666 110.026 16.2099 110.278C15.8783 110.461 15.5217 110.424 15.1564 110.192C14.4897 109.77 13.793 108.711 13.0866 107.199L13.0367 107.092C12.7083 106.38 12.3999 105.617 12.1204 104.854C12.0471 104.654 11.9797 104.465 11.9187 104.289L11.8598 104.117C11.8447 104.073 11.8307 104.031 11.8177 103.992ZM12.1709 104.212L12.0758 104.127L12.1112 104.23C12.1712 104.403 12.2374 104.589 12.3095 104.785C12.5873 105.543 12.8937 106.301 13.2196 107.007C13.9271 108.542 14.6258 109.618 15.2641 110.022C15.5714 110.217 15.8508 110.246 16.1127 110.101C16.4629 109.908 16.5189 109.542 16.2999 108.993C16.1089 108.514 15.716 107.922 15.1562 107.245L15.0806 107.154C14.7957 106.814 14.4745 106.459 14.1234 106.092C13.6146 105.561 13.0692 105.033 12.5237 104.532C12.3999 104.418 12.2819 104.311 12.1709 104.212Z" fill="#081E4C"/>
<path fill-rule="evenodd" clip-rule="evenodd" d="M11.6404 103.451L11.656 103.388C11.6794 103.295 11.807 103.284 11.8457 103.372L11.9066 103.514C11.9387 103.59 11.9732 103.673 12.0098 103.762L12.0661 103.901C12.2311 104.312 12.3961 104.752 12.5502 105.204C12.7107 105.674 12.8501 106.131 12.9621 106.564C13.1909 107.448 13.2951 108.19 13.2443 108.747C13.1819 109.432 12.88 109.833 12.3135 109.865C11.7393 109.897 11.3717 109.524 11.195 108.832C11.0512 108.27 11.0317 107.503 11.1126 106.581C11.1624 106.011 11.2486 105.405 11.3607 104.786C11.4253 104.43 11.4944 104.092 11.5635 103.782C11.5817 103.701 11.5988 103.626 11.6148 103.558L11.6404 103.451ZM11.7807 103.735L11.7429 103.904C11.6801 104.189 11.6175 104.498 11.5588 104.822C11.4477 105.435 11.3624 106.036 11.3131 106.598C11.1406 108.569 11.4332 109.713 12.3022 109.664C12.7532 109.639 12.9894 109.325 13.0438 108.729C13.0921 108.2 12.9906 107.478 12.7672 106.615C12.6566 106.187 12.5186 105.735 12.3596 105.269C12.2068 104.821 12.043 104.384 11.8793 103.976C11.8602 103.929 11.8416 103.883 11.8234 103.838L11.7807 103.735Z" fill="#081E4C"/>
<path fill-rule="evenodd" clip-rule="evenodd" d="M29.0983 77.0051L29.0938 76.9931L29.0856 76.9699C29.0624 76.907 29.0422 76.8426 29.0264 76.7782C29.0092 76.7123 28.989 76.6472 28.977 76.5805L28.9433 76.4083L29.0624 76.8636L29.0863 76.9571L29.0983 77.0036V77.0051ZM25.7912 76.2414L25.008 61.4045L25.5433 63.4358L27.1172 69.401L28.4012 74.3246L25.7912 76.2414ZM42.8892 74.7476C42.8645 74.5522 42.8345 74.3583 42.7963 74.1659C42.7582 73.9735 42.72 73.7803 42.6713 73.5916C42.6219 73.4022 42.5695 73.2135 42.5133 73.0263L42.4751 72.8998L42.4594 72.8541L42.4272 72.7628L41.9106 71.3095L39.8508 65.4941L37.8083 59.6719L36.787 56.7616L35.7747 53.8483L34.7857 50.9994H12.6464L11.9067 77.2477L11.4784 90.9524L11.2448 97.8048L11.1273 101.231L11.0007 104.658L27.4159 104.456L27.204 101.034L27.0019 97.6116L26.8633 95.2397C29.3244 93.0069 31.7967 90.7892 34.272 88.5745L38.879 84.4684L39.1665 84.2131L39.3432 84.0596L39.5641 83.8604L39.7827 83.6583L39.9923 83.4456C40.5494 82.8781 41.0368 82.2409 41.4494 81.5626C41.8634 80.8865 42.1951 80.1617 42.4429 79.413C42.5695 79.0386 42.6676 78.656 42.7537 78.2712C42.8308 77.8848 42.8959 77.4962 42.9304 77.1039C43.0052 76.32 42.9948 75.5271 42.8892 74.7476Z" fill="#5EA6F5"/>
<path fill-rule="evenodd" clip-rule="evenodd" d="M26.9787 104.39C26.9787 102.958 23.2814 101.808 18.7649 101.808C14.2485 101.808 10.5763 102.969 10.5763 104.4C10.5763 105.832 14.2485 106.992 18.7649 106.992C23.2814 106.992 26.9787 105.821 26.9787 104.39Z" fill="#081E4C"/>
<path fill-rule="evenodd" clip-rule="evenodd" d="M32.7454 114.9H14.8033V102.131C15.9769 101.925 17.3267 101.808 18.7609 101.808C20.005 101.808 21.1866 101.896 22.2454 102.052C22.5726 103.384 23.1101 104.958 23.9898 106.392C24.7064 107.561 25.6496 108.637 26.8915 109.413C27.2257 109.621 27.5408 109.826 27.8387 110.029C32.0187 112.853 32.7454 114.9 32.7454 114.9Z" fill="#081E4C"/>
<path d="M24.0803 106.357C24.1329 106.339 24.1901 106.367 24.2083 106.419C24.2253 106.469 24.2018 106.522 24.1555 106.543L24.146 106.547L22.4923 107.118C22.4398 107.136 22.3824 107.108 22.3643 107.055C22.3473 107.006 22.3708 106.953 22.4171 106.931L22.4267 106.927L24.0803 106.357Z" fill="#081E4C"/>
<path d="M24.8683 107.518C24.9205 107.499 24.9782 107.526 24.9973 107.578C25.0152 107.627 24.9925 107.681 24.9466 107.703L24.9371 107.707L23.0675 108.388C23.0152 108.407 22.9575 108.38 22.9385 108.328C22.9207 108.279 22.9432 108.225 22.9891 108.203L22.9986 108.199L24.8683 107.518Z" fill="#081E4C"/>
<path d="M25.9062 108.633C25.9577 108.613 26.0163 108.638 26.037 108.69C26.0563 108.738 26.0353 108.792 25.9901 108.816L25.9807 108.82L24.1187 109.563C24.0671 109.584 24.0085 109.559 23.9879 109.507C23.9686 109.459 23.9895 109.404 24.0348 109.381L24.0441 109.376L25.9062 108.633Z" fill="#081E4C"/>
<path fill-rule="evenodd" clip-rule="evenodd" d="M28.2489 104.29C29.2277 103.858 30.0567 103.583 30.6919 103.504C31.4692 103.408 31.9602 103.61 32.0705 104.164C32.1852 104.739 31.7882 105.196 30.9846 105.546C30.3574 105.819 29.4888 106.025 28.4366 106.175L28.3013 106.194C27.4884 106.304 26.6181 106.375 25.748 106.416C25.4942 106.427 25.2555 106.436 25.0361 106.441L24.9068 106.444C24.8561 106.445 24.8085 106.446 24.7643 106.447L24.6709 106.448L24.5868 106.449C24.4854 106.449 24.4475 106.316 24.5336 106.262L24.6772 106.175L24.8639 106.063C24.9408 106.017 25.0219 105.969 25.1069 105.92L25.264 105.828C25.8268 105.503 26.4209 105.178 27.0195 104.875C27.4438 104.66 27.8553 104.463 28.2489 104.29ZM28.2742 105.994C30.6769 105.668 32.0464 105.072 31.8731 104.203L31.8689 104.183C31.7762 103.773 31.3917 103.62 30.7167 103.704C30.1297 103.777 29.3572 104.028 28.445 104.424L28.3302 104.474C27.9401 104.646 27.5318 104.841 27.1106 105.055C26.5156 105.356 25.9245 105.68 25.3647 106.003L25.3117 106.033C25.2416 106.074 25.174 106.114 25.1089 106.152L24.9571 106.242L25.0384 106.24C25.2325 106.235 25.4419 106.228 25.6634 106.218L25.7386 106.214C26.6033 106.174 27.4679 106.103 28.2742 105.994Z" fill="#081E4C"/>
<path fill-rule="evenodd" clip-rule="evenodd" d="M24.7813 106.179L24.896 106.171C25.7055 106.116 26.5348 106.094 27.3097 106.124C28.2787 106.161 29.0713 106.278 29.6294 106.492C30.3223 106.758 30.6462 107.178 30.4986 107.752C30.3634 108.278 29.9371 108.52 29.288 108.51C28.7542 108.501 28.0723 108.325 27.2745 108.012C26.8791 107.857 26.4632 107.671 26.0344 107.461C25.5676 107.233 25.1101 106.989 24.6809 106.744C24.5305 106.659 24.3945 106.579 24.275 106.508L24.1844 106.454L24.1262 106.418C24.0448 106.368 24.0733 106.243 24.1685 106.232L24.2643 106.223L24.4139 106.209C24.5271 106.199 24.65 106.189 24.7813 106.179ZM29.5573 106.68C29.0242 106.476 28.2507 106.362 27.3019 106.325C26.5351 106.295 25.7126 106.317 24.9098 106.372C24.8133 106.379 24.721 106.386 24.6332 106.393L24.4943 106.404L24.5903 106.46C24.6356 106.487 24.6826 106.514 24.7312 106.541L24.7804 106.569C25.2063 106.812 25.6602 107.054 26.1228 107.281C26.547 107.488 26.958 107.671 27.348 107.824C29.0291 108.484 30.0984 108.501 30.3036 107.702C30.4211 107.245 30.1655 106.914 29.5573 106.68Z" fill="#081E4C"/>
<path d="M24.6333 50.7417C24.6856 50.7396 24.7301 50.7779 24.7369 50.8287L24.7378 50.8384L24.9092 55.3162C24.9454 56.1688 24.2637 56.8803 23.41 56.8803C23.3544 56.8803 23.3093 56.8353 23.3093 56.7797C23.3093 56.7241 23.3544 56.679 23.41 56.679C24.1409 56.679 24.7264 56.0764 24.7089 55.3486L24.708 55.3243L24.5366 50.8461C24.5345 50.7905 24.5778 50.7438 24.6333 50.7417Z" fill="#081E4C"/>
<path d="M30.497 50.7492C30.5484 50.728 30.6072 50.7525 30.6284 50.8039C30.9217 51.5152 31.3714 52.1433 32.0088 52.6248C32.8154 53.2341 33.8756 53.5711 35.2254 53.5711C35.281 53.5711 35.3261 53.6162 35.3261 53.6717C35.3261 53.7274 35.281 53.7724 35.2254 53.7724C33.8329 53.7724 32.7299 53.4218 31.8875 52.7855C31.2191 52.2806 30.7484 51.6233 30.4423 50.8807C30.4211 50.8292 30.4456 50.7704 30.497 50.7492Z" fill="#081E4C"/>
<path d="M16.854 50.8049C16.8746 50.7532 16.9333 50.7282 16.9849 50.7488C17.0365 50.7695 17.0616 50.8281 17.0409 50.8797C16.7425 51.6251 16.2796 52.2831 15.6183 52.788C14.7865 53.4229 13.6927 53.7724 12.3075 53.7724C12.252 53.7724 12.2069 53.7273 12.2069 53.6717C12.2069 53.6162 12.252 53.5711 12.3075 53.5711C13.6496 53.5711 14.7004 53.2354 15.4961 52.6279C16.1262 52.1468 16.5683 51.5185 16.854 50.8049Z" fill="#081E4C"/>
<path d="M26.0025 61.2335C26.0581 61.2335 26.1032 61.2785 26.1032 61.3342C26.1032 61.3865 26.0633 61.4295 26.0122 61.4343L26.0025 61.4348H23.8086C23.7531 61.4348 23.708 61.3897 23.708 61.3342C23.708 61.2818 23.7479 61.2388 23.799 61.2339L23.8086 61.2335H26.0025Z" fill="#081E4C"/>
<path d="M25.2153 61.2383C25.2649 61.2224 25.3178 61.247 25.3382 61.2938L25.3418 61.3035L29.5933 74.5783C29.605 74.6149 29.5948 74.6548 29.5676 74.6812L29.5598 74.688L25.6749 77.7527C25.6312 77.7871 25.5679 77.7796 25.5334 77.736C25.5012 77.6951 25.5057 77.6369 25.5423 77.6014L25.5501 77.5946L29.3803 74.5732L25.1501 61.3649C25.1342 61.3152 25.1588 61.2623 25.2056 61.2419L25.2153 61.2383Z" fill="#081E4C"/>
<path d="M13.3382 53.5748C13.3905 53.5761 13.4325 53.6172 13.436 53.6683L13.4362 53.678L12.1681 103.695C12.1667 103.75 12.1205 103.794 12.0649 103.793C12.0126 103.792 11.9707 103.751 11.9671 103.699L11.9669 103.69L13.235 53.6729C13.2364 53.6173 13.2826 53.5734 13.3382 53.5748Z" fill="#081E4C"/>
<path fill-rule="evenodd" clip-rule="evenodd" d="M25.3593 76.0805L26.4154 95.064L26.7995 75.0387L25.3593 76.0805Z" fill="#081E4C"/>
<path d="M18.3133 99.7504C20.9562 99.6994 23.7836 100.141 26.7755 101.173C26.828 101.191 26.856 101.248 26.8379 101.301C26.8197 101.354 26.7624 101.381 26.7098 101.363C23.7404 100.339 20.9365 99.9011 18.3172 99.9517C16.2671 99.9913 14.4403 100.326 12.8565 100.859C12.2651 101.058 11.7498 101.271 11.3137 101.484L11.2327 101.524C11.1143 101.583 11.0099 101.638 10.9198 101.689L10.8566 101.725L10.798 101.76C10.7942 101.762 10.7914 101.764 10.7893 101.765C10.7423 101.795 10.6802 101.78 10.6505 101.733C10.6209 101.686 10.635 101.624 10.682 101.595L10.7181 101.573L10.7555 101.551C10.7688 101.543 10.783 101.535 10.7981 101.526L10.8214 101.513C10.9348 101.45 11.0696 101.379 11.2253 101.303C11.6692 101.086 12.1925 100.87 12.7923 100.668C14.395 100.129 16.242 99.7904 18.3133 99.7504Z" fill="#081E4C"/>
<path fill-rule="evenodd" clip-rule="evenodd" d="M47.4748 24.926C47.4748 24.926 54.3712 21.2524 54.8983 22.4452C55.3678 23.5097 49.6454 26.3998 49.6454 26.3998L47.4748 24.926Z" fill="#EEB5B5"/>
<path fill-rule="evenodd" clip-rule="evenodd" d="M11.103 50.8406L11.4369 34.6357C11.8092 31.5619 14.4731 29.2849 17.5674 29.3959L28.0151 29.6957C30.6772 29.7911 32.9527 31.6414 33.5892 34.2281L36.8193 50.8406H11.103Z" fill="#0054B0"/>
<path fill-rule="evenodd" clip-rule="evenodd" d="M21.1981 36.8173C20.3417 36.6394 19.4878 36.4501 18.6333 36.2633L16.0736 35.6868L13.5177 35.0935L12.8793 34.9429L12.7197 34.9052L12.6432 34.8872C12.6872 34.8981 12.7319 34.9072 12.7768 34.9141C12.9563 34.9416 13.1434 34.954 13.328 34.9404C14.0718 34.8977 14.7623 34.5088 15.1923 33.8968C15.2462 33.8209 15.2935 33.7411 15.3393 33.6611C15.3818 33.5787 15.4233 33.4981 15.4568 33.4135L15.4689 33.3817C15.4722 33.3727 15.4792 33.3533 15.4744 33.3659L15.4613 33.3988L15.435 33.4647L15.3823 33.5963C15.313 33.7734 15.2434 33.9516 15.1767 34.1336C15.0409 34.4949 14.9136 34.8667 14.7887 35.2397C14.5406 35.9877 14.3147 36.7531 14.1106 37.5278C13.9064 38.3027 13.7236 39.0871 13.5585 39.8773C13.3947 40.6681 13.2554 41.4662 13.1281 42.2673C12.8871 43.8721 12.7145 45.4931 12.6165 47.1229C12.5236 48.753 12.505 50.3913 12.5602 52.0306C12.6171 53.6698 12.7406 55.3103 12.9344 56.9464C13.1285 58.5823 13.393 60.2136 13.7223 61.8354L13.7263 61.8554C14.1079 63.7359 12.8929 65.5698 11.0124 65.9514C9.17364 66.3246 7.37804 65.1648 6.9425 63.3554C6.08393 59.7695 5.497 56.0992 5.26557 52.3888C5.14831 50.534 5.11402 48.6704 5.16538 46.8051C5.21974 44.9398 5.36477 43.0731 5.601 41.2123C5.72461 40.2822 5.86365 39.3531 6.03167 38.4263C6.20118 37.4996 6.39248 36.5748 6.61141 35.6524C6.83026 34.7299 7.07652 33.8101 7.35625 32.8904C7.49738 32.4303 7.64249 31.9708 7.80257 31.509C7.88073 31.2784 7.96414 31.0469 8.04867 30.8146L8.11344 30.64L8.14578 30.5528L8.16203 30.5091L8.21227 30.3863C8.28991 30.2016 8.37377 30.0202 8.47328 29.8441C8.56912 29.6667 8.67806 29.4966 8.79478 29.3311C9.26034 28.6681 9.88059 28.1221 10.5811 27.7316C11.2819 27.3407 12.0739 27.1124 12.8807 27.0629C13.2835 27.0408 13.6905 27.0599 14.0852 27.1271C14.1839 27.1437 14.2824 27.1624 14.3802 27.183L14.4637 27.201L14.624 27.2357L15.265 27.3748L17.8273 27.9401L20.3857 28.5221C21.2373 28.7217 22.0895 28.9186 22.9391 29.1268C25.0542 29.6451 26.3487 31.78 25.8304 33.8952C25.3238 35.9625 23.2655 37.2443 21.1981 36.8173Z" fill="#EEB5B5"/>
<path fill-rule="evenodd" clip-rule="evenodd" d="M22.7479 29.2974C23.6562 28.9801 24.5657 28.6668 25.4774 28.3601L26.8443 27.8982L28.2136 27.4438C29.127 27.1425 30.0385 26.8354 30.9541 26.5411L31.1257 26.4854L31.1685 26.4715L31.2524 26.4455C31.3602 26.4134 31.469 26.3836 31.5781 26.3563C31.7953 26.3003 32.0224 26.2655 32.2465 26.2349C32.473 26.213 32.7009 26.194 32.9287 26.1989C33.3853 26.1995 33.8386 26.2641 34.2787 26.3746C34.7165 26.4914 35.1424 26.6536 35.539 26.8727C36.3359 27.301 37.0266 27.9396 37.5293 28.7033C37.6538 28.8937 37.7669 29.0931 37.8678 29.2955C37.9166 29.3972 37.9634 29.5001 38.0076 29.604L38.0629 29.7374L38.0791 29.7782L38.2087 30.1047C38.8989 31.8482 39.6068 33.5899 40.3504 35.2957C41.0824 37.0036 41.8452 38.693 42.6527 40.2667C42.8557 40.6584 43.0553 41.0438 43.2591 41.4122C43.462 41.7805 43.6674 42.1351 43.8672 42.4521C43.9671 42.6123 44.0652 42.7604 44.1575 42.8938C44.2503 43.0291 44.3372 43.1443 44.4048 43.2292C44.4698 43.3127 44.524 43.3678 44.4916 43.3421C44.4865 43.338 44.4813 43.3344 44.4757 43.3311C44.4698 43.3275 44.4534 43.3124 44.4419 43.3046L44.3994 43.2756C44.3768 43.2587 44.3535 43.2429 44.3295 43.2282L44.2929 43.2069L44.2363 43.172C44.1979 43.1494 44.1589 43.1291 44.1182 43.11C44.0608 43.0794 44.0015 43.0516 43.9411 43.0272L43.8418 42.9887C43.7996 42.9721 43.7567 42.9566 43.7134 42.9426C43.6225 42.9131 43.5526 42.8964 43.4233 42.8645C43.3646 42.8511 43.3055 42.8398 43.2461 42.8307L43.1569 42.8185L43.0738 42.8088C42.9749 42.7964 42.8744 42.7902 42.7742 42.7906C42.6739 42.7921 42.5748 42.7974 42.4745 42.804C42.3744 42.8122 42.2746 42.827 42.1768 42.848C42.0798 42.8687 41.9962 42.8847 41.9069 42.9117C41.8631 42.9246 41.8196 42.9387 41.7768 42.9542L41.6577 42.9986C41.5867 43.0249 41.5168 43.0552 41.4491 43.0894C41.4152 43.1064 41.3819 43.1243 41.3493 43.1432C41.3232 43.1562 41.2975 43.17 41.2722 43.1844C41.2214 43.2132 41.1721 43.2447 41.1247 43.2784L41.0115 43.3594C40.9782 43.3846 40.9462 43.4113 40.9155 43.4395L40.8483 43.499C40.8283 43.5177 40.8092 43.5373 40.791 43.5579C40.7807 43.5701 40.7757 43.5746 40.7702 43.5799L40.7539 43.597C40.7433 43.6087 40.7333 43.6209 40.7239 43.6336C40.6655 43.7074 40.6925 43.6904 40.7295 43.6353C40.7401 43.6175 40.7513 43.5999 40.763 43.5826C40.7749 43.5651 40.789 43.5361 40.8023 43.5136C40.8293 43.471 40.8599 43.4034 40.8905 43.3476C41.0141 43.0931 41.1524 42.762 41.2832 42.4048C41.4146 42.046 41.5392 41.6565 41.6624 41.2545C41.9048 40.4475 42.1281 39.5882 42.3371 38.7129C42.548 37.8369 42.7421 36.9413 42.9357 36.0384C43.1288 35.1352 43.3062 34.2219 43.49 33.3067L44.0249 30.5788L44.0389 30.5071C44.3752 28.7928 46.0374 27.6756 47.7517 28.0118C49.2554 28.3067 50.2991 29.6233 50.306 31.0989L50.3081 31.4912L50.3069 31.8687C50.3065 32.1194 50.3013 32.3687 50.2951 32.6178C50.2841 33.116 50.2688 33.6133 50.2425 34.1102C50.1985 35.1048 50.1234 36.0986 50.0325 37.0979C49.9418 38.0974 49.8209 39.0997 49.6715 40.1131C49.5193 41.127 49.3384 42.1493 49.0936 43.2034C48.9726 43.7315 48.8318 44.2668 48.6636 44.8219C48.4941 45.3783 48.3003 45.9512 48.0303 46.5744C47.9572 46.7356 47.8918 46.8885 47.8061 47.0585C47.7641 47.1427 47.7264 47.2223 47.6797 47.3098L47.5375 47.572C47.3316 47.9316 47.0935 48.3177 46.7241 48.7588L46.5738 48.9296L46.4973 49.0139C46.4718 49.0417 46.4471 49.0688 46.4142 49.1011C46.3524 49.1629 46.2897 49.2239 46.2261 49.284L46.1301 49.3735C46.0975 49.4031 46.0677 49.4311 46.026 49.4652C45.948 49.5303 45.8685 49.5942 45.788 49.6563L45.6662 49.7485L45.603 49.7943L45.5294 49.8438C45.4308 49.909 45.3303 49.972 45.2285 50.0324L45.0746 50.1208C45.0145 50.152 44.9537 50.1823 44.8925 50.2118C44.77 50.2706 44.6453 50.3257 44.5196 50.3766C44.4598 50.4019 44.3879 50.4271 44.3156 50.4509C44.2439 50.4746 44.1716 50.4972 44.0989 50.5183C43.9514 50.56 43.8113 50.5989 43.6547 50.6275C43.4973 50.6559 43.3378 50.6781 43.1781 50.6938C43.0183 50.7112 42.8592 50.7169 42.6988 50.7139C42.5386 50.7119 42.378 50.7035 42.2189 50.6887C42.181 50.6857 42.1364 50.6799 42.0913 50.6734L41.9578 50.6527C41.8689 50.6379 41.7802 50.6209 41.6921 50.6018C41.5028 50.562 41.3771 50.5217 41.2288 50.4746C41.157 50.4511 41.0856 50.4263 41.0148 50.4003L40.9626 50.3807L40.9192 50.363L40.8327 50.3265C40.7174 50.2772 40.6035 50.2246 40.4913 50.169C40.3984 50.1203 40.3072 50.07 40.2166 50.0178L40.0817 49.9381L39.9705 49.8662C39.8967 49.8178 39.8237 49.7681 39.7514 49.7176C39.6828 49.6689 39.6276 49.626 39.5657 49.5789C39.5073 49.5336 39.4419 49.4835 39.3906 49.4406L39.2387 49.3112C38.8456 48.9671 38.5721 48.6685 38.3259 48.3858C38.0826 48.1038 37.8749 47.8385 37.6867 47.5835C37.4973 47.3273 37.3233 47.0787 37.1612 46.8357C36.8342 46.3479 36.545 45.8771 36.2703 45.4107C35.9967 44.9444 35.7363 44.485 35.4925 44.0249C34.517 42.1894 33.671 40.3814 32.861 38.5653C32.0664 36.745 31.3115 34.928 30.5956 33.0908L30.4626 32.7454L30.446 32.7022C30.4456 32.7013 30.4409 32.6888 30.4441 32.6974L30.451 32.716L30.4654 32.7529C30.4852 32.8018 30.5074 32.8499 30.5317 32.8967C30.5778 32.9924 30.6322 33.0863 30.6918 33.1759C30.9278 33.5405 31.2606 33.8366 31.6316 34.0399C32.005 34.2407 32.4282 34.3521 32.8605 34.3545C32.9681 34.3518 33.0763 34.3522 33.1828 34.335C33.289 34.327 33.3951 34.3015 33.4968 34.2794C33.548 34.2676 33.5986 34.2533 33.6483 34.2367C33.6902 34.2226 33.6572 34.2332 33.6459 34.2367L33.6029 34.2502L33.4308 34.3041C32.5139 34.5944 31.5929 34.8719 30.6738 35.1553L29.2943 35.5779L27.9125 35.9928C26.9917 36.2708 26.0687 36.5421 25.1445 36.8095C23.052 37.4148 20.8651 36.2091 20.2598 34.1167C19.6757 32.0971 20.789 29.9859 22.7479 29.2974Z" fill="#EEB5B5"/>
<path fill-rule="evenodd" clip-rule="evenodd" d="M51.4708 21.4182L51.4213 23.0981L51.3854 24.325L51.3659 24.9833L51.1817 31.2559C51.1743 31.5226 50.9505 31.7299 50.6848 31.7189L45.767 31.5035C45.5063 31.4914 45.303 31.273 45.311 31.0123L45.3302 30.3661L45.3503 29.6666L45.3765 28.7728L45.4178 27.3899L45.6 21.1746C45.607 20.9089 45.8315 20.7005 46.0972 20.7126L51.015 20.928C51.0926 20.9311 51.166 20.9532 51.2297 20.9904C51.3787 21.074 51.4767 21.236 51.4708 21.4182Z" fill="#081E4C"/>
<path fill-rule="evenodd" clip-rule="evenodd" d="M50.9776 22.0354L50.9343 23.4747L50.9031 24.5064L50.886 25.06V25.0609L50.735 30.0643C50.729 30.2878 50.5407 30.4619 50.3173 30.4529L46.1866 30.2717C45.9671 30.2616 45.7971 30.0784 45.8031 29.859L45.8142 29.5007L45.8323 28.9049L45.8544 28.155L45.8876 27.068L46.0457 21.8311C46.0527 21.6076 46.2409 21.4325 46.4644 21.4425L50.5951 21.6237C50.6796 21.6278 50.7561 21.657 50.8185 21.7053C50.9192 21.7797 50.9816 21.9005 50.9776 22.0354Z" fill="#004EA5"/>
<path fill-rule="evenodd" clip-rule="evenodd" d="M48.5633 21.2026C48.5633 21.2635 48.5139 21.3129 48.453 21.3129C48.3921 21.3129 48.3428 21.2635 48.3428 21.2026C48.3428 21.1418 48.3921 21.0923 48.453 21.0923C48.5139 21.0923 48.5633 21.1418 48.5633 21.2026Z" fill="white"/>
<path fill-rule="evenodd" clip-rule="evenodd" d="M48.306 30.6028C48.1362 30.6028 47.9981 30.741 47.9981 30.9108C47.9981 31.0805 48.1362 31.2187 48.306 31.2187C48.4757 31.2187 48.6139 31.0805 48.6139 30.9108C48.6139 30.741 48.4757 30.6028 48.306 30.6028ZM48.3059 31.3193C48.0806 31.3193 47.8974 31.136 47.8974 30.9108C47.8974 30.6855 48.0806 30.5022 48.3059 30.5022C48.5312 30.5022 48.7145 30.6855 48.7145 30.9108C48.7145 31.136 48.5312 31.3193 48.3059 31.3193Z" fill="white"/>
<path fill-rule="evenodd" clip-rule="evenodd" d="M51.4701 21.4254L51.4207 23.1053L51.3848 24.3322L51.3653 24.9905L51.1811 31.2631C51.1736 31.5298 50.9499 31.7371 50.6842 31.7261L45.7664 31.5107C45.5057 31.4986 45.3024 31.2802 45.3104 31.0195L45.3296 30.3733L45.3496 29.6738L45.3759 28.78L45.4171 27.3971L45.5993 21.1818C45.6063 20.9161 45.8308 20.7077 46.0965 20.7198L51.0143 20.9352C51.092 20.9383 51.1654 20.9604 51.2291 20.9977C51.3781 21.0811 51.4761 21.2432 51.4701 21.4254Z" fill="#081E4C"/>
<path fill-rule="evenodd" clip-rule="evenodd" d="M50.9769 22.0426L50.9337 23.4819L50.9024 24.5136L50.8853 25.0672V25.0681L50.7344 30.0715C50.7283 30.295 50.5401 30.4691 50.3166 30.4601L46.1859 30.2789C45.9665 30.2688 45.7964 30.0856 45.8025 29.8662L45.8135 29.5079L45.8317 28.9121L45.8538 28.1622L45.887 27.0752L46.0451 21.8383C46.0521 21.6148 46.2403 21.4397 46.4637 21.4498L50.5945 21.6309C50.679 21.635 50.7555 21.6641 50.8179 21.7125C50.9185 21.7869 50.981 21.9078 50.9769 22.0426Z" fill="white"/>
<path fill-rule="evenodd" clip-rule="evenodd" d="M45.9229 25.8862L50.9367 21.8524C50.909 21.796 50.8683 21.7473 50.818 21.71C50.7555 21.6617 50.679 21.6325 50.5946 21.6284L49.6796 21.5884L45.9631 24.5553L45.9229 25.8862Z" fill="white"/>
<path fill-rule="evenodd" clip-rule="evenodd" d="M50.8854 25.0673V25.0663L50.9025 24.5127L50.9337 23.481L50.9437 23.1484L45.8809 27.2749L45.8538 28.1614L45.8317 28.9111L45.8135 29.5071L45.8025 29.8654C45.7965 30.0848 45.9666 30.2679 46.186 30.278L46.8188 30.3058L50.8428 26.4781L50.8854 25.0673Z" fill="white"/>
<path fill-rule="evenodd" clip-rule="evenodd" d="M48.5616 21.2098C48.5616 21.2707 48.5123 21.3201 48.4513 21.3201C48.3905 21.3201 48.3411 21.2707 48.3411 21.2098C48.3411 21.149 48.3905 21.0995 48.4513 21.0995C48.5123 21.0995 48.5616 21.149 48.5616 21.2098Z" fill="white"/>
<path fill-rule="evenodd" clip-rule="evenodd" d="M48.3043 30.61C48.1345 30.61 47.9963 30.7482 47.9963 30.918C47.9963 31.0877 48.1345 31.2259 48.3043 31.2259C48.4741 31.2259 48.6122 31.0877 48.6122 30.918C48.6122 30.7482 48.4741 30.61 48.3043 30.61ZM48.3043 31.3265C48.079 31.3265 47.8957 31.1432 47.8957 30.918C47.8957 30.6927 48.079 30.5094 48.3043 30.5094C48.5296 30.5094 48.7129 30.6927 48.7129 30.918C48.7129 31.1432 48.5296 31.3265 48.3043 31.3265Z" fill="white"/>
<path fill-rule="evenodd" clip-rule="evenodd" d="M43.8795 31.3386C43.8795 31.3386 44.5601 24.6864 45.308 24.7008C46.491 24.7235 46.6051 28.762 46.6051 28.762C46.6051 28.762 48.3524 30.0148 48.6775 32.4495L43.8795 31.3386Z" fill="#EEB5B5"/>
<path fill-rule="evenodd" clip-rule="evenodd" d="M8.22846 64.496C8.22846 64.496 5.83215 70.3937 4.64668 69.816C3.63567 69.3233 6.88711 63.1073 6.88711 63.1073L8.22846 64.496Z" fill="#EEB5B5"/>
<path fill-rule="evenodd" clip-rule="evenodd" d="M9.3399 65.7894C9.3399 65.7894 7.07514 71.8487 6.04474 71.3669C4.97375 70.8662 7.61378 64.9084 7.61378 64.9084L9.3399 65.7894Z" fill="#EEB5B5"/>
<path fill-rule="evenodd" clip-rule="evenodd" d="M10.8659 66.045C10.8659 66.045 9.03468 72.7544 7.91346 72.3454C6.68247 71.8964 9.07047 65.4799 9.07047 65.4799L10.8659 66.045Z" fill="#EEB5B5"/>
<mask id="mask1_1_1536" style="mask-type:alpha" maskUnits="userSpaceOnUse" x="9" y="65" width="4" height="8">
<path fill-rule="evenodd" clip-rule="evenodd" d="M9.71454 65.0661H12.632V72.3822H9.71454V65.0661Z" fill="white"/>
</mask>
<g mask="url(#mask1_1_1536)">
<path fill-rule="evenodd" clip-rule="evenodd" d="M12.6319 65.0661C12.6319 65.0661 11.522 72.5953 10.1714 72.3775C8.95866 72.1819 10.5441 65.7233 10.5441 65.7233L12.6319 65.0661Z" fill="#EEB5B5"/>
</g>
<path fill-rule="evenodd" clip-rule="evenodd" d="M13.7777 62.1882C13.7777 62.1882 14.6318 68.8784 13.2195 69.0779C11.798 69.2786 11.5717 62.8536 11.5717 62.8536L13.7777 62.1882Z" fill="#EEB5B5"/>
<path fill-rule="evenodd" clip-rule="evenodd" d="M5.98641 69.1246C5.97496 69.1246 5.96328 69.1227 5.95197 69.1185C5.89971 69.0995 5.87283 69.0417 5.89185 68.9895L6.80126 66.4955C6.82028 66.4433 6.87808 66.4164 6.93026 66.4354C6.98253 66.4545 7.0094 66.5122 6.99039 66.5645L6.08098 69.0585C6.06608 69.0993 6.02752 69.1246 5.98641 69.1246Z" fill="#081E4C"/>
<path fill-rule="evenodd" clip-rule="evenodd" d="M7.70291 69.798C7.69332 69.798 7.68351 69.7965 7.67386 69.7936C7.62062 69.7777 7.59045 69.7215 7.60647 69.6683L8.33693 67.2419C8.35295 67.1886 8.40918 67.1584 8.46234 67.1745C8.51558 67.1905 8.54575 67.2467 8.52965 67.2998L7.79927 69.7263C7.78616 69.7699 7.74618 69.798 7.70291 69.798Z" fill="#081E4C"/>
<path fill-rule="evenodd" clip-rule="evenodd" d="M9.68553 70.158C9.67805 70.158 9.67048 70.1572 9.66292 70.1554C9.60871 70.1429 9.57487 70.0889 9.58738 70.0347L10.1815 67.4526C10.1939 67.3985 10.248 67.3644 10.3021 67.3771C10.3562 67.3895 10.3901 67.4436 10.3777 67.4977L9.78354 70.0799C9.77284 70.1265 9.73136 70.158 9.68553 70.158Z" fill="#081E4C"/>
<path fill-rule="evenodd" clip-rule="evenodd" d="M11.8615 68.9569C11.8558 68.9569 11.85 68.9564 11.8442 68.9554C11.7894 68.9459 11.7527 68.8938 11.7622 68.839L12.1908 66.363C12.2003 66.3082 12.2524 66.2715 12.3072 66.2809C12.3619 66.2904 12.3986 66.3425 12.3892 66.3973L11.9605 68.8734C11.9521 68.9223 11.9095 68.9569 11.8615 68.9569Z" fill="#081E4C"/>
<path fill-rule="evenodd" clip-rule="evenodd" d="M53.4097 25.0868C53.6074 26.5267 49.6602 26.8119 49.4721 26.1082C49.2523 25.2856 53.1941 23.5137 53.4097 25.0868Z" fill="#EEB5B5"/>
<path fill-rule="evenodd" clip-rule="evenodd" d="M53.094 26.6923C53.2917 28.1322 49.2864 28.2455 49.156 27.7137C48.9514 26.8796 52.8776 25.1192 53.094 26.6923Z" fill="#EEB5B5"/>
<path fill-rule="evenodd" clip-rule="evenodd" d="M50.4222 26.6257C50.3846 26.6257 50.3485 26.6045 50.3313 26.5683C50.3074 26.5181 50.3286 26.458 50.3789 26.4341C51.0866 26.0968 52.0615 25.8156 52.6732 26.0383C52.7256 26.0573 52.7526 26.115 52.7331 26.1673C52.7144 26.2195 52.6567 26.2463 52.6043 26.2274C52.1483 26.0615 51.309 26.2139 50.4654 26.6158C50.4515 26.6225 50.4367 26.6257 50.4222 26.6257Z" fill="#081E4C"/>
<path fill-rule="evenodd" clip-rule="evenodd" d="M52.9977 28.2167C53.1954 29.6565 49.2573 29.9682 49.0596 29.2381C48.8654 28.5209 52.7813 26.6436 52.9977 28.2167Z" fill="#EEB5B5"/>
<path fill-rule="evenodd" clip-rule="evenodd" d="M50.4114 28.1611C50.3735 28.1611 50.3372 28.1396 50.3201 28.103C50.2966 28.0527 50.3183 27.9928 50.3687 27.9692C50.7082 27.8105 51.8723 27.3133 52.5971 27.5771C52.6487 27.5962 52.6757 27.6539 52.657 27.7061C52.6382 27.7583 52.5798 27.7851 52.5282 27.7663C52.0101 27.5777 51.1168 27.8417 50.4539 28.1516C50.4401 28.158 50.4256 28.1611 50.4114 28.1611Z" fill="#081E4C"/>
<path fill-rule="evenodd" clip-rule="evenodd" d="M48.766 32.7534C48.715 32.7534 48.6712 32.7149 48.6659 32.6631C48.6322 32.3356 48.5741 32.0111 48.4932 31.6989C48.4792 31.6451 48.5115 31.5901 48.5654 31.5762C48.6191 31.5622 48.6741 31.5945 48.688 31.6484C48.7716 31.9704 48.8315 32.3049 48.8662 32.6425C48.8719 32.6978 48.8316 32.7472 48.7764 32.7529C48.7728 32.7533 48.7694 32.7534 48.766 32.7534Z" fill="#081E4C"/>
<path fill-rule="evenodd" clip-rule="evenodd" d="M15.4586 33.4148C15.4545 33.4259 15.4495 33.4359 15.4445 33.446L15.4636 33.4007L15.4586 33.4148ZM25.9233 32.5301C25.7552 30.984 24.6762 29.6313 23.1131 29.1734C23.0567 29.1572 22.9993 29.1421 22.941 29.1281C22.0915 28.9197 21.239 28.7235 20.3875 28.5231L19.7332 28.3742L17.8289 27.9413L15.2674 27.3757L14.6262 27.2368L14.4661 27.2026L14.3826 27.1844C14.284 27.1633 14.1863 27.1452 14.0867 27.1281C13.6922 27.0617 13.2855 27.0426 12.8829 27.0647C12.0757 27.114 11.2836 27.3425 10.583 27.733C9.88248 28.1236 9.26246 28.6691 8.79645 29.3324C8.67972 29.4985 8.57101 29.6686 8.47539 29.8457C8.37574 30.0218 8.29218 30.203 8.21468 30.3872L8.16437 30.51L8.14827 30.5543L8.11503 30.6419L8.05064 30.816C7.96611 31.0485 7.88255 31.28 7.80408 31.5105C7.644 31.9724 7.49905 32.4314 7.35821 32.8914C7.07833 33.8114 6.83275 34.7313 6.6133 35.6543C6.39489 36.5762 6.20269 37.5012 6.03363 38.4272C5.86547 39.3542 5.72665 40.2833 5.60281 41.2133C5.36726 43.0743 5.22133 44.9413 5.16697 46.8064C5.11561 48.6715 5.14983 50.5356 5.2676 52.3905C5.34307 53.5934 5.45583 54.7931 5.60281 55.9859C7.23639 55.6647 9.80199 55.2662 12.7551 55.1887C12.6635 54.1369 12.5991 53.0841 12.5618 52.0323C12.5075 50.3926 12.5256 48.754 12.6182 47.1245C12.7168 45.495 12.8889 43.8735 13.1305 42.2691C13.2573 41.4679 13.3963 40.6698 13.5602 39.8787C13.7253 39.0885 13.9086 38.3044 14.1129 37.5294C14.3041 36.8017 14.9271 36.9336 15.1566 36.23L16.5889 36.848L19.0609 37.4579C19.9154 37.6441 20.9139 38.3165 21.7705 38.4946C22.3804 38.6205 22.94 38.4514 23.4392 38.0981C24.6309 37.2526 25.4754 35.3544 25.8327 33.8969C25.9455 33.4369 25.9726 32.9749 25.9233 32.5301Z" fill="#0054B0"/>
<path fill-rule="evenodd" clip-rule="evenodd" d="M40.7292 43.6387C40.6919 43.6941 40.6658 43.7112 40.7242 43.6378C40.7332 43.6247 40.7433 43.6126 40.7534 43.6015C40.7453 43.6136 40.7372 43.6267 40.7292 43.6387ZM33.6484 34.2409C33.6404 34.2429 33.6313 34.2449 33.6232 34.248L33.6454 34.2409C33.6484 34.2399 33.6534 34.2389 33.6574 34.2379C33.6554 34.2389 33.6524 34.2399 33.6484 34.2409ZM30.4507 32.7201L30.4627 32.7493L30.4648 32.7563L30.4507 32.7201ZM42.9486 35.9802C42.9435 36.0003 42.9395 36.0215 42.9355 36.0426C42.7422 36.9454 42.548 37.8402 42.3366 38.7169L42.3356 38.7229C42.2862 38.9303 42.0024 38.9604 41.9108 38.7672C41.3734 37.641 40.854 36.4754 40.3507 35.2997C39.6069 33.5938 38.8983 31.8524 38.2089 30.1082L38.079 29.7821L38.063 29.7408L38.0076 29.608C37.9633 29.5043 37.917 29.4006 37.8677 29.299C37.767 29.0967 37.6533 28.8974 37.5295 28.7071C37.0262 27.9432 36.3358 27.305 35.5386 26.8763C35.142 26.6578 34.7163 26.4948 34.2784 26.378C33.8386 26.2674 33.3856 26.2029 32.9287 26.2029C32.7012 26.1979 32.4728 26.217 32.2463 26.2391C32.0218 26.2694 31.7954 26.3046 31.578 26.3599C31.4693 26.3871 31.3605 26.4173 31.2518 26.4495L31.1683 26.4757L31.1251 26.4888L30.9539 26.5451C30.038 26.839 29.1271 27.146 28.2132 27.448L26.8444 27.9019L26.7034 27.9492L25.4775 28.3639C24.6874 28.6296 23.8993 28.9003 23.1121 29.1742C22.9904 29.2164 22.8696 29.2587 22.7478 29.301C21.4494 29.7579 20.5224 30.8399 20.2155 32.1061C20.0594 32.7493 20.0635 33.4398 20.2597 34.1201C20.6634 35.5172 21.9828 37.2695 23.4383 38.0989C24.1619 38.5116 24.9199 38.6967 25.6144 38.4955C26.5393 38.2277 27.412 38.1804 28.333 37.9026L29.2227 38.4361L30.4416 38.6455H30.4436C30.8161 38.5287 31.4944 37.0975 31.6434 37.4587C32.052 38.4522 31.5468 38.3968 31.9806 39.3883C32.7898 41.205 34.517 42.1934 35.4923 44.0282C35.7359 44.4892 35.9965 44.9482 36.2703 45.4142C36.5451 45.8813 36.834 46.3513 37.1611 46.8395C37.3231 47.082 37.4973 47.3316 37.6865 47.5873C37.8747 47.842 38.082 48.1077 38.3256 48.3895C38.5722 48.6723 38.845 48.9713 39.2385 49.3155L39.3905 49.4443C39.4419 49.4876 39.5073 49.5379 39.5657 49.5822C39.6271 49.6295 39.6825 49.6728 39.7509 49.7211C39.8233 49.7724 39.8968 49.8218 39.9703 49.8701L40.082 49.9416L40.2168 50.022C40.3075 50.0734 40.398 50.1237 40.4917 50.173C40.6034 50.2284 40.7171 50.2807 40.8329 50.3301L40.9194 50.3673L40.9627 50.3844L41.009 50.4025C41.0865 50.4307 41.1641 50.4579 41.2425 50.483C41.3844 50.5283 41.5082 50.5666 41.6924 50.6058C41.78 50.6249 41.8685 50.6421 41.9582 50.6561L42.091 50.6773C42.1363 50.6833 42.1806 50.6894 42.2189 50.6924C42.3779 50.7075 42.5389 50.7155 42.699 50.7175C42.859 50.7205 43.018 50.7155 43.1781 50.6974C43.3381 50.6823 43.4971 50.6602 43.6552 50.631C43.8111 50.6028 43.9511 50.5635 44.099 50.5223C44.1715 50.5012 44.2439 50.478 44.3154 50.4549C44.3879 50.4307 44.4593 50.4056 44.5197 50.3804C44.6455 50.329 44.7703 50.2747 44.8921 50.2153C44.9535 50.1861 45.014 50.1559 45.0743 50.1247L45.2283 50.0361C45.33 49.9758 45.4306 49.9124 45.5292 49.8479L45.6027 49.7986L45.6662 49.7523L45.7879 49.6597C45.8685 49.5983 45.948 49.5339 46.0255 49.4695C46.0677 49.4353 46.098 49.4071 46.1302 49.3769L46.2258 49.2883C46.2892 49.2279 46.3525 49.1666 46.414 49.1052C46.4472 49.0729 46.4714 49.0458 46.4976 49.0175L46.574 48.933L46.724 48.7629C47.0934 48.3221 47.3319 47.9356 47.5373 47.5762L47.6791 47.3135C47.7265 47.226 47.7637 47.1465 47.806 47.0619C47.8915 46.8918 47.957 46.7398 48.0304 46.5777C48.3002 45.9547 48.4944 45.382 48.6636 44.8254C48.8316 44.2708 48.9726 43.7354 49.0933 43.2069C49.3379 42.1531 49.5191 41.1305 49.6711 40.1169C49.8079 39.1879 49.9197 38.269 50.0072 37.3531C46.3787 37.1326 44.1564 36.4774 42.9486 35.9802Z" fill="#0054B0"/>
<path fill-rule="evenodd" clip-rule="evenodd" d="M26.9831 29.885C26.97 30.8714 26.5956 31.8246 25.9212 32.5271C25.7844 32.6701 25.6344 32.8029 25.4723 32.9237C24.8472 33.3897 24.0763 33.6645 23.2419 33.6645C22.8503 33.6645 22.4739 33.6041 22.1186 33.4923C21.7643 33.3796 21.4312 33.2156 21.1302 33.0093C20.7679 32.7596 20.4609 32.4517 20.2142 32.1024C19.7613 31.4613 19.5137 30.6822 19.5057 29.879C19.5027 29.581 19.542 29.2842 19.6043 28.9943L19.7321 28.4045L19.7312 28.3712L20.3854 28.5202C21.2369 28.7205 22.0894 28.9168 22.9389 29.1251C22.9973 29.1392 23.0546 29.1543 23.111 29.1704C23.8981 28.8966 24.6862 28.6259 25.4763 28.3602L26.7023 27.9454L26.6972 28.0491L26.8965 29.0396C26.9529 29.3184 26.9871 29.6012 26.9831 29.885Z" fill="#EEB5B5"/>
<path fill-rule="evenodd" clip-rule="evenodd" d="M35.5546 44.4321C35.5063 44.4321 35.4637 44.3973 35.4555 44.3481L33.9542 35.3912C33.945 35.3364 33.982 35.2845 34.0369 35.2753C34.0915 35.2662 34.1436 35.3031 34.1527 35.358L35.654 44.3148C35.6632 44.3697 35.6262 44.4216 35.5714 44.4307C35.5657 44.4317 35.5602 44.4321 35.5546 44.4321Z" fill="#081E4C"/>
<path fill-rule="evenodd" clip-rule="evenodd" d="M12.7134 55.2845C12.6622 55.2845 12.6184 55.2457 12.6133 55.1937C12.602 55.0789 11.5191 43.6166 14.6098 35.3394C14.6293 35.2873 14.6873 35.2609 14.7394 35.2803C14.7914 35.2997 14.8178 35.3577 14.7984 35.4097C11.7242 43.6427 12.8024 55.0597 12.8136 55.174C12.8191 55.2293 12.7787 55.2786 12.7233 55.284C12.72 55.2844 12.7167 55.2845 12.7134 55.2845Z" fill="#081E4C"/>
<path fill-rule="evenodd" clip-rule="evenodd" d="M42.1847 39.3319L41.2085 43.2447C41.177 43.3713 40.9892 43.3424 40.998 43.2122C41.1037 41.6649 41.2262 39.0095 41.0261 36.8447L42.1847 39.3319Z" fill="#081E4C"/>
<path fill-rule="evenodd" clip-rule="evenodd" d="M49.8127 39.4862C45.8803 39.4863 42.5482 38.0059 42.5149 37.991C42.4642 37.9682 42.4417 37.9086 42.4645 37.8579C42.4874 37.8073 42.5469 37.7847 42.5976 37.8074C42.6305 37.8223 45.9248 39.2849 49.8121 39.2849C49.8699 39.285 49.9133 39.3297 49.9133 39.3855C49.9133 39.4411 49.8683 39.4862 49.8127 39.4862Z" fill="#081E4C"/>
<path fill-rule="evenodd" clip-rule="evenodd" d="M5.38713 53.7636C5.34498 53.7636 5.30567 53.7369 5.29159 53.6947C5.27407 53.642 5.30267 53.585 5.35538 53.5675C5.38301 53.5583 8.17084 52.6489 12.5522 52.6489C12.6077 52.6489 12.6528 52.6939 12.6528 52.7495C12.6528 52.8051 12.6077 52.8501 12.5522 52.8501C8.20603 52.8501 5.44621 53.7494 5.41888 53.7585C5.40832 53.762 5.39761 53.7636 5.38713 53.7636Z" fill="#081E4C"/>
<path fill-rule="evenodd" clip-rule="evenodd" d="M20.3395 28.5024L20.2671 29.7305C20.2584 29.8969 20.2623 30.0828 20.2823 30.2539C20.4746 31.8891 21.956 33.0588 23.5913 32.8666C25.2265 32.6744 26.3963 31.1929 26.204 29.5576L26.0402 28.1693C26.0402 28.1693 24.4433 28.7584 23.2449 28.7771C22.0464 28.7958 20.3395 28.5024 20.3395 28.5024Z" fill="#EEB5B5"/>
<path fill-rule="evenodd" clip-rule="evenodd" d="M24.3013 37.9991H23.7018C23.1649 37.9991 22.7258 37.579 22.7021 37.0426L22.5528 33.6692C22.5504 33.6136 22.5934 33.5666 22.649 33.5641C22.7055 33.5615 22.7515 33.6047 22.7539 33.6603L22.9032 37.0338C22.9221 37.4622 23.2729 37.7978 23.7018 37.7978H24.3013C24.3568 37.7978 24.4019 37.8428 24.4019 37.8985C24.4019 37.954 24.3568 37.9991 24.3013 37.9991Z" fill="#081E4C"/>
<path fill-rule="evenodd" clip-rule="evenodd" d="M23.6839 34.4323C23.4995 34.4323 23.3493 34.5824 23.3493 34.7669C23.3493 34.9514 23.4995 35.1015 23.6839 35.1015C23.8684 35.1015 24.0185 34.9514 24.0185 34.7669C24.0185 34.5824 23.8684 34.4323 23.6839 34.4323ZM23.6839 35.3028C23.3884 35.3028 23.1481 35.0623 23.1481 34.7669C23.1481 34.4714 23.3884 34.231 23.6839 34.231C23.9795 34.231 24.2198 34.4714 24.2198 34.7669C24.2198 35.0623 23.9795 35.3028 23.6839 35.3028Z" fill="#081E4C"/>
<path fill-rule="evenodd" clip-rule="evenodd" d="M23.6839 36.2269C23.4995 36.2269 23.3493 36.377 23.3493 36.5615C23.3493 36.746 23.4995 36.8961 23.6839 36.8961C23.8684 36.8961 24.0185 36.746 24.0185 36.5615C24.0185 36.377 23.8684 36.2269 23.6839 36.2269ZM23.6839 37.0974C23.3884 37.0974 23.1481 36.8569 23.1481 36.5615C23.1481 36.266 23.3884 36.0256 23.6839 36.0256C23.9795 36.0256 24.2198 36.266 24.2198 36.5615C24.2198 36.8569 23.9795 37.0974 23.6839 37.0974Z" fill="#081E4C"/>
<path fill-rule="evenodd" clip-rule="evenodd" d="M28.2158 25.865C27.5638 26.5445 26.6726 26.6564 25.7308 26.4676C23.3269 25.9858 20.5817 23.5457 20.5817 23.5457C20.0373 23.1188 19.4577 22.5337 19.0923 21.8883L19.0735 21.8542C18.977 21.6819 18.8968 21.5041 18.8364 21.3252C18.808 21.2396 18.7838 21.1528 18.7651 21.0661C18.763 21.0574 18.7618 21.0496 18.7596 21.042C18.7541 21.0178 18.7487 20.9948 18.7443 20.9739C18.6378 20.5327 18.5555 20.5195 18.4227 19.6809C18.2262 18.4405 18.7443 17.3429 19.8551 16.7436C21.3512 15.9357 23.2896 15.7283 24.8878 16.4099C24.8922 16.4122 24.8966 16.4132 24.901 16.4154C25.0876 16.4956 25.2664 16.59 25.4366 16.6964C25.6484 16.827 25.8471 16.9752 26.0337 17.1398C27.2137 18.1673 27.9348 19.7786 28.4781 21.1825C29.0501 22.6588 29.4342 24.595 28.2158 25.865Z" fill="#EEB5B5"/>
<path fill-rule="evenodd" clip-rule="evenodd" d="M24.9803 21.0519L25.9537 29.3319C26.1459 30.9672 24.9762 32.4487 23.341 32.6409C21.7058 32.8331 20.2243 31.6633 20.032 30.0281C20.012 29.857 20.0081 29.6712 20.0168 29.5047L20.507 21.1821C20.58 19.9436 21.643 18.9988 22.8815 19.0718C23.9858 19.1368 24.8564 19.9899 24.9803 21.0519Z" fill="#EEB5B5"/>
<path fill-rule="evenodd" clip-rule="evenodd" d="M25.6091 26.4401C25.6091 26.4401 25.0192 26.3475 24.0762 25.8629C23.9609 25.8036 23.847 25.9439 23.93 26.0435L25.7744 27.8139L25.6091 26.4401Z" fill="#081E4C"/>
<path fill-rule="evenodd" clip-rule="evenodd" d="M20.3463 23.8472C20.3463 23.8472 20.5733 23.7119 20.7367 23.4723C20.7616 23.4358 20.818 23.4463 20.8266 23.4896C20.8847 23.7855 20.9368 24.5686 20.2677 25.2133L20.3463 23.8472Z" fill="#081E4C"/>
<path fill-rule="evenodd" clip-rule="evenodd" d="M24.8397 16.3898L24.9009 16.4154C25.0875 16.4956 25.2664 16.5899 25.4366 16.6964C25.6484 16.827 25.8471 16.9752 26.0337 17.1398C25.531 17.7358 24.7725 18.0926 24.0019 18.2528C23.2842 18.402 22.5462 18.3995 21.8108 18.3833L21.4027 18.3736C21.3245 18.3716 21.2437 18.3708 21.1631 18.3741L21.1389 18.3791C20.9337 18.424 20.7782 18.5365 21.0752 19.1604L21.0992 19.2101C21.6017 20.2293 21.9377 21.1695 22.1072 22.0309C22.129 22.093 22.1399 22.1573 22.1399 22.2206C22.1399 22.4462 22.0026 22.6599 21.7791 22.746C21.5137 22.8482 21.215 22.7369 21.0806 22.4894L21.0717 22.4723L20.7948 21.9459C20.7873 21.9245 20.7791 21.9036 20.7702 21.8831C20.617 21.993 20.4057 22.0335 20.2148 22.0004L20.1909 21.9958C19.9001 21.9343 19.2908 22.0583 19.0735 21.8542C18.8572 21.6511 18.5554 20.5195 18.4227 19.6809C18.2262 18.4405 18.7443 17.3429 19.8551 16.7436C21.3362 15.9438 23.2509 15.7325 24.8397 16.3898Z" fill="#081E4C"/>
<path fill-rule="evenodd" clip-rule="evenodd" d="M19.5952 23.6403C19.5952 23.8665 19.4119 24.0498 19.1857 24.0498C18.9595 24.0498 18.7762 23.8665 18.7762 23.6403C18.7762 23.4141 18.9595 23.2307 19.1857 23.2307C19.4119 23.2307 19.5952 23.4141 19.5952 23.6403Z" fill="white"/>
<path fill-rule="evenodd" clip-rule="evenodd" d="M21.0976 22.7878C21.0445 23.7025 20.2599 24.401 19.3452 24.348C18.4304 24.295 17.7319 23.5104 17.7849 22.5957C17.838 21.6809 18.6225 20.9823 19.5373 21.0354C20.452 21.0884 21.1506 21.873 21.0976 22.7878Z" fill="#EEB5B5"/>
<path fill-rule="evenodd" clip-rule="evenodd" d="M20.0357 22.8955C20.0219 22.8955 20.008 22.8928 19.9945 22.8872L18.6918 22.3415C18.6373 22.3187 18.6117 22.2562 18.6346 22.2018C18.6573 22.1475 18.7199 22.1218 18.7742 22.1446L20.077 22.6904C20.1314 22.7131 20.157 22.7757 20.1341 22.83C20.1171 22.8709 20.0775 22.8955 20.0357 22.8955Z" fill="#081E4C"/>
<path fill-rule="evenodd" clip-rule="evenodd" d="M19.225 23.1285C19.2124 23.1285 19.1994 23.1263 19.1869 23.1215C19.1319 23.1004 19.1043 23.0388 19.1253 22.9836L19.3124 22.494C19.3335 22.4389 19.3953 22.4113 19.4503 22.4324C19.5053 22.4534 19.5328 22.5151 19.5119 22.5701L19.3248 23.0599C19.3084 23.1024 19.2679 23.1285 19.225 23.1285Z" fill="#081E4C"/>
<path fill-rule="evenodd" clip-rule="evenodd" d="M25.9386 23.2622H25.9372L25.5485 23.2612C25.4863 23.261 25.4361 23.2104 25.4362 23.1483C25.4364 23.0861 25.4886 23.0355 25.5491 23.0361L25.9379 23.0372C26.0195 23.0358 26.0973 22.9997 26.1477 22.9338C26.1981 22.8679 26.2144 22.7842 26.1924 22.7042L25.7254 21.0026C25.7089 20.9427 25.7442 20.8808 25.8041 20.8643C25.864 20.848 25.926 20.8832 25.9424 20.943L26.4096 22.6446C26.4503 22.793 26.4201 22.9483 26.3265 23.0705C26.2333 23.1924 26.092 23.2622 25.9386 23.2622Z" fill="#081E4C"/>
<mask id="mask2_1_1536" style="mask-type:alpha" maskUnits="userSpaceOnUse" x="26" y="19" width="4" height="2">
<path fill-rule="evenodd" clip-rule="evenodd" d="M26.532 19.7798H29.1699V20.346H26.532V19.7798Z" fill="white"/>
</mask>
<g mask="url(#mask2_1_1536)">
<path fill-rule="evenodd" clip-rule="evenodd" d="M29.0572 20.346C29.038 20.346 29.0186 20.3411 29.0008 20.3307C27.7737 19.6173 26.7182 20.3128 26.7076 20.3199C26.6561 20.3548 26.5862 20.3412 26.5514 20.2897C26.5165 20.2382 26.5301 20.1683 26.5816 20.1334C26.6293 20.1012 27.7659 19.3524 29.1139 20.1361C29.1676 20.1674 29.1858 20.2362 29.1546 20.29C29.1337 20.3259 29.096 20.346 29.0572 20.346Z" fill="#081E4C"/>
</g>
<path fill-rule="evenodd" clip-rule="evenodd" d="M22.7255 20.3467C22.6867 20.3467 22.6489 20.3266 22.6281 20.2907C22.5968 20.2369 22.615 20.1681 22.6688 20.1368C24.0167 19.3531 25.1534 20.1019 25.2011 20.1341C25.2526 20.169 25.2661 20.2389 25.2313 20.2904C25.1965 20.3418 25.1267 20.3555 25.0752 20.3207C25.0319 20.2917 24.0046 19.6206 22.7819 20.3314C22.7641 20.3418 22.7446 20.3467 22.7255 20.3467Z" fill="#081E4C"/>
<mask id="mask3_1_1536" style="mask-type:alpha" maskUnits="userSpaceOnUse" x="24" y="23" width="2" height="2">
<path fill-rule="evenodd" clip-rule="evenodd" d="M24.6622 23.5927H25.4365V24.4311H24.6622V23.5927Z" fill="white"/>
</mask>
<g mask="url(#mask3_1_1536)">
<path fill-rule="evenodd" clip-rule="evenodd" d="M25.4365 23.7558V24.0439C25.4365 24.1025 25.4242 24.1588 25.3994 24.2083C25.3386 24.34 25.2046 24.4312 25.0493 24.4312C24.8355 24.4312 24.6622 24.2578 24.6622 24.0439V23.7558C24.6622 23.6658 24.7353 23.5927 24.8253 23.5927H25.2733C25.3634 23.5927 25.4365 23.6658 25.4365 23.7558Z" fill="#081E4C"/>
</g>
<path fill-rule="evenodd" clip-rule="evenodd" d="M25.401 24.2091C25.3402 24.3408 25.2063 24.4319 25.051 24.4319C24.8371 24.4319 24.6638 24.2585 24.6638 24.0447V23.9851C24.7347 23.957 24.8112 23.9412 24.8911 23.9412C25.1027 23.9412 25.2896 24.047 25.401 24.2091Z" fill="#DD6F6F"/>
<path fill-rule="evenodd" clip-rule="evenodd" d="M24.7537 22.0617C24.7225 22.0617 24.6917 22.0482 24.6707 22.0221L23.9191 21.0906L23.1299 22.024C23.0919 22.0689 23.0247 22.0746 22.9797 22.0366C22.9348 21.9986 22.9292 21.9314 22.9671 21.8864L23.8396 20.8546C23.8601 20.8303 23.8893 20.8172 23.9222 20.8168C23.9539 20.8171 23.9839 20.8317 24.0039 20.8564L24.8365 21.8883C24.8735 21.9341 24.8663 22.0012 24.8205 22.0382C24.8008 22.054 24.7772 22.0617 24.7537 22.0617Z" fill="#081E4C"/>
<path fill-rule="evenodd" clip-rule="evenodd" d="M28.7036 22.0617C28.6725 22.0617 28.6417 22.0482 28.6207 22.0221L27.869 21.0906L27.0798 22.024C27.0418 22.0689 26.9747 22.0746 26.9297 22.0366C26.8847 21.9986 26.8791 21.9314 26.9171 21.8864L27.7896 20.8546C27.81 20.8303 27.8388 20.8172 27.8722 20.8168C27.9039 20.8171 27.9338 20.8317 27.9538 20.8564L28.7864 21.8883C28.8234 21.9341 28.8162 22.0012 28.7705 22.0382C28.7507 22.054 28.7271 22.0617 28.7036 22.0617Z" fill="#081E4C"/>
<path d="M24.0563 23.2097C24.4231 22.9448 24.8595 22.8996 25.3411 23.0681C25.8373 23.2417 26.1766 23.3931 26.3492 23.9506C26.3859 24.0691 26.3195 24.1949 26.201 24.2316C26.0825 24.2683 25.9567 24.2019 25.92 24.0834C25.7881 23.6571 25.5489 23.6167 25.1928 23.4921C24.8438 23.3701 24.561 23.3994 24.3194 23.5739C24.2189 23.6465 24.0785 23.6239 24.0059 23.5233C23.9332 23.4228 23.9558 23.2824 24.0563 23.2097Z" fill="#081E4C"/>
<path fill-rule="evenodd" clip-rule="evenodd" d="M21.8453 21.6074C21.8453 21.6074 22.6612 23.1949 23.2186 23.7297C25.315 25.7414 27.4121 25.6863 28.9804 23.7558C28.9983 23.7338 29.0196 23.7173 29.0392 23.7297C29.0588 23.7421 29.0502 23.7763 29.0492 23.7993C28.9604 25.6913 28.1034 26.6373 26.3282 26.6373C23.6025 26.6373 21.9201 25.3682 20.982 22.5602C20.4077 20.8408 21.8453 21.6074 21.8453 21.6074Z" fill="#081E4C"/>
<path d="M47.0834 23.1891C47.0993 22.7805 47.1072 22.5763 47.239 22.4543C47.3708 22.3323 47.575 22.3402 47.9836 22.3561L49.0234 22.3963C49.4319 22.4122 49.6361 22.4201 49.7582 22.5519C49.8801 22.6837 49.8722 22.8879 49.8564 23.2964L49.8161 24.3363C49.8003 24.7448 49.7924 24.949 49.6606 25.071C49.5288 25.193 49.3245 25.1851 48.916 25.1693L47.8762 25.129C47.4677 25.1132 47.2635 25.1053 47.1414 24.9735C47.0195 24.8417 47.0274 24.6374 47.0432 24.2289L47.0834 23.1891Z" fill="#0057B7"/>
<path fill-rule="evenodd" clip-rule="evenodd" d="M49.1516 23.5346C49.1529 23.5014 49.1519 23.4684 49.1488 23.4359L49.2838 23.4411L49.3669 23.3029L49.1212 23.2934C49.102 23.23 49.0743 23.1702 49.0384 23.1161C49.03 23.1033 49.021 23.0909 49.0117 23.0788C48.9129 22.9508 48.7778 22.8772 48.6313 22.8715L47.7666 22.8381C47.7582 22.8377 47.7511 22.8449 47.7508 22.8541L47.6826 24.615C47.6822 24.6243 47.6887 24.632 47.6971 24.6323L47.8745 24.6392C47.8829 24.6395 47.89 24.6323 47.8903 24.6231L47.9094 24.1294L48.4663 24.151C48.516 24.1529 48.5622 24.1789 48.5925 24.222L48.8664 24.6115C48.8967 24.6546 48.9429 24.6806 48.9926 24.6825L49.1652 24.6892C49.1732 24.6895 49.1779 24.6794 49.1731 24.6725L48.7833 24.1184C48.8542 24.0886 48.92 24.0413 48.9769 23.9783C49.0309 23.9187 49.0734 23.8487 49.103 23.7721L49.2707 23.7786L49.3539 23.6404L49.1415 23.6322C49.1469 23.6002 49.1504 23.5677 49.1516 23.5347L49.1516 23.5346ZM48.83 23.8177C48.7632 23.8915 48.6782 23.9303 48.5905 23.9269L47.9182 23.9009L47.9502 23.074L48.6225 23.1C48.7102 23.1034 48.792 23.1487 48.8529 23.2275C48.8667 23.2454 48.8789 23.2644 48.8897 23.2844L48.5505 23.2713L48.4673 23.4095L48.9379 23.4277C48.9431 23.4598 48.9452 23.493 48.9439 23.5266C48.9426 23.5602 48.9381 23.5925 48.9305 23.6239L48.5375 23.6087L48.4543 23.7469L48.8716 23.7631C48.8592 23.7824 48.8454 23.8007 48.8301 23.8177L48.83 23.8177Z" fill="white"/>
<path fill-rule="evenodd" clip-rule="evenodd" d="M102.053 81.11H114.774L118.663 69.8365H105.942L102.053 81.11Z" fill="#2C9E82"/>
<path fill-rule="evenodd" clip-rule="evenodd" d="M120.057 81.11H132.778L136.667 69.8365H123.946L120.057 81.11Z" fill="#2C9E82"/>
<path fill-rule="evenodd" clip-rule="evenodd" d="M83.9386 81.11H96.6589L100.548 69.8365H87.8275L83.9386 81.11Z" fill="#2C9E82"/>
<path fill-rule="evenodd" clip-rule="evenodd" d="M67.5315 76.1535C66.9612 77.8067 66.676 78.6334 66.83 79.2933C66.9707 79.8964 67.3436 80.4195 67.8678 80.7492C68.4415 81.11 69.3159 81.11 71.0648 81.11H74.9894C76.2543 81.11 76.8867 81.11 77.4275 80.9031C77.9258 80.7125 78.3671 80.3979 78.7097 79.989C79.0817 79.5452 79.288 78.9474 79.7004 77.7517L80.7211 74.7931C81.2914 73.1398 81.5766 72.3132 81.4226 71.6532C81.2819 71.0502 80.909 70.527 80.3848 70.1973C79.8111 69.8365 78.9366 69.8365 77.1878 69.8365H73.2631C71.9983 69.8365 71.3658 69.8365 70.825 70.0435C70.3268 70.2341 69.8854 70.5487 69.5428 70.9575C69.1708 71.4013 68.9646 71.9992 68.5521 73.1949L67.5315 76.1535Z" fill="#0057B7"/>
<path fill-rule="evenodd" clip-rule="evenodd" d="M115.094 95.8211H127.814L131.703 84.5478H118.983L115.094 95.8211Z" fill="white" stroke="#0057B7" stroke-width="0.587677" stroke-linejoin="round"/>
<path fill-rule="evenodd" clip-rule="evenodd" d="M96.979 95.8211H109.699L113.588 84.5478H100.868L96.979 95.8211Z" fill="#2C9E82"/>
<path fill-rule="evenodd" clip-rule="evenodd" d="M78.8621 95.8211H91.5824L95.4715 84.5478H82.7511L78.8621 95.8211Z" fill="#2C9E82"/>
<path fill-rule="evenodd" clip-rule="evenodd" d="M60.7474 95.8211H73.4676L77.3567 84.5478H64.6363L60.7474 95.8211Z" fill="#2C9E82"/>
<path fill-rule="evenodd" clip-rule="evenodd" d="M110.069 110.385H122.79L126.679 99.1113H113.958L110.069 110.385Z" fill="white" stroke="#0057B7" stroke-width="0.587677" stroke-linejoin="round"/>
<path fill-rule="evenodd" clip-rule="evenodd" d="M91.9547 110.385H104.675L108.564 99.1113H95.8437L91.9547 110.385Z" fill="white" stroke="#0057B7" stroke-width="0.587677" stroke-linejoin="round"/>
<path fill-rule="evenodd" clip-rule="evenodd" d="M73.8378 110.385H86.5581L90.4471 99.1113H77.7267L73.8378 110.385Z" fill="white" stroke="#0057B7" stroke-width="0.587677" stroke-linejoin="round"/>
<path fill-rule="evenodd" clip-rule="evenodd" d="M55.8903 110.385H68.6107L72.4997 99.1113H59.7793L55.8903 110.385Z" fill="white" stroke="#0057B7" stroke-width="0.587677" stroke-linejoin="round"/>
<path d="M70.4778 88.4986L69.9176 88.5022C69.8767 88.1768 69.7599 87.8727 69.5776 87.6379L70.4675 87.6322C70.6806 87.6309 70.8513 87.4701 70.8487 87.2564C70.8462 87.0427 70.6716 86.8797 70.4585 86.8811L67.4412 86.9004C67.4302 86.9004 67.4195 86.9001 67.4082 86.9002C67.4008 86.9002 67.3935 86.9007 67.3862 86.9007L65.9477 86.9099C65.7346 86.9112 65.564 87.0765 65.5665 87.2902C65.5691 87.5038 65.7436 87.6624 65.9567 87.661L67.6673 87.6501C68.208 87.6861 68.7764 87.8921 68.9328 88.5085L65.9671 88.5274C65.754 88.5288 65.5834 88.7031 65.586 88.9169C65.5886 89.1306 65.7632 89.3028 65.9764 89.3014L68.9037 89.2828C68.7274 89.7718 68.2307 90.0726 67.5354 90.077L66.7682 90.0819L66.766 90.0819L66.3187 90.0848C66.1109 90.0861 65.9445 90.2561 65.947 90.4645C65.9495 90.6729 66.1199 90.8408 66.3277 90.8395L66.7697 90.8366C66.7716 90.8368 66.7732 90.8377 66.775 90.8377L67.4731 90.8332C68.2319 90.8573 68.5732 91.185 68.7774 92.0862C68.9368 92.7556 69.0534 93.1915 69.1442 93.4525C69.2127 93.694 69.347 94.0577 69.575 94.274C69.6642 94.3584 69.7784 94.4 69.8916 94.3993C70.0109 94.3985 70.1296 94.351 70.2177 94.2573C70.3792 94.0858 70.379 93.822 70.227 93.6467C70.2263 93.6446 70.2266 93.6423 70.2255 93.6402C70.084 93.3837 69.9084 92.6943 69.6937 91.8197C69.5229 91.1086 69.2143 90.667 68.7525 90.4729C69.3268 90.2471 69.7186 89.8197 69.8677 89.2765L70.4871 89.2725C70.7002 89.2712 70.8707 89.0968 70.8682 88.8831C70.8656 88.6694 70.691 88.4973 70.4778 88.4986Z" fill="white"/>
<path d="M94.6424 73.3029L94.0822 73.3065C94.0413 72.9811 93.9245 72.677 93.7423 72.4422L94.6321 72.4365C94.8452 72.4351 95.0159 72.2744 95.0133 72.0607C95.0108 71.8469 94.8362 71.684 94.6231 71.6854L91.6058 71.7046C91.5948 71.7047 91.5841 71.7044 91.5728 71.7044C91.5655 71.7045 91.5581 71.7049 91.5508 71.705L90.1124 71.7141C89.8992 71.7155 89.7286 71.8807 89.7312 72.0944C89.7337 72.3081 89.9082 72.4666 90.1213 72.4653L91.8319 72.4544C92.3726 72.4903 92.941 72.6963 93.0975 73.3127L90.1317 73.3317C89.9186 73.333 89.7481 73.5074 89.7506 73.7212C89.7532 73.9348 89.9278 74.1071 90.141 74.1057L93.0683 74.087C92.892 74.5761 92.3953 74.8768 91.7 74.8812L90.9329 74.8861L90.9306 74.8862L90.4833 74.889C90.2755 74.8903 90.1091 75.0604 90.1116 75.2687C90.1141 75.4772 90.2845 75.6451 90.4923 75.6437L90.9343 75.6409C90.9362 75.6411 90.9378 75.642 90.9396 75.642L91.6377 75.6375C92.3965 75.6616 92.7378 75.9893 92.942 76.8905C93.1014 77.5599 93.218 77.9958 93.3088 78.2567C93.3773 78.4982 93.5116 78.8619 93.7396 79.0782C93.8288 79.1627 93.943 79.2043 94.0563 79.2035C94.1755 79.2028 94.2942 79.1552 94.3823 79.0616C94.5438 78.8901 94.5436 78.6263 94.3916 78.4509C94.3909 78.4489 94.3912 78.4466 94.3901 78.4445C94.2486 78.188 94.073 77.4985 93.8583 76.624C93.6875 75.9129 93.3789 75.4712 92.9171 75.2772C93.4914 75.0514 93.8832 74.6239 94.0323 74.0808L94.6517 74.0768C94.8648 74.0754 95.0353 73.901 95.0328 73.6873C95.0302 73.4736 94.8556 73.3015 94.6424 73.3029Z" fill="white"/>
<path d="M88.9674 88.4986L88.4072 88.5022C88.3662 88.1768 88.2495 87.8727 88.0672 87.6379L88.957 87.6322C89.1702 87.6309 89.3408 87.4701 89.3383 87.2564C89.3357 87.0427 89.1612 86.8797 88.948 86.8811L85.9308 86.9004C85.9197 86.9004 85.9091 86.9001 85.8977 86.9002C85.8904 86.9002 85.8831 86.9007 85.8757 86.9007L84.4373 86.9099C84.2242 86.9112 84.0535 87.0765 84.0561 87.2902C84.0587 87.5038 84.2332 87.6624 84.4463 87.661L86.1569 87.6501C86.6976 87.6861 87.266 87.8921 87.4224 88.5085L84.4567 88.5274C84.2435 88.5288 84.073 88.7031 84.0756 88.9169C84.0781 89.1306 84.2528 89.3028 84.4659 89.3014L87.3932 89.2828C87.2169 89.7718 86.7202 90.0726 86.025 90.077L85.2578 90.0819L85.2556 90.0819L84.8082 90.0848C84.6005 90.0861 84.434 90.2561 84.4365 90.4645C84.439 90.6729 84.6095 90.8408 84.8173 90.8395L85.2593 90.8366C85.2611 90.8368 85.2628 90.8377 85.2646 90.8377L85.9627 90.8332C86.7215 90.8573 87.0628 91.185 87.267 92.0862C87.4263 92.7556 87.543 93.1915 87.6337 93.4525C87.7023 93.694 87.8366 94.0577 88.0646 94.274C88.1537 94.3584 88.2679 94.4 88.3812 94.3993C88.5005 94.3985 88.6191 94.351 88.7072 94.2573C88.8687 94.0858 88.8685 93.822 88.7166 93.6467C88.7159 93.6446 88.7161 93.6423 88.715 93.6402C88.5736 93.3837 88.398 92.6943 88.1833 91.8197C88.0124 91.1086 87.7039 90.667 87.242 90.4729C87.8164 90.2471 88.2082 89.8197 88.3573 89.2765L88.9766 89.2725C89.1898 89.2712 89.3603 89.0968 89.3577 88.8831C89.3552 88.6694 89.1805 88.4973 88.9674 88.4986Z" fill="white"/>
<path d="M112.034 73.3029L111.473 73.3065C111.433 72.9811 111.316 72.677 111.133 72.4422L112.023 72.4365C112.236 72.4351 112.407 72.2744 112.405 72.0607C112.402 71.8469 112.227 71.684 112.014 71.6854L108.997 71.7046C108.986 71.7047 108.975 71.7044 108.964 71.7044C108.957 71.7045 108.949 71.7049 108.942 71.705L107.504 71.7141C107.29 71.7155 107.12 71.8807 107.122 72.0944C107.125 72.3081 107.299 72.4666 107.513 72.4653L109.223 72.4544C109.764 72.4903 110.332 72.6963 110.489 73.3127L107.523 73.3317C107.31 73.333 107.139 73.5074 107.142 73.7212C107.144 73.9348 107.319 74.1071 107.532 74.1057L110.46 74.087C110.283 74.5761 109.787 74.8768 109.091 74.8812L108.324 74.8861L108.322 74.8862L107.875 74.889C107.667 74.8903 107.5 75.0604 107.503 75.2687C107.505 75.4772 107.676 75.6451 107.884 75.6437L108.326 75.6409C108.327 75.6411 108.329 75.642 108.331 75.642L109.029 75.6375C109.788 75.6616 110.129 75.9893 110.333 76.8905C110.493 77.5599 110.609 77.9958 110.7 78.2567C110.769 78.4982 110.903 78.8619 111.131 79.0782C111.22 79.1627 111.334 79.2043 111.447 79.2035C111.567 79.2028 111.685 79.1552 111.774 79.0616C111.935 78.8901 111.935 78.6263 111.783 78.4509C111.782 78.4489 111.782 78.4466 111.781 78.4445C111.64 78.188 111.464 77.4985 111.25 76.624C111.079 75.9129 110.77 75.4712 110.308 75.2772C110.883 75.0514 111.274 74.6239 111.424 74.0808L112.043 74.0768C112.256 74.0754 112.427 73.901 112.424 73.6873C112.421 73.4736 112.247 73.3015 112.034 73.3029Z" fill="white"/>
<path d="M129.791 73.3029L129.231 73.3065C129.19 72.9811 129.073 72.677 128.891 72.4422L129.781 72.4365C129.994 72.4351 130.164 72.2744 130.162 72.0607C130.159 71.8469 129.985 71.684 129.772 71.6854L126.754 71.7046C126.743 71.7047 126.733 71.7044 126.721 71.7044C126.714 71.7045 126.707 71.7049 126.699 71.705L125.261 71.7141C125.048 71.7155 124.877 71.8807 124.88 72.0944C124.882 72.3081 125.057 72.4666 125.27 72.4653L126.981 72.4544C127.521 72.4903 128.09 72.6963 128.246 73.3127L125.28 73.3317C125.067 73.333 124.897 73.5074 124.899 73.7212C124.902 73.9348 125.076 74.1071 125.29 74.1057L128.217 74.087C128.041 74.5761 127.544 74.8768 126.849 74.8812L126.081 74.8861L126.079 74.8862L125.632 74.889C125.424 74.8903 125.258 75.0604 125.26 75.2687C125.263 75.4772 125.433 75.6451 125.641 75.6437L126.083 75.6409C126.085 75.6411 126.086 75.642 126.088 75.642L126.786 75.6375C127.545 75.6616 127.886 75.9893 128.091 76.8905C128.25 77.5599 128.367 77.9958 128.457 78.2567C128.526 78.4982 128.66 78.8619 128.888 79.0782C128.977 79.1627 129.092 79.2043 129.205 79.2035C129.324 79.2028 129.443 79.1552 129.531 79.0616C129.692 78.8901 129.692 78.6263 129.54 78.4509C129.54 78.4489 129.54 78.4466 129.539 78.4445C129.397 78.188 129.222 77.4985 129.007 76.624C128.836 75.9129 128.528 75.4712 128.066 75.2772C128.64 75.0514 129.032 74.6239 129.181 74.0808L129.8 74.0768C130.013 74.0754 130.184 73.901 130.181 73.6873C130.179 73.4736 130.004 73.3015 129.791 73.3029Z" fill="white"/>
<path d="M107.091 88.4986L106.531 88.5022C106.49 88.1768 106.373 87.8727 106.191 87.6379L107.08 87.6322C107.294 87.6309 107.464 87.4701 107.462 87.2564C107.459 87.0427 107.285 86.8797 107.071 86.8811L104.054 86.9004C104.043 86.9004 104.033 86.9001 104.021 86.9002C104.014 86.9002 104.006 86.9007 103.999 86.9007L102.561 86.9099C102.348 86.9112 102.177 87.0765 102.18 87.2902C102.182 87.5038 102.357 87.6624 102.57 87.661L104.28 87.6501C104.821 87.6861 105.389 87.8921 105.546 88.5085L102.58 88.5274C102.367 88.5288 102.196 88.7031 102.199 88.9169C102.202 89.1306 102.376 89.3028 102.589 89.3014L105.517 89.2828C105.34 89.7718 104.844 90.0726 104.148 90.077L103.381 90.0819L103.379 90.0819L102.932 90.0848C102.724 90.0861 102.557 90.2561 102.56 90.4645C102.562 90.6729 102.733 90.8408 102.941 90.8395L103.383 90.8366C103.385 90.8368 103.386 90.8377 103.388 90.8377L104.086 90.8332C104.845 90.8573 105.186 91.185 105.39 92.0862C105.55 92.7556 105.666 93.1915 105.757 93.4525C105.826 93.694 105.96 94.0577 106.188 94.274C106.277 94.3584 106.391 94.4 106.505 94.3993C106.624 94.3985 106.743 94.351 106.831 94.2573C106.992 94.0858 106.992 93.822 106.84 93.6467C106.839 93.6446 106.84 93.6423 106.838 93.6402C106.697 93.3837 106.521 92.6943 106.307 91.8197C106.136 91.1086 105.827 90.667 105.365 90.4729C105.94 90.2471 106.332 89.8197 106.481 89.2765L107.1 89.2725C107.313 89.2712 107.484 89.0968 107.481 88.8831C107.479 88.6694 107.304 88.4973 107.091 88.4986Z" fill="white"/>
<path fill-rule="evenodd" clip-rule="evenodd" d="M76.7147 74.6142C76.7531 74.4884 76.7824 74.3681 76.8007 74.2479C76.9838 74.2479 77.1668 74.2479 77.348 74.2479C77.509 74.074 77.6701 73.8982 77.8293 73.7243C77.4907 73.7243 77.1558 73.7243 76.8209 73.7243C76.8026 73.4912 76.7403 73.2747 76.6397 73.0786C76.6177 73.0324 76.5921 72.988 76.5628 72.9435C76.2553 72.4829 75.752 72.2313 75.1553 72.2313C74.0278 72.2313 72.9791 72.2313 71.9925 72.2313C71.9614 72.2313 71.9358 72.2572 71.9285 72.2923C71.3867 74.4717 70.7205 76.6493 69.9975 78.825C69.9865 78.8639 69.9994 78.8916 70.0305 78.8916C70.2483 78.8916 70.4642 78.8916 70.6839 78.8916C70.715 78.8916 70.7516 78.8639 70.7608 78.8269C70.9639 78.2163 71.1671 77.6058 71.3648 76.9953C72.0438 76.9953 72.7302 76.9953 73.422 76.9953C73.6069 76.9953 73.7551 77.0859 73.8247 77.2413C74.0333 77.7094 74.2383 78.1775 74.4415 78.6455C74.5092 78.7991 74.6556 78.8916 74.8423 78.8898C75.0583 78.8898 75.2724 78.8898 75.4902 78.8898C75.5195 78.8916 75.5506 78.8509 75.5378 78.825C75.2523 78.1608 74.9613 77.4948 74.6611 76.8287C74.9668 76.7085 75.2724 76.5235 75.5598 76.2811C75.8343 76.0536 76.0796 75.789 76.2754 75.5004C76.4987 75.5004 76.722 75.5022 76.9453 75.5022C77.1064 75.3265 77.2693 75.1507 77.4322 74.9768C77.143 74.9768 76.8575 74.9768 76.5756 74.9768C76.6323 74.8565 76.6763 74.7363 76.7147 74.6142ZM75.1553 75.7057C74.8222 75.9925 74.4543 76.1479 74.1212 76.1479C73.2811 76.1479 72.4519 76.1479 71.632 76.1479C71.9431 75.123 72.2268 74.0999 72.4776 73.0768C73.2774 73.0768 74.1102 73.0786 74.9723 73.0786C75.3182 73.0768 75.6092 73.2359 75.7922 73.5171C75.8288 73.58 75.8654 73.6521 75.8911 73.7243C75.4426 73.7224 75.0015 73.7224 74.5623 73.7243C74.4195 73.8982 74.2767 74.0721 74.134 74.2479C74.7307 74.2479 75.3383 74.2479 75.9551 74.2479C75.9478 74.3663 75.9258 74.4884 75.8892 74.6123C75.8526 74.7381 75.8032 74.8584 75.7428 74.975C75.2303 74.975 74.727 74.975 74.2273 74.975C74.0809 75.1489 73.9308 75.3246 73.7826 75.5004C74.306 75.4985 74.8368 75.4985 75.3713 75.4985C75.3035 75.5725 75.2322 75.6428 75.1553 75.7057Z" fill="white"/>
</svg>
