<svg width="115" height="127" viewBox="0 0 115 127" fill="none" xmlns="http://www.w3.org/2000/svg">
<path fill-rule="evenodd" clip-rule="evenodd" d="M87.7143 9.68162C87.7143 7.64755 86.8805 5.69125 85.3919 4.24945C83.9033 2.80765 81.8898 2 79.7835 2H36.8126C34.7126 2 32.6928 2.80765 31.2042 4.24945C29.7157 5.69125 28.8818 7.64156 28.8818 9.68162V113.186C28.8818 115.22 29.7157 117.176 31.2042 118.618C32.6928 120.06 34.7064 120.868 36.8126 120.868H79.7835C81.8836 120.868 83.9033 120.06 85.3919 118.618C86.8805 117.176 87.7143 115.226 87.7143 113.186V9.68162Z" fill="#001747"/>
<path fill-rule="evenodd" clip-rule="evenodd" d="M85.7741 10.1931V111.454C85.7741 112.89 85.1873 114.266 84.1373 115.277C83.0873 116.294 81.6667 116.862 80.1904 116.862H37.2195C35.7372 116.862 34.3165 116.294 33.2727 115.277C32.2226 114.26 31.6359 112.884 31.6359 111.454V10.1931C31.6359 8.75728 32.2226 7.38129 33.2727 6.37023C34.3227 5.3532 35.7433 4.78485 37.2195 4.78485H80.1904C81.6728 4.78485 83.0935 5.3532 84.1373 6.37023C85.1873 7.38727 85.7741 8.76326 85.7741 10.1931Z" fill="url(#paint0_linear_1_1709)"/>
<path d="M60.0463 38.2199H60.0467C60.1343 38.124 60.2128 38.021 60.2826 37.9126H57.7817L58.2474 37.1398H60.6025C60.6407 36.9666 60.6606 36.7889 60.6606 36.6051C60.6606 36.4213 60.6403 36.2405 60.6016 36.066H57.7815L58.2472 35.2933H60.2799C60.2109 35.1863 60.1332 35.0848 60.0465 34.9903C59.6636 34.5724 59.1639 34.3423 58.6381 34.3423H54.6092V38.8678H58.6381C59.1637 38.8678 59.6638 38.6377 60.0465 38.2201L60.0463 38.2199Z" fill="#0057B7"/>
<path d="M55 45.9998H61C63.3569 45.9998 64.5355 45.9998 65.2678 45.2676C66 44.5353 66 43.3569 66 40.9998V34.9999C66 32.6429 66 31.4643 65.2678 30.7321C64.5355 29.9998 63.3569 30 61 30H55C52.6431 30 51.4645 30 50.7322 30.7322C50 31.4645 50 32.6429 50 35.0001V40.9999C50 43.3569 50 44.5355 50.7322 45.2678C51.4645 46 52.6429 46 55 46V45.9998ZM53.3794 33.1818C53.3794 33.1314 53.4203 33.0905 53.4707 33.0905H58.6763C59.558 33.0905 60.3871 33.4639 61.0108 34.1423C61.0697 34.2064 61.1264 34.2727 61.18 34.3407C61.4081 34.6288 61.5887 34.9495 61.7187 35.2919H63.1981L62.7304 36.0647H61.918C61.944 36.2417 61.9576 36.4217 61.9576 36.6037C61.9576 36.7858 61.9445 36.9628 61.9193 37.1385H63.198L62.7302 37.9112H61.7205C61.5601 38.3361 61.3208 38.7276 61.0106 39.0646C60.6829 39.4211 60.2984 39.6933 59.8796 39.8714L62.3512 42.8168C62.382 42.8535 62.3559 42.9093 62.308 42.9093H61.2686C60.9697 42.9093 60.686 42.7772 60.4939 42.548L58.7566 40.4778C58.5645 40.2486 58.2808 40.1164 57.9819 40.1164H54.6295V42.818C54.6295 42.8685 54.5886 42.9093 54.5382 42.9093H53.4704C53.4199 42.9093 53.3791 42.8685 53.3791 42.818V33.1818H53.3794Z" fill="#0057B7"/>
<rect x="35" y="64" width="47" height="11.2327" rx="2" fill="#0057B7"/>
<path d="M50.9494 68.7296H51.6399L50.8832 71.0943H50.1359L49.6204 69.4863L49.1238 71.0943H48.3765L47.6198 68.7296H48.3103L48.7832 70.541L49.3082 68.7296H49.9514L50.4812 70.541L50.9494 68.7296Z" fill="white"/>
<path d="M52.3681 68.389C52.2326 68.389 52.1317 68.3607 52.0654 68.3039C51.9992 68.244 51.9661 68.1573 51.9661 68.0438C51.9661 67.9271 51.9992 67.8404 52.0654 67.7836C52.1317 67.7237 52.2326 67.6938 52.3681 67.6938C52.5037 67.6938 52.6046 67.7237 52.6708 67.7836C52.737 67.8404 52.7701 67.9271 52.7701 68.0438C52.7701 68.1573 52.737 68.244 52.6708 68.3039C52.6046 68.3607 52.5037 68.389 52.3681 68.389ZM52.6897 68.7296V71.0943H52.0418V68.7296H52.6897Z" fill="white"/>
<path d="M54.2137 68.0059V70.3234C54.2137 70.4369 54.2421 70.5205 54.2989 70.5741C54.3588 70.6245 54.4392 70.6498 54.5401 70.6498C54.6189 70.6498 54.6883 70.6387 54.7482 70.6167C54.8081 70.5914 54.8617 70.5583 54.909 70.5173L55.013 70.9477C54.9374 71.0076 54.8428 71.0549 54.7293 71.0896C54.6157 71.1243 54.4959 71.1416 54.3698 71.1416C54.2122 71.1416 54.0718 71.118 53.9489 71.0707C53.8291 71.0234 53.7345 70.9477 53.6651 70.8437C53.5989 70.7396 53.5658 70.6009 53.5658 70.4275V68.1857L54.2137 68.0059ZM54.9705 68.7296V69.212H53.1307V68.7296H54.9705Z" fill="white"/>
<path d="M55.4458 71.0943V67.6938H56.0937V69.1316C56.1694 68.9802 56.2735 68.8683 56.4059 68.7958C56.5383 68.7201 56.6881 68.6823 56.8552 68.6823C57.0192 68.6823 57.1642 68.7138 57.2903 68.7769C57.4196 68.8399 57.5205 68.9361 57.593 69.0654C57.6687 69.1915 57.7065 69.3507 57.7065 69.543V71.0943H57.0586V69.7322C57.0586 69.5273 57.0192 69.387 56.9403 69.3113C56.8615 69.2325 56.7606 69.1931 56.6376 69.1931C56.5462 69.1931 56.4579 69.2151 56.3728 69.2593C56.2908 69.3003 56.223 69.3696 56.1694 69.4674C56.119 69.562 56.0937 69.6881 56.0937 69.8457V71.0943H55.4458Z" fill="white"/>
<path d="M59.2679 71.1416C59.0724 71.1416 58.8975 71.0928 58.743 70.995C58.5916 70.8973 58.4718 70.757 58.3835 70.5741C58.2984 70.3912 58.2558 70.1721 58.2558 69.9167C58.2558 69.655 58.3015 69.4327 58.393 69.2498C58.4844 69.0638 58.6074 68.9235 58.7619 68.8289C58.9195 68.7311 59.0961 68.6823 59.2916 68.6823C59.4997 68.6823 59.6715 68.7422 59.8071 68.862C59.9427 68.9818 60.031 69.1363 60.072 69.3255L60.0105 69.4012V67.6938H60.6584V71.0943H60.0767L60.0341 70.3754L60.1145 70.4133C60.0925 70.5615 60.042 70.6908 59.9632 70.8011C59.8844 70.9083 59.785 70.9919 59.6652 71.0518C59.5454 71.1117 59.413 71.1416 59.2679 71.1416ZM59.4571 70.645C59.5706 70.645 59.6684 70.6167 59.7503 70.5599C59.8323 70.5 59.8954 70.4133 59.9395 70.2998C59.9868 70.1863 60.0105 70.0507 60.0105 69.893C60.0105 69.7417 59.9884 69.614 59.9443 69.5099C59.9001 69.4027 59.8371 69.3208 59.7551 69.264C59.6731 69.2072 59.5769 69.1789 59.4666 69.1789C59.29 69.1789 59.1513 69.2419 59.0504 69.3681C58.9526 69.491 58.9038 69.6723 58.9038 69.912C58.9038 70.1516 58.9526 70.3345 59.0504 70.4606C59.1481 70.5835 59.2837 70.645 59.4571 70.645Z" fill="white"/>
<path d="M61.3393 71.0943V68.7296H61.9021L61.9446 69.1931C62.0077 69.0291 62.0991 68.903 62.219 68.8147C62.3419 68.7264 62.4948 68.6823 62.6777 68.6823C62.7313 68.6823 62.7802 68.687 62.8243 68.6965C62.8685 68.7059 62.9047 68.7185 62.9331 68.7343L62.8574 69.2782C62.8259 69.2656 62.7865 69.2561 62.7392 69.2498C62.6951 69.2435 62.6367 69.2404 62.5642 69.2404C62.4696 69.2404 62.3782 69.264 62.2899 69.3113C62.2016 69.3554 62.1291 69.4248 62.0723 69.5194C62.0156 69.6108 61.9872 69.7275 61.9872 69.8694V71.0943H61.3393Z" fill="white"/>
<path d="M64.6409 69.5856C64.6409 69.45 64.6015 69.3444 64.5227 69.2687C64.447 69.1931 64.3461 69.1552 64.22 69.1552C64.1033 69.1552 64.0008 69.1852 63.9125 69.2451C63.8243 69.305 63.7596 69.4043 63.7186 69.543L63.1653 69.3728C63.2189 69.1647 63.3355 68.9976 63.5153 68.8714C63.6981 68.7453 63.9425 68.6823 64.2483 68.6823C64.4564 68.6823 64.6377 68.7154 64.7922 68.7816C64.9467 68.8446 65.0666 68.9408 65.1517 69.0701C65.24 69.1994 65.2841 69.3617 65.2841 69.5572V70.5173C65.2841 70.6371 65.3409 70.6971 65.4544 70.6971C65.508 70.6971 65.5584 70.6892 65.6057 70.6734L65.5679 71.0754C65.4859 71.1164 65.3834 71.1369 65.2605 71.1369C65.1501 71.1369 65.0508 71.118 64.9625 71.0802C64.8742 71.0423 64.8049 70.9856 64.7544 70.9099C64.704 70.8311 64.6787 70.7333 64.6787 70.6167V70.5977L64.7922 70.5788C64.7733 70.6986 64.7213 70.8011 64.6362 70.8862C64.551 70.9682 64.447 71.0313 64.324 71.0754C64.2042 71.1196 64.0797 71.1416 63.9504 71.1416C63.7896 71.1416 63.6508 71.118 63.5342 71.0707C63.4175 71.0202 63.3277 70.9477 63.2646 70.8531C63.2015 70.7585 63.17 70.6419 63.17 70.5031C63.17 70.3266 63.2268 70.1831 63.3403 70.0728C63.4538 69.9592 63.6162 69.882 63.8274 69.841L64.7166 69.6613L64.7118 70.0633L64.1443 70.1768C64.0371 70.1989 63.9551 70.2288 63.8984 70.2667C63.8448 70.3014 63.818 70.3597 63.818 70.4417C63.818 70.5205 63.8463 70.5804 63.9031 70.6214C63.963 70.6624 64.0339 70.6829 64.1159 70.6829C64.1821 70.6829 64.2468 70.675 64.3098 70.6592C64.3729 70.6435 64.4296 70.6182 64.4801 70.5835C64.5305 70.5489 64.57 70.5016 64.5983 70.4417C64.6267 70.3818 64.6409 70.3092 64.6409 70.2241V69.5856Z" fill="white"/>
<path d="M68.9854 68.7296H69.676L68.9192 71.0943H68.172L67.6564 69.4863L67.1598 71.0943H66.4126L65.6558 68.7296H66.3463L66.8193 70.541L67.3443 68.7296H67.9875L68.5172 70.541L68.9854 68.7296Z" fill="white"/>
<path fill-rule="evenodd" clip-rule="evenodd" d="M46.3377 4.79101C47.5298 4.79101 48.4995 5.73028 48.4995 6.88491V7.3695C48.4995 8.14724 48.8207 8.90104 49.389 9.45144C49.9572 10.0018 50.7293 10.3129 51.5385 10.3129H65.7447C66.5477 10.3129 67.326 10.0018 67.8942 9.45144C68.4625 8.90104 68.7836 8.15322 68.7836 7.3695V6.88491C68.7836 5.73028 69.7534 4.79101 70.9455 4.79101H71.2728V2.20056H46.0042V4.79101H46.3315H46.3377Z" fill="#001747"/>
<path fill-rule="evenodd" clip-rule="evenodd" d="M35.6551 112.099H22.2922V102.014H34.2466L34.9203 104.889L35.6551 112.099Z" fill="#0C7057"/>
<path fill-rule="evenodd" clip-rule="evenodd" d="M74.8437 125.269L19.4398 124.072V111.693L74.8437 110.101V125.269Z" fill="#0C7057"/>
<path fill-rule="evenodd" clip-rule="evenodd" d="M54.4275 118.441H31.0056C30.9511 118.441 30.9067 118.397 30.9067 118.342C30.9067 118.288 30.9511 118.243 31.0056 118.243H54.4275C54.4822 118.243 54.5264 118.288 54.5264 118.342C54.5264 118.397 54.4822 118.441 54.4275 118.441Z" fill="#21211D"/>
<path fill-rule="evenodd" clip-rule="evenodd" d="M77.2409 117.713C77.2409 121.724 76.2515 125.015 74.9996 125.269C74.9476 125.28 74.8954 125.286 74.8433 125.286C74.7912 125.286 74.739 125.28 74.6869 125.269C73.4955 125.027 72.5416 122.029 72.454 118.279C72.4484 118.092 72.4466 117.904 72.4466 117.713C72.4466 113.537 73.5105 110.117 74.834 110.117C76.0775 110.117 77.1088 113.135 77.2298 116.963C77.2372 117.21 77.2409 117.46 77.2409 117.713Z" fill="#21211D"/>
<path fill-rule="evenodd" clip-rule="evenodd" d="M85.4566 108.678V125.269H74.6868C73.4955 125.027 72.5415 122.029 72.454 118.279C73.6007 118.095 75.1736 118.002 77.2297 116.963C77.3479 116.904 77.468 116.84 77.5889 116.774C78.7021 116.167 79.6645 115.239 80.3822 114.091C80.5748 113.782 80.7647 113.491 80.9517 113.215C82.3972 111.076 83.6222 109.915 84.4282 109.305C85.0798 108.812 85.4566 108.678 85.4566 108.678Z" fill="#003D80"/>
<path fill-rule="evenodd" clip-rule="evenodd" d="M85.4567 108.678V125.269H84.4283V109.305C85.0799 108.812 85.4567 108.678 85.4567 108.678Z" fill="#E5EEF8"/>
<path fill-rule="evenodd" clip-rule="evenodd" d="M78.1724 118.283C78.1338 118.283 78.0977 118.259 78.0844 118.22L77.557 116.691C77.5403 116.642 77.566 116.589 77.6146 116.573C77.6633 116.556 77.7163 116.582 77.7329 116.63L78.2604 118.159C78.2772 118.208 78.2514 118.261 78.2027 118.278C78.1927 118.281 78.1825 118.283 78.1724 118.283Z" fill="#21211D"/>
<path fill-rule="evenodd" clip-rule="evenodd" d="M79.3479 117.752C79.3099 117.752 79.2742 117.728 79.2604 117.69L78.6308 115.961C78.6131 115.913 78.638 115.86 78.6863 115.842C78.7342 115.825 78.788 115.849 78.8056 115.898L79.4353 117.627C79.453 117.675 79.428 117.728 79.3797 117.746C79.3693 117.75 79.3585 117.752 79.3479 117.752Z" fill="#21211D"/>
<path fill-rule="evenodd" clip-rule="evenodd" d="M80.4362 116.781C80.3993 116.781 80.3643 116.759 80.3498 116.723L79.6626 115.001C79.6437 114.953 79.6669 114.899 79.7146 114.88C79.7621 114.861 79.8166 114.884 79.8356 114.932L80.5227 116.654C80.5417 116.702 80.5184 116.756 80.4707 116.775C80.4594 116.779 80.4477 116.781 80.4362 116.781Z" fill="#21211D"/>
<path fill-rule="evenodd" clip-rule="evenodd" d="M80.8661 125.293C80.864 125.293 80.8618 125.293 80.8596 125.293C80.8084 125.289 80.7696 125.245 80.7732 125.194C80.9742 122.279 84.3781 121.421 84.4125 121.413C84.4626 121.401 84.5126 121.432 84.5248 121.482C84.5369 121.532 84.5062 121.582 84.4564 121.594C84.4233 121.602 81.1505 122.429 80.9589 125.206C80.9555 125.256 80.9146 125.293 80.8661 125.293Z" fill="#21211D"/>
<path fill-rule="evenodd" clip-rule="evenodd" d="M84.356 119.149C83.8442 119.149 83.3498 118.939 82.9945 118.569C82.6312 118.192 82.44 117.675 82.4699 117.152L82.6162 114.593C82.6407 114.167 82.4236 113.773 82.0499 113.566C81.6769 113.359 81.2288 113.384 80.8809 113.63C80.8673 113.639 80.8539 113.649 80.8403 113.659C80.7987 113.689 80.7405 113.68 80.7102 113.639C80.6798 113.597 80.6889 113.539 80.7303 113.509C80.7447 113.498 80.7591 113.488 80.7734 113.478C81.1803 113.19 81.704 113.161 82.1402 113.403C82.577 113.645 82.8306 114.105 82.8021 114.604L82.6557 117.163C82.6283 117.641 82.7963 118.095 83.1286 118.44C83.4609 118.786 83.9113 118.971 84.3871 118.962C84.4362 118.961 84.481 119.002 84.4819 119.053C84.4829 119.105 84.442 119.147 84.3907 119.148C84.3791 119.148 84.3675 119.149 84.356 119.149Z" fill="#21211D"/>
<path fill-rule="evenodd" clip-rule="evenodd" d="M76.1264 109.498C76.0926 109.498 76.0582 109.5 76.023 109.505C75.8127 109.533 75.6655 109.635 75.5732 109.816C75.2737 110.403 75.555 111.781 76.3866 113.801C76.8385 114.899 77.3423 115.912 77.5979 116.411C77.6191 115.874 77.6461 114.81 77.5911 113.681C77.4886 111.576 77.1525 110.201 76.6191 109.705C76.4694 109.566 76.3074 109.498 76.1264 109.498ZM77.6795 116.88C77.6436 116.88 77.6098 116.86 77.5924 116.828C77.5849 116.814 76.8426 115.428 76.2038 113.876C75.3373 111.772 75.0659 110.375 75.397 109.726C75.5192 109.487 75.721 109.346 75.9965 109.309C76.2784 109.271 76.5332 109.355 76.7537 109.56C78.1243 110.834 77.7929 116.545 77.7781 116.787C77.7754 116.831 77.7438 116.868 77.7006 116.878C77.6936 116.879 77.6864 116.88 77.6795 116.88Z" fill="#21211D"/>
<path fill-rule="evenodd" clip-rule="evenodd" d="M79.1391 110.773C78.9986 110.773 78.87 110.818 78.7505 110.909C78.2636 111.28 77.9382 112.399 77.8094 114.145C77.7399 115.088 77.7462 115.981 77.7562 116.43C78.352 115.546 80.2825 112.539 79.8675 111.285C79.7892 111.049 79.6314 110.895 79.3851 110.815C79.2991 110.787 79.2172 110.773 79.1391 110.773ZM77.6665 116.835C77.6573 116.835 77.6479 116.833 77.6386 116.831C77.5981 116.819 77.5697 116.782 77.5678 116.74C77.5585 116.536 77.3563 111.723 78.6305 110.752C78.8688 110.57 79.1431 110.528 79.4462 110.627C79.7522 110.726 79.9571 110.927 80.0552 111.223C80.5733 112.788 77.8628 116.63 77.7471 116.793C77.7283 116.82 77.698 116.835 77.6665 116.835Z" fill="#21211D"/>
<path fill-rule="evenodd" clip-rule="evenodd" d="M70.5318 112.504L63.7555 126.074L44.2733 114.337C43.6487 113.961 42.874 113.935 42.2253 114.267L25.4822 122.853C22.2903 124.545 18.5404 124.451 15.4337 122.598C12.3042 120.731 10.4354 117.441 10.4354 113.796V113.31V101.399L24.7552 102.014L23.4985 109.958L33.0762 105.046L37.2942 102.883C41.0835 100.941 45.5577 100.857 49.417 102.657L70.5318 112.504Z" fill="#2C9E82"/>
<path fill-rule="evenodd" clip-rule="evenodd" d="M71.1482 114.323C71.1286 114.875 71.0282 115.523 70.8531 116.237C70.5497 117.475 70.0183 118.909 69.2867 120.373C69.0345 120.88 68.7701 121.363 68.5002 121.821C68.1205 122.462 67.7286 123.052 67.3377 123.576C65.9434 125.44 64.5547 126.474 63.7552 126.074C62.8673 125.63 62.9603 123.54 63.8511 120.946C64.0437 120.383 64.2755 119.795 64.5427 119.197C64.6841 118.877 64.8368 118.555 64.9987 118.23C65.6875 116.852 66.459 115.631 67.2186 114.669C67.6542 114.117 68.086 113.65 68.4955 113.288C69.3091 112.566 70.0341 112.255 70.5311 112.504C70.9835 112.73 71.1808 113.388 71.1482 114.323Z" fill="#21211D"/>
<path fill-rule="evenodd" clip-rule="evenodd" d="M84.149 112.323L74.9047 126.101L74.0503 125.53L68.7998 122.019L68.5002 121.821L64.5426 119.197C64.6841 118.877 64.8367 118.555 64.9987 118.23C65.6874 116.852 66.459 115.631 67.2186 114.669C67.6541 114.117 68.086 113.65 68.4955 113.288C69.1917 113.624 70.0303 114.028 71.1482 114.323C71.3827 114.385 71.6303 114.442 71.8919 114.492C72.1478 114.541 72.4177 114.585 72.7016 114.62C72.8328 114.637 72.9678 114.65 73.1046 114.663C74.3677 114.78 75.6837 114.545 76.9198 113.991C77.2521 113.842 77.5714 113.706 77.8804 113.582C80.2724 112.61 81.9366 112.328 82.9465 112.271C83.7609 112.225 84.149 112.323 84.149 112.323Z" fill="#0057B7"/>
<path fill-rule="evenodd" clip-rule="evenodd" d="M70.6738 107.773C70.6061 107.773 70.5372 107.784 70.467 107.805C70.2636 107.866 70.1341 107.989 70.0709 108.182C69.8663 108.809 70.3582 110.126 71.4936 111.992C72.1104 113.006 72.7655 113.93 73.0955 114.382C73.033 113.848 72.8945 112.794 72.6648 111.687C72.2365 109.623 71.6909 108.317 71.087 107.91C70.9512 107.819 70.8147 107.773 70.6738 107.773ZM73.2336 114.834C73.2033 114.834 73.1739 114.82 73.1548 114.795C73.1453 114.783 72.1967 113.529 71.3246 112.095C70.1417 110.151 69.6567 108.814 69.8829 108.121C69.9665 107.865 70.144 107.695 70.4103 107.615C70.6829 107.534 70.9477 107.578 71.1974 107.746C72.7493 108.791 73.309 114.484 73.332 114.726C73.3362 114.77 73.3107 114.811 73.2695 114.827C73.2577 114.832 73.2456 114.834 73.2336 114.834Z" fill="#21211D"/>
<path fill-rule="evenodd" clip-rule="evenodd" d="M73.8521 108.565C73.6656 108.565 73.51 108.632 73.3794 108.768C72.9561 109.21 72.8085 110.366 72.9525 112.111C73.0302 113.053 73.1753 113.935 73.2549 114.377C73.7061 113.411 75.1461 110.14 74.5413 108.966C74.4273 108.745 74.2474 108.617 73.9917 108.576C73.9433 108.569 73.8968 108.565 73.8521 108.565ZM73.2138 114.792C73.2095 114.792 73.2053 114.791 73.201 114.791C73.1591 114.785 73.1254 114.754 73.1169 114.712C73.0761 114.512 72.1286 109.788 73.2366 108.632C73.4438 108.415 73.7083 108.331 74.0228 108.381C74.3406 108.432 74.5743 108.598 74.7172 108.876C75.472 110.341 73.3913 114.558 73.3023 114.737C73.2854 114.771 73.251 114.792 73.2138 114.792Z" fill="#21211D"/>
<path fill-rule="evenodd" clip-rule="evenodd" d="M84.1491 112.323L74.9047 126.101L74.0503 125.53L82.9466 112.271C83.761 112.225 84.1491 112.323 84.1491 112.323Z" fill="#E5EEF8"/>
<path fill-rule="evenodd" clip-rule="evenodd" d="M72.8009 116.257C72.793 116.257 72.7851 116.256 72.777 116.254C72.7274 116.241 72.6978 116.19 72.7108 116.14L73.125 114.576C73.1382 114.526 73.1893 114.497 73.2387 114.51C73.2884 114.523 73.3181 114.574 73.3049 114.624L72.8909 116.187C72.8798 116.229 72.8421 116.257 72.8009 116.257Z" fill="#21211D"/>
<path fill-rule="evenodd" clip-rule="evenodd" d="M74.0729 116.471C74.0656 116.471 74.0581 116.47 74.0506 116.468C74.0007 116.456 73.9702 116.405 73.9824 116.355L74.4229 114.569C74.4352 114.519 74.4857 114.488 74.5356 114.501C74.5855 114.513 74.616 114.563 74.6037 114.613L74.1633 116.4C74.1528 116.442 74.1148 116.471 74.0729 116.471Z" fill="#21211D"/>
<path fill-rule="evenodd" clip-rule="evenodd" d="M75.5174 116.271C75.5109 116.271 75.5044 116.271 75.4978 116.269C75.4475 116.259 75.4155 116.209 75.4263 116.159L75.8152 114.346C75.8259 114.296 75.8746 114.264 75.9257 114.275C75.9759 114.285 76.0079 114.335 75.9972 114.385L75.6083 116.198C75.5989 116.242 75.5603 116.271 75.5174 116.271Z" fill="#21211D"/>
<path fill-rule="evenodd" clip-rule="evenodd" d="M71.1516 123.685C71.1324 123.685 71.1129 123.679 71.0963 123.666C71.055 123.636 71.0463 123.578 71.0769 123.536C72.8168 121.189 76.1465 122.301 76.1798 122.313C76.2284 122.329 76.2542 122.382 76.2375 122.431C76.2207 122.479 76.1677 122.505 76.1192 122.489C76.0871 122.478 72.8846 121.411 71.2265 123.647C71.2082 123.672 71.1801 123.685 71.1516 123.685Z" fill="#21211D"/>
<path fill-rule="evenodd" clip-rule="evenodd" d="M77.5011 120.452C77.4845 120.452 77.4677 120.447 77.4525 120.438C77.0059 120.164 76.6909 119.712 76.5883 119.198C76.4857 118.684 76.603 118.146 76.9102 117.721L78.4121 115.645C78.6624 115.299 78.6918 114.85 78.4887 114.474C78.2858 114.099 77.8936 113.878 77.4695 113.898C77.453 113.899 77.4363 113.9 77.4194 113.901C77.3686 113.903 77.3239 113.865 77.3208 113.813C77.3178 113.762 77.3567 113.718 77.408 113.715C77.4259 113.714 77.4435 113.713 77.4609 113.712C77.9585 113.688 78.4153 113.947 78.6525 114.386C78.8899 114.825 78.8555 115.349 78.5629 115.754L77.061 117.83C76.7801 118.219 76.677 118.692 76.7708 119.162C76.8647 119.632 77.1414 120.029 77.5498 120.279C77.5937 120.306 77.6074 120.364 77.5804 120.407C77.5629 120.436 77.5323 120.452 77.5011 120.452Z" fill="#21211D"/>
<path fill-rule="evenodd" clip-rule="evenodd" d="M64.9987 118.329C64.9821 118.329 64.9653 118.325 64.9498 118.316L47.2806 108.253C45.394 107.179 43.1518 107.015 41.1291 107.805L21.3163 115.799C20.0123 116.325 18.5843 116.107 17.4967 115.215C16.4091 114.324 15.9149 112.967 16.1747 111.585L17.6562 103.704C17.6663 103.65 17.7178 103.615 17.7716 103.625C17.8254 103.635 17.8607 103.687 17.8506 103.74L16.3691 111.621C16.1228 112.931 16.5913 114.218 17.6221 115.062C18.6529 115.907 20.0063 116.114 21.2423 115.615L41.0562 107.621C43.1357 106.809 45.4398 106.977 47.3785 108.082L65.0477 118.144C65.0952 118.171 65.1117 118.231 65.0847 118.279C65.0665 118.311 65.033 118.329 64.9987 118.329Z" fill="#21211D"/>
<path fill-rule="evenodd" clip-rule="evenodd" d="M24.536 108.397C24.4961 108.397 24.4586 108.373 24.4436 108.333C24.4241 108.282 24.4497 108.225 24.5007 108.206L33.6194 104.734C33.6707 104.714 33.7276 104.74 33.747 104.791C33.7664 104.842 33.7408 104.899 33.6898 104.919L24.5712 108.39C24.5595 108.395 24.5476 108.397 24.536 108.397Z" fill="#21211D"/>
<path fill-rule="evenodd" clip-rule="evenodd" d="M8.54669 91.2509L6.53505 90.2443C6.07864 90.0159 5.52321 90.1894 5.2779 90.637L3.28946 94.266C3.03792 94.7251 3.20562 95.3013 3.66439 95.5537L5.63891 96.6398L8.54669 91.2509Z" fill="#F5C245"/>
<path fill-rule="evenodd" clip-rule="evenodd" d="M13.1185 84.7286C12.895 83.5285 13.57 82.3925 14.6231 82.1964C15.1377 82.1005 15.6632 82.2401 16.1024 82.5896C16.5341 82.9333 16.8311 83.4403 16.9385 84.0172L16.5977 84.0806C16.5055 83.5858 16.2529 83.1526 15.8865 82.8609C15.5272 82.5749 15.1009 82.4599 14.6866 82.5372C13.8214 82.6984 13.2708 83.6529 13.4593 84.6652L13.1185 84.7286Z" fill="#F5C245"/>
<path fill-rule="evenodd" clip-rule="evenodd" d="M17.4731 83.9338C14.6355 82.6997 11.3232 83.7778 9.75573 86.4457L3.61025 96.9054C3.06037 97.8412 3.41507 99.0485 4.38592 99.5339C5.92328 100.303 8.43758 101.169 11.6633 100.908C12.0018 100.881 12.2945 100.662 12.4098 100.342L17.9389 85.0139C18.0927 84.5873 17.8889 84.1146 17.4731 83.9338Z" fill="#F5C245"/>
<path fill-rule="evenodd" clip-rule="evenodd" d="M7.70653 98.7837C7.69386 98.7837 7.68105 98.7812 7.66872 98.7756L3.60024 96.9624C3.5533 96.9415 3.53218 96.8864 3.55316 96.8395C3.57393 96.7925 3.6289 96.7714 3.67599 96.7923L7.74447 98.6056C7.79148 98.6266 7.81253 98.6816 7.79162 98.7285C7.77618 98.7632 7.74218 98.7837 7.70653 98.7837Z" fill="#21211D"/>
<path fill-rule="evenodd" clip-rule="evenodd" d="M8.54661 91.344C8.53415 91.344 8.52161 91.3415 8.50943 91.3362C8.46235 91.3156 8.44081 91.2608 8.46138 91.2137C10.5992 86.3164 12.4835 84.7315 13.6878 84.2641C14.5237 83.9397 15.0241 84.1544 15.0449 84.1636C15.0919 84.1845 15.1131 84.2396 15.0921 84.2865C15.0712 84.3334 15.0164 84.3545 14.9697 84.3339C14.9593 84.3295 14.2677 84.047 13.1545 84.7432C12.1095 85.3967 10.4766 87.0627 8.63198 91.2881C8.61675 91.3232 8.58254 91.344 8.54661 91.344Z" fill="#21211D"/>
<path fill-rule="evenodd" clip-rule="evenodd" d="M8.95339 91.6494C8.93919 91.6494 8.92486 91.6461 8.91136 91.6393L7.90699 91.1299C7.86116 91.1066 7.84281 91.0506 7.86608 91.0048C7.88934 90.9589 7.94542 90.9407 7.99126 90.9639L8.99555 91.4733C9.04139 91.4965 9.05973 91.5525 9.03647 91.5984C9.02006 91.6308 8.98731 91.6494 8.95339 91.6494Z" fill="#21211D"/>
<path fill-rule="evenodd" clip-rule="evenodd" d="M6.52665 92.0344C6.51225 92.0344 6.49771 92.031 6.48407 92.024L4.98264 91.2499C4.93695 91.2264 4.91902 91.1702 4.94263 91.1245C4.96617 91.0788 5.02232 91.061 5.06802 91.0844L6.56937 91.8586C6.61507 91.8821 6.633 91.9383 6.60946 91.9839C6.59291 92.016 6.56037 92.0344 6.52665 92.0344Z" fill="#21211D"/>
<path fill-rule="evenodd" clip-rule="evenodd" d="M17.9507 86.842L20.0068 86.2285L22.0651 85.6225L24.1248 85.0216C25.8681 84.5132 27.6854 85.3664 28.4384 86.9569L28.4604 87.0049L28.6837 87.4753L28.9159 87.9582L29.3883 88.9257C29.7051 89.5708 30.0231 90.2159 30.3472 90.8566C30.6709 91.4974 30.9986 92.1351 31.3308 92.768C31.6635 93.4005 31.995 94.0313 32.3344 94.6532C33.0103 95.8969 33.7139 97.1161 34.4284 98.2567C34.5517 98.4526 34.8003 98.8354 34.8003 98.8354C34.8003 98.8354 34.8942 98.6371 35.0819 98.2405C35.4541 97.4188 35.7313 96.7953 35.9136 96.3701C36.1851 95.7312 36.4471 95.0793 36.7038 94.4209C36.9642 93.7637 37.2174 93.0991 37.4645 92.4299C37.7156 91.7621 37.9598 91.0892 38.2017 90.4153L38.5619 89.4045L38.9129 88.4121L38.9323 88.3572C39.5042 86.7404 41.2787 85.8933 42.8955 86.4652C44.395 86.9957 45.2321 88.5607 44.8894 90.0749L44.8236 90.3674L44.7582 90.6477L44.626 91.2034C44.5347 91.5721 44.4419 91.9393 44.3473 92.3061C44.1561 93.0392 43.9542 93.7692 43.7445 94.4995C43.5307 95.2284 43.3088 95.9571 43.076 96.6869C42.8394 97.4154 42.5904 98.1441 42.3262 98.8763C42.0634 99.6095 41.7762 100.342 41.4626 101.083C41.1466 101.826 40.8092 102.575 40.3926 103.355C40.1825 103.746 39.9543 104.144 39.6797 104.565C39.5418 104.775 39.3921 104.992 39.2198 105.218C39.0473 105.444 38.8526 105.681 38.6086 105.937C38.55 105.999 38.4814 106.066 38.4157 106.131L38.3086 106.232L38.2543 106.282L38.1954 106.334C38.0416 106.471 37.8605 106.617 37.6469 106.764C37.4326 106.912 37.1841 107.064 36.8667 107.209C36.5519 107.353 36.1699 107.488 35.7129 107.565C35.2592 107.644 34.7273 107.653 34.2115 107.558C33.9701 107.514 33.7811 107.462 33.5995 107.404C33.4233 107.346 33.2635 107.283 33.1247 107.221C32.8436 107.095 32.6196 106.968 32.4254 106.846C32.2359 106.726 32.0709 106.609 31.9246 106.496C31.6341 106.273 31.405 106.066 31.1974 105.867C30.9919 105.668 30.8119 105.479 30.6438 105.294C30.3092 104.924 30.0227 104.572 29.7537 104.225C29.2199 103.533 28.7573 102.861 28.3168 102.191C27.8767 101.523 27.4674 100.856 27.0716 100.189C26.6758 99.5225 26.2948 98.8565 25.9224 98.1897C25.1764 96.8575 24.4744 95.5181 23.7928 94.1727C23.4523 93.4999 23.1153 92.8266 22.7863 92.1488L22.2972 91.1286L22.0546 90.6149L21.8083 90.086L26.1439 92.0692L24.0785 92.6503L22.0116 93.226L19.9426 93.7945L17.871 94.3539C15.9601 94.87 13.9927 93.7394 13.4766 91.8285C12.9706 89.9549 14.0536 88.0252 15.8971 87.4643L17.9507 86.842Z" fill="#FFCACA"/>
<path fill-rule="evenodd" clip-rule="evenodd" d="M44.2552 87.2583L41.2398 86.6363L41.7165 84.3247L44.7321 84.9467L44.2552 87.2583Z" fill="#FFCACA"/>
<mask id="mask0_1_1709" style="mask-type:alpha" maskUnits="userSpaceOnUse" x="42" y="83" width="8" height="4">
<path fill-rule="evenodd" clip-rule="evenodd" d="M42.4534 83.1406H49.5429V86.2516H42.4534V83.1406Z" fill="white"/>
</mask>
<g mask="url(#mask0_1_1709)">
<path fill-rule="evenodd" clip-rule="evenodd" d="M42.4536 84.789C42.4536 84.789 49.287 82.3765 49.5368 83.3903C49.7597 84.2953 43.9613 86.2525 43.9613 86.2525L42.4536 84.789Z" fill="#FFCACA"/>
</g>
<path fill-rule="evenodd" clip-rule="evenodd" d="M14.3651 88.2621L9.20761 104.556H31.4483L27.0382 88.2946C26.3589 86.2461 23.079 84.809 20.2774 84.809C17.4923 84.809 15.0601 86.2294 14.3651 88.2621Z" fill="#001747"/>
<path fill-rule="evenodd" clip-rule="evenodd" d="M21.8787 92.0818C21.2553 91.9869 20.6333 91.8834 20.0108 91.7832C19.388 91.6845 18.7672 91.5741 18.1453 91.4702C17.5239 91.3637 16.9016 91.2618 16.2807 91.1515L15.815 91.0698L15.6985 91.0494L15.6694 91.0443C15.6423 91.0394 15.6911 91.0484 15.7188 91.0526C15.78 91.0621 15.8417 91.0688 15.9033 91.0729C16.1523 91.0941 16.4066 91.0792 16.6537 91.0309C16.9009 90.9842 17.1399 90.9029 17.3625 90.7915C17.5858 90.682 17.7935 90.5418 17.979 90.375C18.3518 90.0451 18.6374 89.5992 18.7811 89.1289L18.3747 89.9995C18.3783 89.9923 18.3336 90.0635 18.3074 90.1059L18.2123 90.2619L18.0134 90.6004C17.8797 90.8309 17.7459 91.0714 17.6113 91.3125C17.3431 91.7971 17.0803 92.2976 16.8219 92.803C16.3056 93.8154 15.8086 94.8536 15.3314 95.907C14.3747 98.0137 13.496 100.179 12.6611 102.367C11.8246 104.556 10.4918 108.622 9.75795 110.862C9.01966 113.1 8.32625 115.36 7.67562 117.635L7.67513 117.637C7.18735 119.343 5.40877 120.331 3.70254 119.843C2.03793 119.367 1.05891 117.656 1.46512 115.989C2.04734 113.613 2.67395 111.245 3.3549 108.887C4.04347 106.53 5.33579 102.339 6.14228 100.006C6.54019 98.8374 6.96808 97.6763 7.40704 96.5167C7.8476 95.3576 8.30748 94.2023 8.79305 93.051C9.27771 91.8993 9.78841 90.7524 10.3343 89.6062C10.608 89.0328 10.8891 88.4602 11.1878 87.884C11.3377 87.5951 11.4906 87.3069 11.6529 87.0139C11.733 86.8681 11.817 86.7192 11.9024 86.5694L12.0373 86.3375C12.0888 86.2511 12.1218 86.1936 12.2057 86.0593L11.7994 86.9298C11.9213 86.5453 12.094 86.1721 12.3156 85.8275C12.5382 85.484 12.8056 85.1707 13.1092 84.8991C13.4138 84.629 13.7529 84.4003 14.1167 84.2191C14.4816 84.0393 14.8709 83.9081 15.2725 83.8297C15.6747 83.7524 16.0875 83.7309 16.4938 83.762C16.5946 83.7709 16.6953 83.7825 16.7956 83.7969L16.9326 83.8182L17.0493 83.8375L17.5158 83.9149C18.1381 84.0168 18.7589 84.1271 19.3805 84.2326C20.0017 84.3409 20.6239 84.4427 21.2442 84.5563C21.8647 84.6682 23.3235 84.7768 23.9431 84.8941C25.9219 85.2684 27.2226 87.176 26.8482 89.1548C26.4824 91.0882 23.8082 92.3731 21.8787 92.0818Z" fill="#FFCACA"/>
<path fill-rule="evenodd" clip-rule="evenodd" d="M5.73424 112.732L1.76075 120.164C1.51717 120.62 0.95018 120.792 0.494456 120.548C0.0883764 120.331 -0.0921266 119.857 0.0457951 119.434L2.65149 111.419C2.93869 110.535 3.88759 110.052 4.771 110.339C5.65441 110.627 6.13769 111.576 5.85056 112.459C5.8203 112.552 5.7782 112.648 5.73424 112.732Z" fill="#FFCACA"/>
<path fill-rule="evenodd" clip-rule="evenodd" d="M6.21085 115.38L2.98526 120.943C2.73268 121.378 2.17463 121.527 1.73891 121.274C1.36399 121.057 1.20218 120.613 1.32522 120.216L3.22684 114.073C3.49458 113.208 4.41267 112.724 5.27752 112.992C6.14237 113.259 6.62634 114.177 6.35867 115.042C6.32225 115.16 6.26935 115.277 6.21085 115.38Z" fill="#FFCACA"/>
<path fill-rule="evenodd" clip-rule="evenodd" d="M7.36726 115.924L4.48143 121.613C4.26022 122.05 3.72729 122.224 3.29103 122.003C2.91437 121.812 2.73325 121.388 2.83329 120.995L4.40451 114.811C4.62108 113.959 5.48739 113.444 6.3395 113.66C7.19168 113.877 7.70688 114.743 7.49037 115.595C7.46164 115.709 7.41739 115.823 7.36726 115.924Z" fill="#FFCACA"/>
<path fill-rule="evenodd" clip-rule="evenodd" d="M8.15072 116.636L5.70497 122.038C5.52107 122.444 5.04264 122.625 4.63649 122.441C4.28469 122.281 4.10267 121.901 4.17973 121.538L5.40911 115.737C5.57529 114.953 6.34556 114.452 7.12961 114.618C7.91365 114.784 8.41459 115.555 8.24835 116.339C8.22682 116.441 8.19151 116.545 8.15072 116.636Z" fill="#FFCACA"/>
<path fill-rule="evenodd" clip-rule="evenodd" d="M18.557 89.6536C18.5281 89.7047 18.4973 89.756 18.4648 89.8062L18.5588 89.6052L18.7812 89.1286C18.7254 89.3092 18.65 89.486 18.557 89.6536ZM15.6697 91.0441L15.6819 91.0469C15.6641 91.0432 15.653 91.0413 15.6697 91.0441ZM23.9432 84.8937C23.3234 84.7774 21.8648 84.6685 21.2441 84.5568C20.6241 84.4432 20.0015 84.3408 19.3806 84.2328C18.9321 84.1565 18.4843 84.0774 18.0348 84.002C17.8617 83.9722 17.6885 83.9434 17.5154 83.9145L17.0492 83.8373L16.9328 83.8186L16.7959 83.7972C16.6954 83.7823 16.5949 83.7712 16.4934 83.7619C16.2273 83.7414 15.9583 83.7442 15.6911 83.7693C15.5506 83.7832 15.4109 83.8028 15.2723 83.8298C14.8712 83.908 14.4811 84.0392 14.1163 84.2189C13.7533 84.4004 13.4136 84.6293 13.1092 84.8992C12.8058 85.171 12.5377 85.4838 12.3153 85.8272C12.2018 86.0041 12.1021 86.1874 12.0146 86.3763L11.902 86.569C11.8174 86.7189 11.7327 86.8678 11.6526 87.014C11.4906 87.3071 11.3379 87.5947 11.1881 87.8842C10.8894 88.4603 10.6083 89.0328 10.3346 89.6061C9.78827 90.7528 9.27729 91.8995 8.79325 93.0509C8.30748 94.2022 7.8476 95.3572 7.40739 96.517C6.96807 97.6767 6.5399 98.8373 6.14248 100.005C5.91635 100.661 5.69569 101.316 5.48077 101.973C7.03509 102.416 9.5323 103.153 12.051 103.999C12.2511 103.453 12.4539 102.909 12.6616 102.368C12.9398 101.638 13.2227 100.911 13.5123 100.189C13.6361 99.8789 13.7608 99.5699 13.8874 99.2618C14.3508 98.1309 14.8302 97.0112 15.331 95.9073C15.8084 94.8538 16.3054 93.815 16.8219 92.8033C16.8397 92.7698 16.8564 92.7354 16.8741 92.7018C17.1049 92.2523 17.3249 92.1967 17.5642 91.7639C17.7531 91.7956 17.9421 91.8272 18.1319 91.8598C18.2082 91.8729 18.2845 91.8859 18.3609 91.8989C18.9063 91.991 19.4571 92.0759 20.0035 92.1624C20.6261 92.2629 21.2478 92.3662 21.8714 92.4612C23.8009 92.7525 26.928 91.2297 27.2939 89.2965C27.668 87.3178 25.9221 85.2687 23.9432 84.8937Z" fill="#001747"/>
<path fill-rule="evenodd" clip-rule="evenodd" d="M8.17284 114.112C8.17284 114.112 9.76781 120.933 8.17824 121.188C6.90434 121.393 6.30432 115.537 6.30432 115.537L8.17284 114.112Z" fill="#FFCACA"/>
<path fill-rule="evenodd" clip-rule="evenodd" d="M1.30669 120.672C1.29395 120.672 1.28107 120.67 1.26868 120.664C1.22173 120.643 1.20082 120.588 1.2218 120.541L1.77363 119.309C1.79468 119.263 1.84965 119.242 1.89666 119.263C1.94354 119.284 1.96452 119.339 1.94347 119.386L1.39171 120.617C1.3762 120.652 1.34228 120.672 1.30669 120.672Z" fill="#21211D"/>
<path fill-rule="evenodd" clip-rule="evenodd" d="M2.81284 121.241C2.79989 121.241 2.7868 121.238 2.7742 121.233C2.72754 121.211 2.7069 121.156 2.72823 121.109L3.25215 119.962C3.27341 119.915 3.32845 119.894 3.37546 119.916C3.4222 119.937 3.44283 119.992 3.42144 120.039L2.89758 121.187C2.88194 121.221 2.84822 121.241 2.81284 121.241Z" fill="#21211D"/>
<path fill-rule="evenodd" clip-rule="evenodd" d="M4.19283 122.013C4.18009 122.013 4.16721 122.01 4.15482 122.005C4.10787 121.984 4.08696 121.929 4.10794 121.882L4.65977 120.65C4.68081 120.603 4.73579 120.582 4.7828 120.603C4.82968 120.624 4.85066 120.679 4.82961 120.726L4.27785 121.958C4.26234 121.992 4.22841 122.013 4.19283 122.013Z" fill="#21211D"/>
<path fill-rule="evenodd" clip-rule="evenodd" d="M33.4858 100.974C33.4791 100.98 33.4816 100.974 33.4994 100.957C33.5062 100.951 33.5174 100.941 33.5318 100.929C33.5096 100.953 33.4927 100.969 33.4858 100.974ZM34.7938 98.8228C34.6896 98.6629 34.5317 98.4211 34.4284 98.2568C33.7139 97.1162 33.0103 95.8969 32.3344 94.6533C31.6592 93.4071 30.995 92.1381 30.3472 90.8566C30.0231 90.2159 29.7051 89.5709 29.3883 88.9259L28.9159 87.9583L28.4605 87.0049L28.4391 86.9589C27.6829 85.3724 25.8692 84.5191 24.1248 85.0217C22.7503 85.4178 21.3793 85.8254 20.0068 86.2286L17.9507 86.842L15.8971 87.4644C14.0536 88.0252 12.9706 89.9549 13.4766 91.8286C13.9927 93.7394 15.9601 94.8701 17.8709 94.354L19.9426 93.7945L22.0116 93.2261C22.394 93.1193 22.7765 93.0129 23.1592 92.9065C23.3686 93.3292 23.5795 93.7513 23.7928 94.1728C24.4744 95.5181 25.1763 96.8575 25.9224 98.1897C26.2948 98.8565 26.6759 99.5226 27.0715 100.189C27.4674 100.856 27.8766 101.523 28.3168 102.191C28.7573 102.861 29.2199 103.533 29.7537 104.225C30.0226 104.572 30.3092 104.925 30.6438 105.294C30.8119 105.479 30.9919 105.669 31.1973 105.867C31.405 106.066 31.6341 106.273 31.9246 106.496L34.7938 98.8228Z" fill="#001747"/>
<path fill-rule="evenodd" clip-rule="evenodd" d="M6.97639 119.524C6.96608 119.524 6.95555 119.523 6.94531 119.519C6.89691 119.502 6.8715 119.449 6.8886 119.4L7.40048 117.955C7.41765 117.907 7.47103 117.881 7.51936 117.898C7.56775 117.915 7.5931 117.969 7.57599 118.017L7.06419 119.462C7.05062 119.501 7.01475 119.524 6.97639 119.524Z" fill="#21211D"/>
<path fill-rule="evenodd" clip-rule="evenodd" d="M42.5399 81.7848L43.3233 90.4631C43.3418 90.668 43.5136 90.825 43.7194 90.825H46.8152C47.0256 90.825 47.1996 90.6611 47.2122 90.4512L47.732 81.7848H42.5399Z" fill="#0057B7"/>
<mask id="mask1_1_1709" style="mask-type:alpha" maskUnits="userSpaceOnUse" x="42" y="81" width="6" height="10">
<path fill-rule="evenodd" clip-rule="evenodd" d="M47.7319 81.7865L47.2121 90.4529C47.1996 90.6629 47.0256 90.8267 46.8152 90.8267H43.7193C43.5136 90.8267 43.3418 90.6697 43.3232 90.4648L42.5398 81.7865H47.7319Z" fill="#5EA6F5" fill-opacity="0.37"/>
</mask>
<g mask="url(#mask1_1_1709)">
<path fill-rule="evenodd" clip-rule="evenodd" d="M40.1874 81.9615L43.109 81.4047L45.4531 89.4268L42.9203 90.0772L40.1874 81.9615Z" fill="#5EA6F5"/>
</g>
<path fill-rule="evenodd" clip-rule="evenodd" d="M47.5649 82.183H42.7452C42.5275 82.183 42.351 82.0066 42.351 81.7889C42.351 81.5713 42.5275 81.3948 42.7452 81.3948H47.5649C47.7826 81.3948 47.959 81.5713 47.959 81.7889C47.959 82.0066 47.7826 82.183 47.5649 82.183Z" fill="#EDE8D6"/>
<mask id="mask2_1_1709" style="mask-type:alpha" maskUnits="userSpaceOnUse" x="43" y="80" width="5" height="2">
<path fill-rule="evenodd" clip-rule="evenodd" d="M43.208 80.8698H47.1923V81.4965H43.208V80.8698Z" fill="white"/>
</mask>
<g mask="url(#mask2_1_1709)">
<path fill-rule="evenodd" clip-rule="evenodd" d="M46.9214 80.8698H43.4789C43.3293 80.8698 43.208 80.9911 43.208 81.1407V81.4965H47.1923V81.1407C47.1923 80.9911 47.071 80.8698 46.9214 80.8698Z" fill="#EDE8D6"/>
</g>
<path fill-rule="evenodd" clip-rule="evenodd" d="M47.1922 81.5058H43.2079C43.1565 81.5058 43.1148 81.4641 43.1148 81.4128C43.1148 81.3613 43.1565 81.3197 43.2079 81.3197H47.1922C47.2436 81.3197 47.2853 81.3613 47.2853 81.4128C47.2853 81.4641 47.2436 81.5058 47.1922 81.5058Z" fill="#21211D"/>
<path fill-rule="evenodd" clip-rule="evenodd" d="M41.993 86.0986C41.993 86.0986 43.3605 87.5418 43.2299 89.8094L39.0952 87.9615C39.0952 87.9615 39.8079 85.9959 40.5919 84.2286C40.7966 83.7671 41.2083 83.4302 41.7002 83.3169L43.7842 82.8371C44.0602 82.7735 44.336 82.9714 44.3468 83.2544C44.3647 83.7257 44.0713 84.4119 42.4438 84.8256L41.993 86.0986Z" fill="#FFCACA"/>
<path fill-rule="evenodd" clip-rule="evenodd" d="M43.0109 89.9726C43.0006 89.9726 42.99 89.9709 42.9797 89.9672C42.9313 89.95 42.9059 89.8968 42.9232 89.8484C43.5599 88.0567 41.8516 86.5275 41.8343 86.5123C41.8052 86.4867 41.7949 86.4458 41.8086 86.4095L42.1116 85.604C42.2343 85.2775 42.4002 84.9181 42.6989 84.728C42.7024 84.7258 42.7061 84.7238 42.7098 84.7221L43.3943 84.4061C43.4409 84.3845 43.4962 84.4048 43.5178 84.4515C43.5393 84.4981 43.519 84.5535 43.4723 84.575L42.7938 84.8884C42.5443 85.0501 42.397 85.3738 42.2857 85.6695L42.0047 86.4169C42.2881 86.6895 43.715 88.1762 43.0986 89.9107C43.085 89.9488 43.0492 89.9726 43.0109 89.9726Z" fill="#21211D"/>
<path fill-rule="evenodd" clip-rule="evenodd" d="M17.923 84.0019C17.923 84.0019 19.7457 89.0453 22.9146 89.1285C26.0836 89.2117 25.7228 84.9243 25.7228 84.9243L17.923 84.0019Z" fill="#FFCACA"/>
<path fill-rule="evenodd" clip-rule="evenodd" d="M49.0926 86.05C48.6674 87.325 45.2771 85.9464 45.4091 85.2858C45.5633 84.5138 49.5572 84.657 49.0926 86.05Z" fill="#FFCACA"/>
<path fill-rule="evenodd" clip-rule="evenodd" d="M47.7722 86.6391C47.769 86.6391 47.7658 86.639 47.7626 86.6386C46.8633 86.547 45.6949 86.0296 45.3585 85.574C45.2755 85.4617 45.2435 85.3548 45.2632 85.2564C45.2855 85.1446 45.3642 85.0471 45.4971 84.9667C45.9932 84.6666 47.2546 84.631 48.1434 84.892C48.1927 84.9065 48.221 84.9582 48.2065 85.0075C48.192 85.0568 48.1402 85.0849 48.091 85.0705C47.2582 84.8261 46.0446 84.8531 45.5934 85.126C45.5071 85.1782 45.4574 85.2344 45.4457 85.2929C45.4345 85.3487 45.4736 85.4164 45.5083 85.4634C45.7826 85.8349 46.8578 86.3593 47.7815 86.4534C47.8326 86.4587 47.8699 86.5043 47.8646 86.5555C47.8598 86.6034 47.8193 86.6391 47.7722 86.6391Z" fill="#21211D"/>
<path fill-rule="evenodd" clip-rule="evenodd" d="M48.7511 87.3205C48.3259 88.5955 44.9582 87.0508 45.0676 86.5564C45.2391 85.781 49.2156 85.9276 48.7511 87.3205Z" fill="#FFCACA"/>
<path fill-rule="evenodd" clip-rule="evenodd" d="M47.5366 87.8816C47.5334 87.8816 47.5302 87.8814 47.527 87.8811C46.5413 87.7809 45.2872 87.17 44.9899 86.7587C44.9292 86.6747 44.9064 86.5961 44.9221 86.525C44.958 86.363 45.1088 86.2332 45.3703 86.1393C46.1794 85.8486 47.8149 85.9558 48.4994 86.4908C48.5399 86.5226 48.5471 86.581 48.5154 86.6215C48.4838 86.662 48.4253 86.6692 48.3847 86.6376C47.8553 86.2237 46.3289 85.9927 45.4332 86.3144C45.2414 86.3833 45.1244 86.4724 45.1039 86.5652C45.1033 86.5678 45.0994 86.5924 45.1407 86.6496C45.3821 86.9835 46.5807 87.5978 47.5458 87.6959C47.597 87.7011 47.6342 87.7468 47.6291 87.7979C47.6241 87.8458 47.5837 87.8816 47.5366 87.8816Z" fill="#21211D"/>
<path fill-rule="evenodd" clip-rule="evenodd" d="M48.4006 88.5889C47.9754 89.8639 44.5823 88.5112 44.7171 87.8248C44.8495 87.1506 48.8651 87.196 48.4006 88.5889Z" fill="#FFCACA"/>
<path fill-rule="evenodd" clip-rule="evenodd" d="M46.2406 89.0079C46.2315 89.0079 46.2221 89.0065 46.213 89.0036C45.3544 88.7365 44.4873 88.2223 44.571 87.7957C44.5978 87.6591 44.7258 87.5471 44.9515 87.4628C45.6806 87.1903 47.4458 87.2268 48.1619 87.7844C48.2025 87.8159 48.2097 87.8745 48.1781 87.915C48.1465 87.9556 48.0881 87.9628 48.0475 87.9312C47.388 87.4178 45.692 87.3847 45.0166 87.6372C44.8625 87.6948 44.7666 87.7656 44.7537 87.8315C44.708 88.0642 45.3461 88.5389 46.2682 88.8259C46.3173 88.8411 46.3447 88.8934 46.3294 88.9424C46.317 88.9823 46.2803 89.0079 46.2406 89.0079Z" fill="#21211D"/>
<path fill-rule="evenodd" clip-rule="evenodd" d="M18.5197 87.2932C18.461 86.475 18.3559 85.6606 18.2089 84.8509C18.1548 84.567 18.098 84.284 18.0347 84.002C16.3475 83.6168 15.691 83.7693 15.691 83.7693C15.7535 83.9285 15.814 84.0923 15.8726 84.2551C15.9992 84.6042 16.1109 84.9616 16.2189 85.3199C16.4273 86.0385 16.6004 86.771 16.7308 87.511C16.8621 88.2518 16.9505 88.9992 16.9923 89.7503C17.0324 90.5015 17.0193 91.2554 16.9532 92.0046L16.9271 92.2858L16.9142 92.4263L16.8937 92.5659L16.874 92.7018L16.8136 93.1244C16.7401 93.4929 16.674 93.8653 16.5716 94.2282L16.5017 94.5028C16.4776 94.594 16.4459 94.6824 16.418 94.7727C16.3585 94.9524 16.3063 95.1348 16.2421 95.3126L16.0364 95.8413C16.0187 95.8859 16.0021 95.9306 15.9843 95.9743L15.9238 96.1028L15.8037 96.3606L15.6837 96.6193C15.6446 96.7069 15.5943 96.7869 15.5506 96.8716L15.276 97.3733L14.9669 97.8564C14.9139 97.9354 14.8664 98.0192 14.8097 98.0965L14.6384 98.3273C14.523 98.48 14.4131 98.6391 14.2922 98.788L13.9245 99.2187L13.5692 100.142L13.8008 99.9505L14.0316 99.7588C14.1088 99.6946 14.1777 99.6229 14.2512 99.555L14.6868 99.1408C14.8274 98.9984 14.9586 98.8467 15.0964 98.6996L15.2992 98.4762C15.3672 98.4008 15.4258 98.3198 15.4901 98.2417L15.867 97.767L16.2123 97.2681C16.2681 97.1834 16.3306 97.1024 16.3818 97.0149L16.5372 96.7543L16.6935 96.4918L16.7717 96.3606C16.7959 96.3159 16.8182 96.2703 16.8415 96.2257L17.1207 95.6821C17.2091 95.4987 17.2864 95.3098 17.3693 95.1227C17.4093 95.0287 17.4539 94.9365 17.4894 94.8407L17.5964 94.554C17.7462 94.1733 17.8588 93.7805 17.9798 93.3877L18.1297 92.793L18.1669 92.6432L18.1968 92.4933L18.2572 92.1917C18.301 91.9656 18.34 91.7375 18.3745 91.5095C18.4638 90.9268 18.5225 90.3395 18.5523 89.7513C18.5542 89.7187 18.5551 89.6861 18.5569 89.6535C18.5569 89.6378 18.5579 89.621 18.5587 89.6051C18.5895 88.8354 18.5756 88.0629 18.5197 87.2932Z" fill="#F5C245"/>
<path fill-rule="evenodd" clip-rule="evenodd" d="M12.051 104.092C12.0395 104.092 12.028 104.09 12.0167 104.086C11.9689 104.067 11.9455 104.013 11.9644 103.965L16.7958 91.7454C16.8148 91.6975 16.869 91.6742 16.9166 91.693C16.9644 91.7119 16.9879 91.766 16.9689 91.8139L12.1375 104.033C12.123 104.07 12.088 104.092 12.051 104.092Z" fill="#21211D"/>
<path fill-rule="evenodd" clip-rule="evenodd" d="M26.3614 87.3629C26.3871 87.4827 26.4111 87.603 26.4353 87.7231L28.0448 92.9156C28.0561 92.7895 28.1301 92.1298 28.1395 92.0035C28.2474 90.4529 28.3029 88.6241 28.141 87.0791C28.114 86.8259 28.0842 86.5736 28.0506 86.3214C27.4801 85.5722 26.6415 85.0742 25.7229 84.9244C25.7545 85.0295 25.7862 85.1347 25.8178 85.2408C26.0263 85.9389 26.2059 86.6481 26.3614 87.3629Z" fill="#F5C245"/>
<path fill-rule="evenodd" clip-rule="evenodd" d="M31.4483 104.602H29.8369C29.7855 104.602 29.7438 104.56 29.7438 104.509C29.7438 104.458 29.7855 104.416 29.8369 104.416H31.3233L26.3461 87.7498C26.3313 87.7005 26.3594 87.6486 26.4086 87.6339C26.4574 87.6192 26.5098 87.6471 26.5244 87.6964L31.5375 104.482C31.5459 104.511 31.5405 104.541 31.5229 104.565C31.5054 104.588 31.4777 104.602 31.4483 104.602Z" fill="#21211D"/>
<path fill-rule="evenodd" clip-rule="evenodd" d="M12.6592 102.178C12.6511 102.178 12.6428 102.177 12.6347 102.175L6.02501 100.366C5.97537 100.352 5.94622 100.301 5.95972 100.252C5.97336 100.202 6.02446 100.173 6.0741 100.186L12.6838 101.995C12.7333 102.009 12.7625 102.06 12.749 102.109C12.7376 102.151 12.7002 102.178 12.6592 102.178Z" fill="#F5F5F5"/>
<path fill-rule="evenodd" clip-rule="evenodd" d="M31.1413 103.474C31.1294 103.474 31.1172 103.471 31.1055 103.466C31.0581 103.447 31.0358 103.392 31.0556 103.345L33.6271 97.1872C33.6469 97.1399 33.7012 97.1173 33.7489 97.1372C33.7963 97.157 33.8187 97.2115 33.7989 97.259L31.2273 103.416C31.2124 103.452 31.1778 103.474 31.1413 103.474Z" fill="#F5F5F5"/>
<path fill-rule="evenodd" clip-rule="evenodd" d="M20.3095 72.6651C20.3095 72.853 20.1572 73.0054 19.9692 73.0054C19.7813 73.0054 19.629 72.853 19.629 72.6651C19.629 72.4772 19.7813 72.3248 19.9692 72.3248C20.1572 72.3248 20.3095 72.4772 20.3095 72.6651Z" fill="#21211D"/>
<path fill-rule="evenodd" clip-rule="evenodd" d="M26.6264 81.5065C26.0277 82.1305 25.2092 82.2333 24.3443 82.0599C22.1368 81.6174 19.6157 79.3766 19.6157 79.3766C19.1158 78.9845 18.5836 78.4472 18.248 77.8546L18.2308 77.8233C18.1441 77.6691 18.0725 77.5098 18.0171 77.3495C18.0161 77.3455 18.0141 77.3414 18.013 77.3374C17.9869 77.2588 17.9647 77.1791 17.9475 77.0995C17.886 76.8213 17.8356 76.7135 17.7792 76.523C17.7359 76.3778 17.6895 76.1832 17.6331 75.8274C17.4526 74.6884 17.9284 73.6804 18.9485 73.1301C20.3224 72.3882 22.1025 72.1976 23.5701 72.8236C23.5742 72.8256 23.5782 72.8267 23.5822 72.8287C23.9572 72.9899 24.2939 73.2086 24.5973 73.4708C24.8866 73.7187 25.1467 74.007 25.3815 74.3195C26.0378 75.1894 26.4974 76.2508 26.8673 77.2064C27.3925 78.5622 27.7453 80.3403 26.6264 81.5065Z" fill="#FFCACA"/>
<path fill-rule="evenodd" clip-rule="evenodd" d="M23.4868 77.0938L24.387 84.7506C24.5648 86.2628 23.483 87.6328 21.9709 87.8105C20.4587 87.9883 19.0888 86.9066 18.911 85.3945C18.8924 85.2363 18.8889 85.0643 18.8969 84.9105L19.3502 77.2142C19.4177 76.069 20.4007 75.1953 21.546 75.2628C22.5672 75.3229 23.3722 76.1118 23.4868 77.0938Z" fill="#FFCACA"/>
<path fill-rule="evenodd" clip-rule="evenodd" d="M24.0654 81.9762C24.0654 81.9762 23.4118 81.8671 22.5458 81.4221C22.4399 81.3677 22.3352 81.4964 22.4115 81.5879L24.2241 83.4241L24.0654 81.9762Z" fill="#21211D"/>
<path fill-rule="evenodd" clip-rule="evenodd" d="M19.192 79.8139C19.192 79.8139 19.4004 79.6896 19.5504 79.4697C19.5733 79.4362 19.6251 79.4457 19.6329 79.4855C19.6864 79.7573 19.7342 80.4764 19.1198 81.0684L19.192 79.8139Z" fill="#21211D"/>
<path fill-rule="evenodd" clip-rule="evenodd" d="M23.5822 72.8287C23.5782 72.8267 23.5742 72.8256 23.5701 72.8236C22.1025 72.1976 20.3224 72.3882 18.9484 73.1301C17.9284 73.6804 17.4526 74.6884 17.6331 75.8275C17.7631 76.649 17.8397 76.6077 17.9475 77.0995C17.9646 77.1791 17.9869 77.2588 18.013 77.3374C18.0141 77.3414 18.0161 77.3455 18.0171 77.3495L19.2388 77.4735C19.4353 77.535 19.5987 77.6721 19.6944 77.8546L19.9504 78.3414C20.0704 78.5813 20.3536 78.6912 20.6046 78.5944C20.8113 78.5148 20.9383 78.3172 20.9383 78.1086C20.9383 78.0501 20.9282 77.9906 20.908 77.9331L19.9759 75.3247" fill="black"/>
<path fill-rule="evenodd" clip-rule="evenodd" d="M19.8669 78.6215C19.8168 79.4854 19.0758 80.1452 18.2119 80.0951C17.3479 80.045 16.6882 79.304 16.7383 78.4401C16.7884 77.5761 17.5294 76.9164 18.3934 76.9665C19.2573 77.0165 19.917 77.7575 19.8669 78.6215Z" fill="#FFCACA"/>
<path fill-rule="evenodd" clip-rule="evenodd" d="M18.8246 78.7177L17.5943 78.2022C17.5429 78.1807 17.5187 78.1217 17.5402 78.0703C17.5617 78.019 17.6208 77.9948 17.6721 78.0163L18.9025 78.5317C18.9539 78.5532 18.978 78.6123 18.9566 78.6636C18.9404 78.7022 18.9029 78.7255 18.8635 78.7255C18.8506 78.7255 18.8374 78.723 18.8246 78.7177Z" fill="#21211D"/>
<path fill-rule="evenodd" clip-rule="evenodd" d="M18.0987 78.9416C18.0867 78.9416 18.0746 78.9395 18.0628 78.935C18.0107 78.9151 17.9847 78.8568 18.0045 78.8048L18.1813 78.3423C18.2011 78.2903 18.2595 78.2643 18.3114 78.2841C18.3634 78.304 18.3894 78.3623 18.3696 78.4143L18.1929 78.8768C18.1776 78.9169 18.1393 78.9416 18.0987 78.9416Z" fill="#21211D"/>
<path fill-rule="evenodd" clip-rule="evenodd" d="M24.5973 73.4709L17.7792 76.5231C17.7399 76.391 17.6976 76.2187 17.6482 75.9223C17.6431 75.892 17.6381 75.8608 17.633 75.8276C17.6068 75.6602 17.5937 75.4899 17.5978 75.3205C17.6048 74.8699 17.7207 74.4254 17.9616 74.0383C18.3377 73.4326 18.9445 73.116 19.5654 72.8106C19.8144 72.6887 20.0684 72.5737 20.3294 72.4769C21.3485 72.0979 22.4321 72.0687 23.4008 72.606C23.8232 72.8409 24.2314 73.1553 24.5973 73.4709Z" fill="#0057B7"/>
<mask id="mask3_1_1709" style="mask-type:alpha" maskUnits="userSpaceOnUse" x="17" y="72" width="11" height="5">
<path fill-rule="evenodd" clip-rule="evenodd" d="M17.6787 72.0117H27.8744V76.6255H17.6787V72.0117Z" fill="white"/>
</mask>
<g mask="url(#mask3_1_1709)">
<path fill-rule="evenodd" clip-rule="evenodd" d="M17.7793 76.6246C17.7406 76.6246 17.7037 76.6022 17.687 76.5645C17.6646 76.5136 17.6877 76.4541 17.7386 76.4316L27.7327 72.0195C27.7836 71.997 27.8431 72.02 27.8656 72.071C27.8881 72.1219 27.865 72.1814 27.8141 72.2039L17.82 76.616C17.8068 76.6219 17.7929 76.6246 17.7793 76.6246Z" fill="#21211D"/>
</g>
<path fill-rule="evenodd" clip-rule="evenodd" d="M18.8003 75.2197C18.8003 75.3285 18.7368 75.4313 18.632 75.4797L17.6482 75.9222C17.6431 75.8921 17.6381 75.8608 17.633 75.8275C17.6068 75.6602 17.5937 75.4899 17.5978 75.3205L18.3961 74.9586C18.5473 74.89 18.7247 74.9647 18.7822 75.1199C18.7943 75.1531 18.8003 75.1865 18.8003 75.2197Z" fill="white"/>
<path fill-rule="evenodd" clip-rule="evenodd" d="M24.4404 79.0688C24.44 79.0688 24.4395 79.0688 24.4391 79.0688L24.0796 79.0678C24.0221 79.0676 23.9757 79.0209 23.9759 78.9634C23.976 78.906 24.0235 78.8569 24.0802 78.8597L24.4398 78.8606C24.44 78.8607 24.4402 78.8607 24.4404 78.8607C24.5169 78.8607 24.5873 78.8259 24.6338 78.7651C24.6804 78.7041 24.6955 78.6267 24.6752 78.5527L24.2433 76.9793C24.228 76.9238 24.2606 76.8666 24.3161 76.8513C24.3716 76.8361 24.4288 76.8687 24.444 76.9242L24.876 78.4976C24.9135 78.6349 24.8856 78.7785 24.7992 78.8916C24.713 79.0042 24.5822 79.0688 24.4404 79.0688Z" fill="#21211D"/>
<path fill-rule="evenodd" clip-rule="evenodd" d="M27.3544 76.34C27.3367 76.34 27.3186 76.3355 27.3022 76.3259C26.1714 75.6684 25.2214 76.2893 25.1815 76.316C25.134 76.348 25.0692 76.3354 25.0372 76.2878C25.0051 76.2401 25.0176 76.1756 25.0652 76.1435C25.1093 76.1136 26.1604 75.4213 27.4069 76.146C27.4566 76.1748 27.4734 76.2385 27.4445 76.2883C27.4252 76.3215 27.3903 76.34 27.3544 76.34Z" fill="#21211D"/>
<mask id="mask4_1_1709" style="mask-type:alpha" maskUnits="userSpaceOnUse" x="25" y="76" width="3" height="2">
<path fill-rule="evenodd" clip-rule="evenodd" d="M25.0141 76.7767H27.5888V77.836H25.0141V76.7767Z" fill="white"/>
</mask>
<g mask="url(#mask4_1_1709)">
<path fill-rule="evenodd" clip-rule="evenodd" d="M27.5888 77.2277C27.5888 77.2277 27.0738 77.8643 26.2364 77.8345C25.8815 77.8212 25.4684 77.69 25.0141 77.3373C25.0141 77.3373 25.4566 76.8295 26.1933 76.7804C26.5836 76.7532 27.0556 76.8535 27.5888 77.2277Z" fill="white"/>
</g>
<mask id="mask5_1_1709" style="mask-type:alpha" maskUnits="userSpaceOnUse" x="26" y="76" width="2" height="2">
<path fill-rule="evenodd" clip-rule="evenodd" d="M26.0379 76.7767H27.5886V77.836H26.0379V76.7767Z" fill="white"/>
</mask>
<g mask="url(#mask5_1_1709)">
<path fill-rule="evenodd" clip-rule="evenodd" d="M27.5888 77.2277C27.5888 77.2277 27.0738 77.8643 26.2364 77.8345C26.1187 77.6924 26.0473 77.5147 26.0389 77.3167C26.0305 77.1186 26.0881 76.9319 26.1932 76.7804C26.5836 76.7532 27.0556 76.8535 27.5888 77.2277Z" fill="#21211D"/>
</g>
<mask id="mask6_1_1709" style="mask-type:alpha" maskUnits="userSpaceOnUse" x="21" y="75" width="3" height="2">
<path fill-rule="evenodd" clip-rule="evenodd" d="M21.3965 75.8171H23.8358V76.3407H21.3965V75.8171Z" fill="white"/>
</mask>
<g mask="url(#mask6_1_1709)">
<path fill-rule="evenodd" clip-rule="evenodd" d="M21.5006 76.3403C21.4648 76.3403 21.4299 76.3218 21.4106 76.2886C21.3817 76.2388 21.3985 76.1751 21.4482 76.1463C22.6947 75.4216 23.7458 76.1139 23.7899 76.1438C23.8376 76.176 23.8501 76.2406 23.8179 76.2883C23.7858 76.3358 23.7212 76.3484 23.6735 76.3163C23.6336 76.2895 22.6836 75.6688 21.5529 76.3262C21.5364 76.3358 21.5184 76.3403 21.5006 76.3403Z" fill="#21211D"/>
</g>
<path fill-rule="evenodd" clip-rule="evenodd" d="M24.0608 79.8902C23.6453 79.8902 23.4247 79.5879 23.3637 79.4148C23.3446 79.3606 23.373 79.3011 23.4272 79.282C23.4813 79.2629 23.5405 79.2912 23.5598 79.345C23.5657 79.3611 23.7058 79.7292 24.1441 79.677C24.2013 79.6701 24.253 79.7109 24.2598 79.768C24.2666 79.8251 24.2258 79.8769 24.1688 79.8837C24.1315 79.8881 24.0954 79.8902 24.0608 79.8902Z" fill="#21211D"/>
<path fill-rule="evenodd" clip-rule="evenodd" d="M22.0817 77.9766C22.0426 77.9766 22.0056 77.9531 21.9902 77.9145C21.97 77.864 21.9947 77.8066 22.0452 77.7865L23.0782 77.3747L22.0842 76.9546C22.0341 76.9334 22.0106 76.8756 22.0318 76.8255C22.053 76.7753 22.1109 76.7519 22.1609 76.7731L23.3758 77.2865C23.4127 77.3021 23.4364 77.3383 23.4361 77.3783C23.4357 77.4182 23.4112 77.454 23.374 77.4688L22.1181 77.9695C22.1062 77.9743 22.0938 77.9766 22.0817 77.9766Z" fill="#21211D"/>
<path d="M30.5 63.9507C29.3 63.3146 27 58.3852 26 56H32C32 58.9152 31.7 64.5867 30.5 63.9507Z" fill="#DCF5EF"/>
<rect y="39" width="35" height="20" rx="3" fill="#DCF5EF"/>
<path d="M7.234 52.028L6.49 51.812C6.43 52.214 6.178 52.406 5.704 52.406C5.182 52.406 4.822 52.028 4.822 51.32C4.822 50.612 5.176 50.234 5.71 50.234C6.118 50.234 6.37 50.402 6.442 50.834L7.192 50.588C7.042 49.934 6.46 49.592 5.716 49.592C4.654 49.592 4 50.234 4 51.32C4 52.406 4.654 53.048 5.692 53.048C6.526 53.048 7.108 52.664 7.234 52.028Z" fill="#0C7057"/>
<path d="M10.0441 53H10.9381L10.0561 51.668C10.5001 51.518 10.7581 51.182 10.7581 50.702C10.7581 50.03 10.2601 49.64 9.44411 49.64H7.84811V53H8.66411V51.758H9.30011L10.0441 53ZM8.66411 50.228H9.35411C9.75611 50.228 9.94811 50.39 9.94811 50.72C9.94811 51.05 9.75611 51.206 9.35411 51.206H8.66411V50.228Z" fill="#0C7057"/>
<path d="M12.3614 52.394V51.596H13.8494V51.014H12.3614V50.246H14.2694V49.64H11.5454V53H14.3234V52.394H12.3614Z" fill="#0C7057"/>
<path d="M16.4121 49.64H15.0141V53H16.4121C17.5341 53 18.1701 52.388 18.1701 51.314C18.1701 50.252 17.5341 49.64 16.4121 49.64ZM16.4241 52.37H15.8301V50.27H16.4241C17.0421 50.27 17.3481 50.642 17.3481 51.314C17.3481 51.992 17.0421 52.37 16.4241 52.37Z" fill="#0C7057"/>
<path d="M19.7736 49.64H18.9516V53H19.7736V49.64Z" fill="#0C7057"/>
<path d="M23.5953 49.64H20.4213V50.282H21.5973V53H22.4193V50.282H23.5953V49.64Z" fill="#0C7057"/>
<path d="M25.0528 52.394V51.596H26.5408V51.014H25.0528V50.246H26.9608V49.64H24.2368V53H27.0148V52.394H25.0528Z" fill="#0C7057"/>
<path d="M29.1035 49.64H27.7055V53H29.1035C30.2255 53 30.8615 52.388 30.8615 51.314C30.8615 50.252 30.2255 49.64 29.1035 49.64ZM29.1155 52.37H28.5215V50.27H29.1155C29.7335 50.27 30.0395 50.642 30.0395 51.314C30.0395 51.992 29.7335 52.37 29.1155 52.37Z" fill="#0C7057"/>
<path d="M8.56 43.592C7.648 43.592 7.084 44.036 7.084 44.666C7.084 46.052 9.214 45.452 9.214 46.064C9.214 46.304 8.968 46.4 8.554 46.4C8.026 46.4 7.69 46.25 7.42 45.86L7 46.454C7.342 46.838 7.828 47.048 8.56 47.048C9.46 47.048 10.054 46.652 10.054 46.004C10.054 44.648 7.924 45.194 7.924 44.6C7.924 44.378 8.152 44.24 8.572 44.24C9.064 44.24 9.34 44.378 9.592 44.756L10.042 44.186C9.682 43.784 9.268 43.592 8.56 43.592Z" fill="#0C7057"/>
<path d="M13.015 47H13.843L12.559 43.64H11.575L10.297 47H11.095L11.383 46.22H12.727L13.015 47ZM11.599 45.638L11.803 45.08L12.049 44.264H12.067L12.313 45.08L12.517 45.638H11.599Z" fill="#0C7057"/>
<path d="M15.2121 46.358V43.64H14.3901V47H17.0661V46.358H15.2121Z" fill="#0C7057"/>
<path d="M20.2162 47H21.0442L19.7602 43.64H18.7762L17.4982 47H18.2962L18.5842 46.22H19.9282L20.2162 47ZM18.8002 45.638L19.0042 45.08L19.2502 44.264H19.2682L19.5142 45.08L19.7182 45.638H18.8002Z" fill="#0C7057"/>
<path d="M23.7873 47H24.6813L23.7993 45.668C24.2433 45.518 24.5013 45.182 24.5013 44.702C24.5013 44.03 24.0033 43.64 23.1873 43.64H21.5913V47H22.4073V45.758H23.0433L23.7873 47ZM22.4073 44.228H23.0973C23.4993 44.228 23.6913 44.39 23.6913 44.72C23.6913 45.05 23.4993 45.206 23.0973 45.206H22.4073V44.228Z" fill="#0C7057"/>
<path d="M26.017 45.746V47H26.839V45.746L28.093 43.64H27.253L26.707 44.636L26.437 45.152L26.173 44.636L25.627 43.64H24.763L26.017 45.746Z" fill="#0C7057"/>
<rect width="35" height="23" rx="3" transform="matrix(-1 0 0 1 115 36)" fill="#DCF5EF"/>
<path d="M90.5 50C93.483 50 95 48.1074 95 44.5C95 40.8926 93.483 39 90.5 39C87.517 39 86 40.8926 86 44.5C86 48.1074 87.517 50 90.5 50ZM90.5 48.2044C89.0511 48.2044 88.3523 47.0397 88.3523 44.5C88.3523 41.9603 89.0511 40.7956 90.5 40.7956C91.9489 40.7956 92.6477 41.9603 92.6477 44.5C92.6477 47.0397 91.9489 48.2044 90.5 48.2044Z" fill="#0C7057"/>
<path d="M98.9781 49.268L105.134 40.1383H106.655L100.5 49.268H98.9781ZM99.4346 40C99.9326 40 100.361 40.1061 100.721 40.3182C101.09 40.5303 101.371 40.83 101.565 41.2173C101.768 41.6046 101.869 42.0565 101.869 42.5729C101.869 43.0893 101.768 43.5412 101.565 43.9285C101.371 44.3066 101.09 44.6063 100.721 44.8276C100.361 45.0397 99.9326 45.1458 99.4346 45.1458C98.9458 45.1458 98.517 45.0397 98.1481 44.8276C97.7792 44.6063 97.4934 44.3066 97.2905 43.9285C97.0968 43.5412 97 43.0893 97 42.5729C97 42.0565 97.0968 41.6046 97.2905 41.2173C97.4934 40.83 97.7792 40.5303 98.1481 40.3182C98.517 40.1061 98.9458 40 99.4346 40ZM99.4346 41.3141C99.2317 41.3141 99.0565 41.3648 98.9089 41.4663C98.7614 41.5585 98.6507 41.7014 98.5769 41.8951C98.5032 42.0795 98.4663 42.3055 98.4663 42.5729C98.4663 42.8311 98.5032 43.057 98.5769 43.2507C98.6507 43.4351 98.7614 43.5781 98.9089 43.6795C99.0565 43.7717 99.2317 43.8178 99.4346 43.8178C99.6467 43.8178 99.8219 43.7717 99.9602 43.6795C100.108 43.5781 100.218 43.4351 100.292 43.2507C100.366 43.057 100.403 42.8311 100.403 42.5729C100.403 42.3055 100.366 42.0795 100.292 41.8951C100.218 41.7014 100.108 41.5585 99.9602 41.4663C99.8219 41.3648 99.6467 41.3141 99.4346 41.3141ZM106.185 44.2605C106.674 44.2605 107.098 44.3712 107.458 44.5925C107.826 44.8046 108.112 45.1043 108.315 45.4916C108.518 45.8697 108.62 46.317 108.62 46.8334C108.62 47.3498 108.518 47.8017 108.315 48.189C108.112 48.5763 107.826 48.876 107.458 49.0881C107.098 49.3002 106.674 49.4063 106.185 49.4063C105.696 49.4063 105.267 49.3002 104.899 49.0881C104.53 48.876 104.244 48.5763 104.041 48.189C103.847 47.8017 103.75 47.3498 103.75 46.8334C103.75 46.317 103.847 45.8697 104.041 45.4916C104.244 45.1043 104.53 44.8046 104.899 44.5925C105.267 44.3712 105.696 44.2605 106.185 44.2605ZM106.185 45.5884C105.973 45.5884 105.793 45.6392 105.645 45.7406C105.507 45.8328 105.401 45.9712 105.327 46.1556C105.254 46.34 105.217 46.566 105.217 46.8334C105.217 47.0916 105.254 47.3175 105.327 47.5112C105.401 47.7049 105.507 47.8524 105.645 47.9539C105.793 48.0461 105.973 48.0922 106.185 48.0922C106.397 48.0922 106.572 48.0461 106.711 47.9539C106.858 47.8524 106.969 47.7049 107.043 47.5112C107.116 47.3175 107.153 47.0916 107.153 46.8334C107.153 46.566 107.116 46.34 107.043 46.1556C106.969 45.9712 106.858 45.8328 106.711 45.7406C106.572 45.6392 106.397 45.5884 106.185 45.5884Z" fill="#0C7057"/>
<path d="M86.8044 52.0441V54.9559H86V52.0441H86.8044Z" fill="#0C7057"/>
<path d="M90.4585 52.0441V54.9559H89.5653L88.6066 53.3809L88.3727 52.9485H88.3681L88.3868 53.4868V54.9559H87.6759V52.0441H88.5692L89.5279 53.6191L89.7617 54.0515H89.7664L89.7477 53.5132V52.0441H90.4585Z" fill="#0C7057"/>
<path d="M93.9249 52.0441V52.6309H92.9194V54.9559H92.1151V52.6309H91.1049V52.0441H93.9249Z" fill="#0C7057"/>
<path d="M94.5718 54.9559V52.0441H96.9756V52.6309H95.3762V53.2221H96.6482V53.7735H95.3762V54.3691H97.0364V54.9559H94.5718Z" fill="#0C7057"/>
<path d="M99.1823 52.0441C99.5502 52.0441 99.8355 52.1265 100.038 52.2912C100.244 52.4529 100.347 52.6691 100.347 52.9397C100.347 53.2368 100.245 53.4632 100.043 53.6191C99.8402 53.775 99.5549 53.8529 99.187 53.8529L99.1122 53.8926H98.4995V54.9559H97.7092V52.0441H99.1823ZM99.0701 53.3544C99.226 53.3544 99.3429 53.325 99.4208 53.2662C99.4988 53.2074 99.5377 53.1132 99.5377 52.9838C99.5377 52.8574 99.4988 52.7647 99.4208 52.7059C99.3429 52.6471 99.226 52.6176 99.0701 52.6176H98.4995V53.3544H99.0701ZM99.5424 53.5132L100.529 54.9559H99.6406L98.8503 53.6809L99.5424 53.5132Z" fill="#0C7057"/>
<path d="M101.121 54.9559V52.0441H103.524V52.6309H101.925V53.2221H103.197V53.7735H101.925V54.3691H103.585V54.9559H101.121Z" fill="#0C7057"/>
<path d="M105.465 52C105.751 52 106.004 52.0426 106.222 52.1279C106.444 52.2103 106.635 52.3324 106.797 52.4941L106.409 52.9838C106.275 52.8515 106.13 52.7529 105.974 52.6882C105.822 52.6206 105.647 52.5868 105.45 52.5868C105.335 52.5868 105.242 52.5985 105.17 52.6221C105.098 52.6456 105.047 52.6779 105.016 52.7191C104.984 52.7603 104.969 52.8074 104.969 52.8603C104.969 52.9221 104.998 52.975 105.058 53.0191C105.12 53.0603 105.22 53.0956 105.357 53.125L105.876 53.2353C106.185 53.3029 106.411 53.4015 106.554 53.5309C106.698 53.6603 106.769 53.8324 106.769 54.0471C106.769 54.2529 106.713 54.4279 106.601 54.5721C106.489 54.7132 106.334 54.8206 106.138 54.8941C105.942 54.9647 105.717 55 105.465 55C105.259 55 105.062 54.9794 104.875 54.9382C104.688 54.8941 104.52 54.8324 104.37 54.7529C104.221 54.6735 104.094 54.5824 103.991 54.4794L104.38 53.9721C104.457 54.0574 104.553 54.1338 104.665 54.2015C104.78 54.2662 104.905 54.3176 105.039 54.3559C105.176 54.3941 105.315 54.4132 105.455 54.4132C105.564 54.4132 105.655 54.4029 105.726 54.3824C105.801 54.3618 105.856 54.3309 105.89 54.2897C105.924 54.2485 105.942 54.2 105.942 54.1441C105.942 54.0824 105.918 54.0309 105.871 53.9897C105.825 53.9456 105.736 53.9088 105.605 53.8794L105.034 53.7603C104.86 53.7221 104.704 53.6721 104.567 53.6103C104.433 53.5456 104.327 53.4603 104.249 53.3544C104.171 53.2456 104.132 53.1103 104.132 52.9485C104.132 52.7662 104.185 52.6044 104.291 52.4632C104.397 52.3191 104.549 52.2059 104.749 52.1235C104.949 52.0412 105.187 52 105.465 52Z" fill="#0C7057"/>
<path d="M110 52.0441V52.6309H108.995V54.9559H108.19V52.6309H107.18V52.0441H110Z" fill="#0C7057"/>
<defs>
<linearGradient id="paint0_linear_1_1709" x1="58.705" y1="4.78485" x2="58.705" y2="152.96" gradientUnits="userSpaceOnUse">
<stop offset="0.334601" stop-color="white"/>
<stop offset="0.913843" stop-color="#ADD4FF"/>
</linearGradient>
</defs>
</svg>
